<svg xmlns="http://www.w3.org/2000/svg" viewBox="0 0 743.68 760.09"><g id="Layer_2" data-name="Layer 2"><g id="Layer_1-2" data-name="Layer 1"><g id="y7m4Wj.tif"><path d="M425.41,0c-1.83.48-3.68.91-5.49,1.45-2,.6-4,1.22-5.91,2-5.79,2.18-9.65,5.38-10,12.52-.45,8.69-2.38,17.3-3.49,26a8.9,8.9,0,0,0,.85,4.72c4.06,8.39,8.29,16.7,12.45,25,.4.8.75,1.63,1.25,2.72H335a6.49,6.49,0,0,0,.4,1.12c16.6,25.35,33,50.85,49.91,76a325.91,325.91,0,0,0,40.37,49.2c17.74,17.65,37.3,32.7,60.33,42.9A138.27,138.27,0,0,0,555.47,255c16.8-1.5,32.79-6.27,48.55-12,20.24-7.38,40.43-14.92,60.89-21.63,8.46-2.77,17.53-3.88,26.4-5.15,4-.58,7.09-1.36,8.26-5.72a30.37,30.37,0,0,1,2.46-5l-15-5.08c.78-.74,1.35-1.3,1.94-1.83q23.13-20.82,46.27-41.63c4.26-3.83,6.54-8.83,8-14.15,1.33-4.88-.64-8.68-5.39-10.42a32.72,32.72,0,0,0-9.93-2.12c-10.68-.36-20.75-3.3-30.4-7.38A206,206,0,0,1,672.47,110c-29.11-17.3-59.28-32-92.47-39.8a187.79,187.79,0,0,0-64.26-4.14c-6.6.74-13.14,2-20,3.09-.2-.62-.49-1.45-.73-2.29-2.88-10.08-5.69-20.17-8.67-30.22a9.23,9.23,0,0,0-2.59-4c-11.28-10-22.66-19.89-34-29.84-1-.86-1.87-1.84-2.8-2.77Z"/><path d="M324.56,532.5,213.87,522.43c1.66-3.29,3.12-6.41,4.82-9.39.3-.52,1.61-.63,2.45-.64,14.67,0,29.34.09,44-.06,13.33-.13,26.67-.25,40-.92a119.58,119.58,0,0,0,36.58-7.31c17.05-6.44,30.14-17.55,38.91-33.49,9.09-16.55,16.13-33.93,19.84-52.56,6.45-32.4,1.66-63.23-12.74-92.77-4.89-10-10.62-19.34-18.74-27.19A80.45,80.45,0,0,0,325.32,276c-22.55-3.77-44.77-1.62-66.75,4.39-26.07,7.12-50.3,17.86-71.3,35.2a148.78,148.78,0,0,0-31,35.72,91.52,91.52,0,0,1-8,10.82c-10.76,12.5-21.67,24.88-32.55,37.28-16.76,19.08-30.19,40.3-41.47,63C65,481.26,55.08,499.75,44.85,518a165,165,0,0,1-15.68,22.53C13.37,560.2,3.29,582.16.63,607.33-4.6,656.86,23,709.79,74.48,728.32c11.46,4.12,23.44,5.63,35.41,7.09a452.87,452.87,0,0,0,62.59,3.19,447.39,447.39,0,0,0,92.3-11.35c45-10.25,87.48-27,128.51-47.88,35.38-18,71.09-35.33,108-50,33.6-13.4,67.94-24.49,103.58-31.06,15.37-2.83,31-3.33,46.57-2.52,11.3.59,22.58,1.68,33.84,2.85a32.32,32.32,0,0,1,9.81,2.7c10.74,4.81,15.66,15.07,13.61,27.22-2.19,13-8.12,24.46-14.66,35.57a126,126,0,0,1-58.13,52.25c-26.72,12-53.69,23.38-82,31.37a291,291,0,0,1-69.6,11.15c-.92,0-1.83.12-2.74.19v.61c2.37,0,4.74,0,7.11,0s5,.29,7.49.33a417.4,417.4,0,0,0,52.92-2c40.33-4.42,78.52-15.42,112.86-37.63,13.26-8.58,26.92-16.67,38.81-27.25,11.43-10.17,22.22-21,30.65-33.79,13.25-20.14,16.32-41.6,5.37-63.69-8.54-17.23-23.22-27.35-41.57-32.11-24.26-6.3-49-8.41-74-7.88-26.55.57-51.82,7.39-77,14.64-43,12.39-84.32,29.42-125,47.93-27.79,12.64-55.3,25.89-83.13,38.42a455,455,0,0,1-103.28,32.61,396.92,396.92,0,0,1-89.53,6.47c-16.67-.67-33.23-2-49.55-5.74-12.43-2.83-23.74-7.61-32.6-17.18-5.82-6.29-10.4-13.42-12.32-21.71-1.09-4.72-.62-9.89-.28-14.83a63,63,0,0,1,5.43-21.68c5.82-13,15.72-21.6,28.8-26.47,4.93-1.84,10.38-2.31,15.6-3.35,19.82-4,39.61-8.19,59.5-11.75,8.58-1.54,17.39-1.75,26.1-2.51q24.65-2.17,49.29-4.3c12.44-1.08,24.9-2.11,37.34-3.27a24.1,24.1,0,0,0,6.51-1.45c15.09-5.94,30.13-12,45.21-18,1.74-.69,2.48-1.53,2.34-3.44C324.42,537.69,324.56,535.27,324.56,532.5Z"/><path d="M334,254.63l-29.35-49c3-.68,5.05-.25,7.07,2.08q51.31,58.89,102.87,117.57c6.25,7.09,8.87,15.33,9.7,24.33.64,6.88.71,13.8,1,20.71a7.06,7.06,0,0,0,.13,1.73c2.73,9.11,5.81,18.05,11.16,26.05,8,12,19.39,16.93,33.51,16.53a84.26,84.26,0,0,0,29.37-6.23C508.16,405,517,402,525.63,398.5c5.75-2.33,11.79-2.76,17.78-3.66,7.48-1.13,15-2.17,22.77-3.29,3.35,11.67,6.68,23.29,10.11,35.23,7.05-3,13.86-5.88,18.56-12,3-3.95,3.17-8.5,2.32-13.12a29.92,29.92,0,0,0-2-6.43c-6.08-13.89-12.73-27.5-21.84-39.72-6.73-9-15-11.59-25.77-8.16-9.76,3.12-18.39,8.53-27.28,13.41-5.61,3.09-11.17,6.27-16.76,9.39-.7.39-1.46.65-2.74,1.21C516,339.27,530.92,307.73,546,275.86c-4-.82-7.77-1.6-11.56-2.36-17.46-3.5-35.08-6.31-52.33-10.63-28.48-7.12-50.82-23.5-67.19-47.86s-32.44-48.62-48.63-72.95a45.41,45.41,0,0,1-2.39-4.09c-12.72-24.31-29.85-44.5-54.26-57.75C287.67,68.28,264,64,239.2,65.9a165.07,165.07,0,0,0-94,37.63c-8.36,6.83-15.36,15.5-22.28,23.9-30.74,37.24-50.16,79.88-59,127.26-2.69,14.46-4,29.17-5.95,43.77a31.24,31.24,0,0,0-.13,4q0,65.88-.06,131.74c0,2.05.59,3.14,2.46,3.92,2.52,1.05,4.92,2.4,7.58,3.72.62-.88,1.19-1.67,1.73-2.48l67.62-101.42a24,24,0,0,0,1.57-2.56c11.27-22.19,28.3-38.64,50.06-50.43,18.16-9.84,37.71-15.74,57.69-20.41,7-1.63,14-3.09,21-4.49a61,61,0,0,0,20-8.14c.48-.3.9-.69,1.68-1.29L199.82,220.8c0-.22,0-.44,0-.67,4-.54,8.07-1.22,12.12-1.62,28.89-2.83,56.2,3.27,82.21,15.37C306.85,239.8,319,247,331.38,253.6c.78.42,1.52.89,2.28,1.33Z"/><path d="M485.6,562.62l-4.94-15,30.11,10a28,28,0,0,0-1.71-20.05c-6-12.29-16.24-19-29.44-21.55a207.35,207.35,0,0,0-47.44-3.73,78.21,78.21,0,0,1-15.64-1.22c-8.88-1.48-15-6.74-18.49-15.05-1.14-2.73-2.09-5.55-3.19-8.5-.72.49-1.4.92-2.05,1.4q-28,21-56,41.92c-1.71,1.28-2.05,2.24-1.09,4.23C343.5,551.19,356.22,560.3,374,562c7,.67,14.13.87,21.19.87,29,0,58-.14,87-.23Z"/><path d="M566.17,49.31C557.86,36,549.75,23,541.6,10.08A2.86,2.86,0,0,0,539.85,9C530.27,7.29,520.68,5.69,511,4.06c-.36.76-.7,1.41-1,2.08-2.81,7-5.69,14-8.36,21.1a5.33,5.33,0,0,0,.15,3.89c4.09,8,10.1,14.15,18.34,17.64,3.27,1.39,7.14,1.4,10.75,1.94,7.57,1.13,15.14,2.28,22.74,3.22a10.66,10.66,0,0,0,4.94-.88C561.08,52,563.47,50.67,566.17,49.31Z"/></g></g></g></svg>