<?xml version="1.0" encoding="utf-8"?>
<!-- Generator: Adobe Illustrator 24.2.3, SVG Export Plug-In . SVG Version: 6.00 Build 0)  -->
<svg version="1.1" id="Layer_1" xmlns="http://www.w3.org/2000/svg" xmlns:xlink="http://www.w3.org/1999/xlink" x="0px" y="0px"
	 viewBox="0 0 288.6 169.1" style="enable-background:new 0 0 288.6 169.1;" xml:space="preserve">
<g>
	<g id="Layer_1-2">
		<g id="_02_ox">
			<path d="M228.8,84.6V66.9l-1-0.2l-3.7,19.3c-7.3-2.2-10.8,3.2-14,8.6c-3.9,6.5-5.4,14.1-4.4,21.6c-8.7,4.9-17.7,8.3-28.3,3.9
				c-13.2-5.5-14-6.1-9.6-19.7c1.9-5.9,5.3-11.3,8.2-16.9c2.5-4.9,5.3-9.6,7.1-14.9c-4.8,7.4-9.8,14.6-14.4,22.1
				c-5,8-6.7,17.6-4.9,26.9c0.8,3.9,1,7.9,0.5,11.8c-1.1,8.4,1.1,15.4,7.4,21.2c4.9,4.5,9.6,9.2,15.1,14.6c-6.8,2.3-12.5,3-18.4,1
				c-0.8-0.2-1.6-0.6-2.1-1.2c-3.4-5.6-8.2-11-9.6-17.1c-3.8-17.2-7.3-34.2-18.6-48.4c-3.3-4.3-3.2-8.8-1.2-13.7
				c3.3-8.4,6.6-16.8,4.6-26.1c-0.5-2.4-1.4-4.8-2.6-6.9c2.1,9-0.4,17.4-3.7,25.2c-5.2,12.5-3.3,23.3,5.7,33.1
				c0.7,0.9,1.4,1.9,2,2.9c-4.4,2.4-8.8,4.5-12.9,7.2c-4.5,2.9-6.2,7.2-4.9,12.9c-5.6-6.7-13.8-10.8-16.7-19.7
				c-0.8-2.3-3.9-4.5-6.4-5.3c-4.5-1.5-9.3-2-15.2-3.1c11-17.9,9-35-1-51.2c1.6,6.9,3.7,14.3,5,21.9c3.6,19.6-11.7,39.1-29,45.7
				c-3.4,1.3-6.4,3.3-9.7,5l-0.1,2.3c5.5,3.5,10.7,7.9,16.6,10.3c8,3.2,13.4,8.6,17.6,15.8c2.5,4.3,4.9,8.6,7.4,13
				c-8.1,3.1-19.2-2.4-21.7-9.5c-1-2.8-3.8-5.2-6.3-7.2c-6.7-5.1-13.9-9.7-20.6-14.9c-5.5-4.2-6.2-8.9-2-14.3
				c5.9-7.8,5.9-15.8,1.5-23.8c-12.8-23.3-9-38.2,11.3-60.5c1-1,2.4-1.7,3.2-3.2C41.6,33.1,25.3,34.3,12,46.9
				c-5.2,5-7.1,11.3-6.3,18.2c0.3,2.4,2.1,6.2,3.9,6.7c2.6,0.7,6.7-0.1,8.5-1.9c3.4-3.3,7-6.6,6-13c-0.5-3.1,4-7,6.9-11.6
				c0.7,2.1,0.9,2.7,1.3,4l7-7.6c3.7,3.7,2.1,7.6,0.1,11.4c-2.2,4.1-5,7.4-10,8.2c-1.1,0.2-2.1,1.8-2.9,3c-1.6,2.5-2.8,5.3-4.5,7.7
				c-3.5,4.6-8.4,6.1-13.9,4.8c-5-1.2-7-5.2-7.7-10C-1.4,54.4,3.3,45,13.2,37.9c10.8-7.6,23-10.6,35.9-9.7c11.1,0.8,22,0.1,33.1-0.4
				c13.9-0.6,27.2-2.6,40.5-7.2c10.7-3.7,22.3-4.7,33.5-7c1-0.2,1.9-0.5,2.8-0.9c12.5-4,24.9-8.3,37.5-11.8
				c9.9-2.8,14.9,0.7,16.6,10.8c1.1,6.3,4.2,11,8.7,15.3c7.9,7.5,15.2,15.6,16.9,27c1.2,8,3.5,16.2-1.7,23.7
				c-2.1,2.7-4.3,5.3-6.6,7.7L228.8,84.6z"/>
			<path d="M218.4,137.9c0.2,1,0.4,1.9,0.6,2.9c0.3,1.9,0.5,3.7,0.8,5.6l-5.3-1.5c-0.1,0.5-0.4,1.6-0.6,2.6c-5-3-5.8-6.8-2-10.7
				c2.8-2.8,2.3-5.2,1-8.5c-4.4-11.2-7.4-22.6,1.2-33.4c1.5-1.8,3.2-3.4,5.2-4.6c2.7-1.8,5.1-1.6,7.2,1.5
				c7.9,11.4,16.8,14.4,30.5,10.5c1.5-0.4,3.1-1,5.3-1.7c-2,10.1-4.5,18.8-14.7,23.1c-2.6,1.3-4.8,3.4-6.3,5.9
				c-2.2,3.5-3.4,7.6-5.4,11.2c-1,2.1-2.3,4-4,5.6c-4.6,4-8.3,2.6-9.4-3.3c-0.6-2-1.3-4-2.2-5.9L218.4,137.9z"/>
			<path d="M80.5,113c4.2-3.6,18.6-4.1,23.1,0.4c1.7,1.7,2.8,6,1.8,7.9c-6.3,12.2-0.1,20,8.8,26.8c4.7,3.6,10,6.6,14.8,10.1
				c3.7,2.6,7.1,5.7,10.6,8.5l-0.7,1.8c-6.2,0-12.4,0-18.7,0c-1,0-2.3-0.2-2.8-0.8c-3.2-3.8-7-7.4-9-11.8c-2.8-6-5.8-11.5-11.1-15.6
				c-4.8-3.6-8-9-8.8-14.9C87.8,121,83.5,117.3,80.5,113z"/>
			<path d="M274,85c-2,5.4-5.8,8.7-10.5,11c-7.9,3.8-16.8,4.8-25.3,2.8c-6.3-1.3-8.4-9.1-3.9-13.7c3.3-3.4,10.9-4.5,14.8-1.7
				c1.3,0.9,2.8,3,2.6,4.3s-2.3,2.3-3.8,3.1c-1.1,0.5-2.5,0.4-4.1,0.6C250.6,95.1,261.6,92.7,274,85z"/>
			<path d="M182,125.4h7.6c-0.5,10.8-1,21.7-1.5,32.8c-4.4-3.9-8.5-6.7-11.5-10.5c-1.1-1.4-0.4-5.8,1-7.4
				C181.5,135.9,183.4,131.3,182,125.4z"/>
			<path d="M259.6,117.4c1.2-2.5,2.2-4.4,3.1-6.3c8.9,8.4,16.2,9,25.9,2.1c-0.6,3.6-3.2,6.4-8,7.6
				C273.3,122.6,266.1,122.7,259.6,117.4z"/>
		</g>
	</g>
</g>
</svg>
