<?xml version="1.0" encoding="utf-8"?>
<!-- Generator: Adobe Illustrator 24.2.3, SVG Export Plug-In . SVG Version: 6.00 Build 0)  -->
<svg version="1.1" id="Layer_1" xmlns="http://www.w3.org/2000/svg" xmlns:xlink="http://www.w3.org/1999/xlink" x="0px" y="0px"
	 viewBox="0 0 299.7 131.8" style="enable-background:new 0 0 299.7 131.8;" xml:space="preserve">
<g>
	<g>
		<g>
			<path d="M67.2,31.7c-1.9,8.5,0.9,15.6,4.2,22.6C74.1,60,77,65.7,79,71.6c2.6,7.8,1.7,15.1-5.5,20.6c-1.4,1.1-2.9,2.7-3.3,4.3
				c-2.3,10.8-4.2,21.8,3.2,31.6c1.3,1.8,4.1,3,6.4,3.4c3.1,0.6,6.3,0,9.5,0.2c4.2,0.2,4.7-2.1,3.1-4.9c-1.3-2.2-3.2-4.7-5.4-5.5
				c-5.7-2.1-4.4-6.7-4.6-10.8c-0.2-4.2,1-7.9,5.2-9.9c0.6-0.3,1.2-0.6,1.8-0.8C104,96,112,85.3,117.6,72.3c1.5-3.6,3.5-5.2,7.1-4
				c4,1.4,8.5,2.4,11.8,4.8c10.5,7.5,22.1,10.6,34.7,10.7s25.3,0.5,37.8-0.3c4.5-0.3,6.7,0.2,9.7,3.8c5.4,6.7,11.2,14,18.4,17.9
				c5.8,3.1,10,7.8,15.7,10.7c6.2,3.2,12,7.2,18.1,10.4c2.6,1.5,5.5,2.3,8.5,2.5c6.4,0.1,12.9-0.5,19.3-0.8l1-1.3
				c-2.4-2.7-4.6-5.6-7.3-7.8c-1.7-1.3-3.8-2.1-6-2.3c-21-1.5-43.3-33-44-53.6c-0.1-3.2,2.2-6.7,3.9-9.7c0.3-0.5,4.2,0.1,5.4,1.2
				c3,3,5.3,6.8,8.2,10.1c2.2,2.4,4.6,5.1,7.5,6.3c1.9,0.8,5-0.4,7.2-1.5c0.9-0.5,0.6-3.2,0.8-5c4.3,2.5,8.2,0.7,10.9-3.7
				c0.9-1.5,0.7-3.7,0.8-5.5c0.2-2.9-0.5-6.1,0.4-8.7c2.4-7,1.9-13.8,0.3-20.7c-0.4-1.6-0.8-3.8-2-4.5c-4.6-2.9-3.9-6.6-2.7-10.8
				c0.9-3.1,1.6-6.8-2-8.4s-7.2,0.7-8.5,3.9c-2.5,5.7-6.2,4.8-10.8,3.8c-6.8-1.6-13.7-2.7-20.5-4c-1-0.1-2-0.3-2.8-0.9
				c-5.8-5.2-12-3.5-17.9-0.9s-11.4,5.5-16.9,8.6c-8.4,4.7-18.4,5.7-27.5,2.6c-9-2.8-17.9-6.4-27-8.7c-12.7-3.1-25.3-2.1-37.9,2.1
				c-5.8,1.9-12.5,1.1-18.7,2.1C69.6,14.2,47.2,20.2,27,32c-8,4.7-15.1,11.4-21.4,18.3c-5.8,6.3-7.1,14.5-4,22.9
				C5,82.2,12,86.1,21.4,83.9c3.5-0.8,6.8-2.8,10.3-3.6c5.4-1.3,11-2.8,16.4-2.7c3,0,7.9,2.7,8.6,5.1c0.9,3.2-1.1,7.4-2.7,10.8
				c-0.9,1.9-3.6,2.9-5.1,4.6c-0.8,0.8-1.6,2.5-1.2,3.3c0.3,0.8,2,1.4,3.2,1.9c0.7,0.2,1.3,0.1,1.9-0.2c7.1-2.9,11.9-8,13.5-15.5
				c1.6-7.1-1.5-12.7-7.4-16.7c-5.7-4-13.1-4.9-19.6-2.3c-5,1.8-9.7,4.5-14.8,5.9c-3.1,0.8-7.3,1-9.8-0.5c-3.8-2.3-4.3-7.2-2.9-11.3
				c1.1-3.5,2.9-6.7,5.4-9.4c13.1-12.8,28.6-20.9,47.3-21.9C65.5,31.5,66.4,31.6,67.2,31.7z"/>
			<path d="M172.1,87.8c1.2,4.5,2.5,7.7,3,11.1c0.7,4.7,1.5,9.6,0.9,14.2c-1.3,9.5,5.7,18.3,15.4,18.4c2.1,0,4.3,0,6.4,0l1.1-1.3
				c-1.8-2.7-3.1-6.1-5.5-7.8c-6.9-4.9-7.2-10.9-4.6-18c1.9-5.3,3.6-10.6,5.6-16.6L172.1,87.8L172.1,87.8z"/>
			<path d="M122.2,71.1c-6.2,18.1-19.8,27.6-36.1,34c21.4-1.4,41.4-5.2,53.6-25.4L122.2,71.1z"/>
			<path d="M63.8,112.8l-9.2,16.6l1.1,1.6c3.4,0.2,6.8,0.1,10.1-0.1c2.9-0.3,4.3-2.3,3.1-5.3C67.5,122,66,118.3,63.8,112.8z"/>
			<path d="M255.7,6.1l8.1,1.8c1.1-3.4,1.4-6.7-2.1-7.7C257.7-0.9,257.2,2.8,255.7,6.1z"/>
		</g>
	</g>
</g>
</svg>
