<?xml version="1.0" encoding="utf-8"?>
<!-- Generator: Adobe Illustrator 24.2.3, SVG Export Plug-In . SVG Version: 6.00 Build 0)  -->
<svg version="1.1" id="Layer_1" xmlns="http://www.w3.org/2000/svg" xmlns:xlink="http://www.w3.org/1999/xlink" x="0px" y="0px"
	 viewBox="0 0 158.6 160.2" style="enable-background:new 0 0 158.6 160.2;" xml:space="preserve">
<style type="text/css">
	.st0{fill:#FFFFFF;}
</style>
<g>
	<g>
		<g>
			<path d="M118.8,58.4c-2,3.7-5.4,5.9-9.9,7C102.4,67,96.1,69,89.8,71c-1.9,0.7-3.6,2.3-5.9,3.8l12.9,11.3
				c-0.2,0.2-0.3,0.4-0.5,0.6C89.6,82.9,83,79,76.2,75.4c-11.5-6.2-23.9-7.8-36.2-3.7c-5.5,1.8-10.9,5.8-15,10.1
				c-11.3,11.9-17.6,37.8-6.4,55.3c2.9,4.5,5.2,9.4,8.3,13.6c5.3,7.1,12.4,9.5,21.4,8.9c11-0.7,22.2,0.1,33.3,0.3
				c1.5,0.2,3,0.3,4.5,0.3c1.2-0.1,3-0.6,3.2-1.4c0.3-0.9-0.2-3-1.1-3.5c-3.9-2.1-8-3.9-11.9-5.8c1.5-1.8,4.2-4.3,6.1-7.2
				c5.6-8.7,5.8-21.1,0.7-27.9c-5.5-7.3-19-11.3-29.2-7.5c-6,2.3-11.2,6.5-16,9.3c1.6-10.2,17.8-16.5,34.7-12.1s22.3,17.9,15.3,38.4
				c7.7,6.6,12.1,18.1,25.3,16.6c4.8-0.6,9.9,1.4,14.5-1.9c-1.7-4.3-4.7-6-8.9-6.1c-7.8-0.1-11.5-3.6-12.4-11.5
				c-0.9-7.8,2-14.2,7.8-19c4.9-4,10.2-7.4,15.4-11c6.1-4.2,11.7-8.9,13.7-16.8c1.3,0.4,2.3,0.8,3.4,1c5.5,1.5,9-0.4,10.8-5.9
				c3.5-11-2.8-25.4-13.5-30.3c-2.7-1.2-5.6-2.6-8.5-2.8c-5-0.2-6.9-3.1-6.8-7.3c0.4-18.5-9.3-32.1-20.9-44.9
				c-0.7-0.8-1.1-2-2.3-2.6c-3.3,7.3-3.2,14.1,0.5,22.3L83.1,3.5l-1.5,1.2C83.4,16,87.4,27.1,93.9,36S110.2,51,118.8,58.4z
				 M125.8,54.4c-2.3-13-7.4-24.3-19.1-31.5C118.4,27.1,128.2,42.7,125.8,54.4L125.8,54.4z"/>
			<path d="M14.2,136c-6-10.7-6.9-15.9-5-26.9c-6.3,4-10.6,13.3-8.8,19.1C2.2,134.4,5.6,136.4,14.2,136z"/>
			<path class="st0" d="M125.7,54.4c2.4-11.7-7.3-27.3-19.1-31.5C118.4,30.1,123.4,41.4,125.7,54.4z"/>
		</g>
	</g>
</g>
</svg>
