<?xml version="1.0" encoding="utf-8"?>
<!-- Generator: Adobe Illustrator 24.2.3, SVG Export Plug-In . SVG Version: 6.00 Build 0)  -->
<svg version="1.1" id="Layer_1" xmlns="http://www.w3.org/2000/svg" xmlns:xlink="http://www.w3.org/1999/xlink" x="0px" y="0px"
	 viewBox="0 0 232.3 208.3" style="enable-background:new 0 0 232.3 208.3;" xml:space="preserve">
<g>
	<g>
		<g>
			<path d="M104.5,67.4c0.5-7.9-1-11.2-5.8-13c-6.2-2.3-10.8-0.2-16.1,7.2c-1.4-7.3,2.1-10.2,13.9-11.4c2.3-12.7,8-16.9,21.1-15.8
				c9.1,0.5,17.5,5.2,22.8,12.7c1.9,2.6,3.3,4.2,7.2,2.8c4.5-1.6,9.1-0.4,13,3c-9.3,0.4-18.4,1.4-27.4,1.1c-5.2-0.2-10.4-2.5-15.7-4
				c2.6,4.2,6.5,7.6,11,9.6c5,2.1,10.8,5.4,15.4,4.4c7.1-1.5,14.2,0.5,21.2-1.8c9.4-3,16.1,0.7,20.4,10.1c0.4-1.7,0.7-3,1.2-4.9
				l2.5,3.9l1.1,0l-1.7-10.4l4.9,0.4c1.5-3.8-0.1-6.5-3.7-7.2c-4.2-0.8-8.5-0.6-12.8-0.6c-2.9,0-5.9,0.4-8.8,0.6
				c-0.2-0.6-0.3-1.2-0.5-1.8c2.6-0.8,5.1-2.2,7.7-2.3c6.3-0.4,12.6-0.1,18.9-0.4c1.7-0.1,4.7-0.8,4.9-1.8c0.4-2.4,0.2-4.8-0.8-7
				c-0.2-0.5-3.5,0.1-5.3,0.3c-1.4,0.2-2.7,1.1-4.1,1.1c-5.4,0-10.8-0.3-16.1-0.6c-2.5-0.1-5-0.6-7.5-0.9v-1.6h17
				c0.1-0.6,0.2-1.2,0.3-1.8c-3.4-4-8.5-5.3-13.6-6.3c-3.2-0.6-6.6-0.6-9.9-1c-6.5-0.8-8.6-5.2-5.1-10.8c2.3-3.7,0.8-7.6-3.6-8.2
				c-3.1-0.4-6.3-0.4-9.4,0.1c-7.7,1-14.5-0.2-20.2-5.9L120,6.6c2.7,1.8,5.1,4.4,8,5.1c4.8,1.1,9.8,0.8,14.8,1.3
				c2.3,0.2,5.2,0.5,6.7,1.9c0.8,0.7-0.4,4.2-1.4,6.1c-3,6.2-2.4,8.2,4.3,13c-4.8,1.6-9.7,0.2-15.9-3.6c-4.8-2.9-9.7-5.8-15-7.6
				c-15-5-28.1-0.4-38.6,10.6c-10.3,10.8-10.7,23.9-5.5,37.3C83.5,86.4,94.6,97.2,110,104c13.9,6,28.7,8.1,43.5,10.8
				c10.6,1.9,21.2,4.1,31.6,6.9c4.5,1.2,8.8,4,12.6,6.9c17,13.2,9.4,35.6-4.1,43.8c-20.3,12.4-46.8,10.1-63.9-7
				c-6.2-6.2-11.1-13.6-16.7-20.4c-6-7.3-11.5-15.3-18.4-21.6c-15.9-14.5-39.1-13.2-58.4-2.7c-17.4,9.4-26.9,29.6-23.7,48.4
				c4.8,28,35.8,46.6,60.6,36.4c9.7-4,20.3-14.1,27.5-26.3L90,166c-3.9,5-7.4,10.3-11.6,14.9c-9.4,10.1-21,11.5-31.4,4.3
				c-9.6-6.5-14.9-17.4-12.5-26.9c3.1-12,12.1-17.9,23.5-20.6c10-2.4,18.5,0.4,24.8,8.7c7.5,10,14.3,20.5,22.3,30.1
				c14,17.4,32.2,28.5,55.3,29.6c19.4,0.9,37.4-3.9,52.7-16.2c31-24.8,23.1-73.6-14.2-89c-13.6-5.6-28-6.8-42.3-9
				C144,90,131.4,87.7,119,84.7c-5.3-1.3-10-4.9-15.4-7.6c8.5-6.8,17.6-4.8,19.1,4l4.1-4.7l2.8,4.7c0.5-1.1,1-2.2,1.8-4l3.7,4.3
				c2.4-5,0.1-10.6-6.3-12.1c-6.4-1.5-13.1-1.5-19.7-2.1C107.4,67.1,106,67.2,104.5,67.4z"/>
			<path d="M17.1,192.3c-10.6-14.2-12.7-29.9-7.8-46.1c9.9-32.8,49.9-48.4,77.9-31.2c8.4,5.1,15.8,11.9,23.8,18
				c-5.6-14-15.8-25.7-28.9-33.2c-2.9,3.8-5.4,2-8-0.4c-9.5-8.8-19-11.3-31.1-8.3c0.1,0.3,0,0.7,0.2,0.9c1.6,1.5,3.3,2.9,4.9,4.3
				c-2,1.6-3.7,3.8-5.9,4.5c-4.6,1.4-9.6,1.5-14.1,3.1c-6,2-11.6,5-17.4,7.5c0.2,0.4,0.4,0.9,0.6,1.3l8.7,0.8
				C-10,133.9-2.2,182.9,17.1,192.3z"/>
			<path d="M59.4,26.7l9.6-3.2l1.2,1.1c-12.9,7.8-18.1,18.6-13.6,33.6l4.7-8.1c-1.4,11.2,1.9,20.8,8.4,29.8c0.4-1.2,0.6-2.1,1.1-3.8
				c6,12.7,14.4,22.3,27.7,26.9c-0.5-0.4-0.9-0.9-1.4-1.3s-1.3-1-2-1.5C83.5,91.6,75,79.5,70.7,65.8C63.1,42.2,74.2,23,98.5,17.6
				c8.6-2.1,17.7-1.3,25.8,2.4l0.9-1.4c-5-4.1-9.8-8.5-15-12.3c-1.7-1.2-5-2-6.6-1.2C99,7.4,95.4,5.2,91.4,3.9
				C82.8,1.2,75,2.9,69,9.5c-4.3,4.8-7.5,10.7-11.2,16.1L59.4,26.7z"/>
			<path d="M174.8,171.6l-7.3-4.1l0.6-1.7c7.7,1.6,15.7,0.4,22.6-3.4c10.3-5.4,11.2-17.6,2-25c0.4,10.2-3.8,15.8-12,15.6
				c-1.1,0-2.7,0.1-3.3-0.6c-1.3-1.6-2.5-3.4-3.6-5.2c2-0.9,3.8-2.2,5.9-2.7c1.2-0.2,2.7,0.9,4,1.5c-0.6-6.6-2.8-8-19.3-12.1
				c2.9-4.6,7.5-4,11.9-4.4c-6.9-8.6-21.7-8.7-28.1-0.3c-2.4,3.1-3.4,5.7,1.2,8.2c3.2,1.8,5.9,4.9,8.3,7.8c3.6,4.3,6.7,9.1,9.2,14.1
				l-25.1-13.7c0.3,14.5,6.2,24.4,14.9,24l-1.3-5.9C160.8,169.4,165.8,175.6,174.8,171.6z"/>
			<path d="M117,141.9c1.9,2.6,3.7,5.3,5.8,8.2c10.2-7.8,20.8-9.6,32.3-2.1C147.7,134.9,129.9,132.1,117,141.9z"/>
			<path d="M145.5,1c2.1,2.7,4.1,5.6,6.5,8.1c1.3,1.4,3.2,2.3,4.9,3.4c6.1,4,6.4,4.6,4.4,11.8c-0.3,1-0.5,1.9-0.8,3.2l15.4,2.1
				c-3.1-2.1-5.4-3.7-7.6-5.2c0.8-10.8-0.4-12.7-11.3-16.2c-4.4-1.4-8.6-3-9.9-8.2L145.5,1z"/>
		</g>
	</g>
</g>
</svg>
