<?xml version="1.0" encoding="utf-8"?>
<!-- Generator: Adobe Illustrator 24.2.3, SVG Export Plug-In . SVG Version: 6.00 Build 0)  -->
<svg version="1.1" id="Layer_1" xmlns="http://www.w3.org/2000/svg" xmlns:xlink="http://www.w3.org/1999/xlink" x="0px" y="0px"
	 viewBox="0 0 239.4 191.1" style="enable-background:new 0 0 239.4 191.1;" xml:space="preserve">
<g>
	<g>
		<g>
			<path d="M24.2,92.8l7.4-3.5c-3.9,10-4.4,19.1,2.2,28.1c-14,9.8-14.9,24.3-14.6,39.3c0.1,8.3-0.5,16.6-0.7,25
				c-0.2,6.2,1.4,8,7.6,8.5c2.8,0.2,5.6,0,9.8,0c-2.2-3.9-3.9-6.7-5.4-9.7c-1.7-3.5-4.2-7-4.4-10.6c-0.7-11.8,1.7-22.9,11.4-31.1
				c2.2-1.9,4.2-4.1,6.8-6.6v6.1c0.8-0.1,1.4,0,1.7-0.2c15.4-10.8,33.4-18.4,42.8-36.3c2-3.7,3.8-7.5,6.1-11.1
				c0.7,19.9-13.8,29.9-27.1,40.7c0.1,0.4,0.2,0.9,0.3,1.4l20.1-1.1c0.1,1,0.3,3.3,0.7,6.9l9.3-7.7c0.5,2.6,1,5.6,1.7,9.8l9-8.1
				c0.3,3.1,0.6,5.8,0.8,8.6c10.9-2.3,13.7-6.1,25.3-32.6c-1.3,8.1-2.5,16.2-4.1,24.3c-0.9,4.1-2.1,8.1-3.7,11.9
				c-6.3,15.4-2.7,30.8-0.7,46.4h15c-0.8-1.6-1.8-3.1-2.8-4.6c-12.3-14.6-8.2-34.7,8.8-43.1c5.9-2.9,9.4-7.9,11.9-13.6
				c3.2-7.5,6-15.1,9.2-23.2l10,3.3c-1-4.9-1.9-9.6-2.9-14.4l1.1-0.5l5.7,4.4c-1.4-12.2-4.2-23.8,6.4-33.3
				c-0.8,3.8-1.6,6.9-2.4,10.7l4-1.3c0.3,4.5,0.6,8.7,0.9,13.3l6.5-5.6c0.5,4.9,0.9,8.6,1.2,12.3L200,96c0.3-0.7,0.7-1.5,0.9-1.9
				c2,1.5,3.5,3.3,5.4,4.1c4.9,2,6.4,0.7,8.6-4.2c2.4-5.4,4.8-11,8.4-15.6c8-10.4,9.6-20.8,2.8-32.4c-0.9-1.5-0.7-3.8-0.4-5.6
				c2.2-12.8,2.3-25.7-1.3-38.4c-0.2-0.7-0.6-1.4-1.2-2c1.5,13.2,1.3,26.1-4.9,39.2c-3.9-7.9-8-14.4-17.4-15.6
				c1.7,4.1,3.3,7.7,4.9,11.4c-8.9,0.6-17.5,0.6-26,1.8c-12.9,1.7-25.2,6.5-35.8,14.2c-14.6,10.7-29.6,11.7-45.5,4
				c-8.9-4.3-17.8-8.2-28.1-7.2C56,49.1,43.8,55.3,35.2,66.4c-5.7,7.4-8.4,16.9-12.5,25.5L24.2,92.8z"/>
			<path d="M169.2,109.9l-7.3,21.5l20.4,3.9c-1.1,5.1-1.7,10.2-6,14c-2.7,2.4-5.2,5.2-7.9,7.6c-7.7,6.6-7.1,12.1,2.4,17.8
				c1.6-10.6,8.3-17.5,16.7-23.1c0.9-0.6,1.4-2.2,1.6-3.4c1-6.7,1.8-13.5,2.9-20.2c0.7-4.5-0.4-7.6-5-9.4
				C181.2,116.1,175.7,113,169.2,109.9z"/>
			<path d="M87.5,189.6l17.2,1c-1.3-2.2-1.9-3.5-2.7-4.6c-6-9.1-12.6-18-18-27.5c-3.1-5.3-4.4-11.6-6.8-17.4c-0.7-1.6-2.5-3.7-4-3.9
				c-4.6-0.8-9.4-1.4-13.9-0.8c-2.8,0.4-1.4,3,0.1,4.6c4.1,4.6,8.4,9,12.4,13.7c3,3.5,5.9,7.2,8.5,11
				C85.2,172.7,87.7,181.1,87.5,189.6z"/>
			<path d="M46.6,52.3c-8.2-1.9-15.2,0.4-21.6,4.6C16.7,62.4,8.7,68.2,0,74.3l6.6,1.4l-3.4,4.1l9.4-0.6c0.2,4.8,2.5,6.2,6.3,3.2
				c2.6-2,4.8-4.6,6.2-7.6C29.4,64.6,34.2,55.1,46.6,52.3z"/>
			<path d="M233,52.2c4.9-11.8,7-24.5,6.3-37.2c-2.7,8-6.1,17.3-8.7,26.9c-0.8,3.1,0.6,6.8,1,10.3H233z"/>
		</g>
	</g>
</g>
</svg>
