<?xml version="1.0" encoding="utf-8"?>
<!-- Generator: Adobe Illustrator 24.2.3, SVG Export Plug-In . SVG Version: 6.00 Build 0)  -->
<svg version="1.1" id="Layer_1" xmlns="http://www.w3.org/2000/svg" xmlns:xlink="http://www.w3.org/1999/xlink" x="0px" y="0px"
	 viewBox="0 0 242.1 195" style="enable-background:new 0 0 242.1 195;" xml:space="preserve">
<g>
	<g>
		<g>
			<path d="M75.1,190.9c-1.4-4.1-1.4-4.1-11.1-8.7c1.5-2.2,2.9-4.3,4.3-6.5c4-6.5,8.6-12.7,11.8-19.6c4.1-8.4,4.3-18.2,0.4-26.6
				c-3-7-6.4-13.9-9.7-20.8c-0.9-1.5-1.3-3.2-1.1-4.9c3.5,5,7,10.1,10.4,15c11-4.8,21.2-1.3,31.3,2.6c9,3.4,18,6.8,26.9,10.3
				c1.4,0.5,2.6,1.4,3.6,2.4c2.4,2.5,4.8,5.1,6.9,7.9c15,18.8,34.5,22.1,56.6,16.3c3.2-1,6.4-1.7,9.7-2.3c6.4-0.8,9.6,2.2,9.9,8.7
				c0.3,2.7,0.7,5.4,1.4,8h2.6c0.6-3.5,1.2-7,1.9-10.7l6,2.9c-0.8-2.8-1.3-4.7-1.8-6.4l6.9-3.7c-0.2-0.4-0.3-0.8-0.5-1.1l-10.5-2.5
				c0.5-2.1,0.9-3.7,1.2-5.1c-11.3,0.8-22.3,1.6-33.3,2.2c-16.3,0.9-28.4-7.5-33.3-23c-0.3-1.2-0.3-2.5,0.2-3.6
				c1.8-3.7,3.9-7.3,5.7-10.6c2.8-0.5,5.7-0.9,8.5-1.2c2.1,0.1,4.2,0.4,6.2,1c1.4,0.3,3.6,1.4,4.1,0.8c3.3-3.5,4.6-0.1,7.5,1.2
				c-0.6-2.2-1.2-4.4-1.8-6.7c0.5,0.1,0.9,0.2,1.4,0.2c1.9,0,3.9,0,5.8-0.1c-0.2-2.8,0.8-7.1-0.7-8.1c-5.4-3.9-7.7-9.4-10.8-14.9
				c-3.6-6.4-12.7-9-19.8-7.1c-1.6,0.4-3.3,0.2-4.9-0.4c-5.7-2.7-10.9,0.4-10.5,6.9c0.2,4.3-1.4,6.7-5.4,8.2
				c-10.1,3.8-20.1,3.4-29.4-1.7c-9.2-5-17.9-10.8-26.7-16.5c-13.1-8.6-27-14.3-43.1-12.9c-1.2,0.1-2.3,0.3-3.5,0.5
				s-2.2,0.4-4.6,0.9c1.5-4.2,2.2-7.8,3.9-10.8c11.6-20.3,26.7-36.2,51.1-39.9c6.3-0.9,12.6-1,18.9-0.2c16.3,2.2,29,19.4,27,35.8
				c-0.9,8.9-8.5,15.5-17.4,15.3c-7.1-0.1-11.8-5.6-10.6-12.6c0.2-1.3,1-2.6,0.8-3.9c-0.3-1.9-0.8-3.8-1.4-5.6
				c-1.4,1.3-3.5,2.4-4.1,4.1c-2.7,7.5-2.6,14.7,3.2,21s13.3,5.7,20.5,3.8c13.5-3.4,21.8-17.9,19.2-32.5
				c-3.3-18.8-16.7-31.3-37-34.6C72.6-6.3,32.7,26.9,31.4,73.1c-5.4,22.2,6.2,37.6,20.8,51.7c1.3,1.3,2.6,2.6,3.8,4
				c5.5,5.8,8.2,12.7,9,20.6c1.2,11-1.6,20.4-9.9,28c-0.7,0.7-1.4,1.4-2,2.2c-4.1,4.9-2.7,9.6,3.5,10.5
				C62.6,190.9,68.7,190.6,75.1,190.9z"/>
			<path d="M50.6,129.6c-6.1,10.2-14.3,15.6-23.1,20.5c-8,4.4-15.7,9.3-23.2,14.6c-4.9,3.5-5.2,6.6-2.9,11.2
				c0.6-0.2,1.2-0.5,1.7-0.8c4-3,5.6-2.2,7,2.7c1.2,3.6,2.8,7,4.7,10.2c0.4,0.8,2.2,0.8,3.4,1.2c0-1.2,0.4-2.5,0-3.5
				c-3.5-9.4-0.4-19.1,8.5-24c7.1-3.9,14.7-7,22-10.4c3.4-1.6,6.9-3.1,11.1-5L50.6,129.6z"/>
			<path d="M132,133.9c-5.5-1.8-10-3.4-14.6-4.6c-1.5-0.2-2.9,0.3-4,1.3c-2.8,3.5-5.8,7-7.8,11c-1.9,3.8-3.1,7.9-3.8,12.1
				c-0.8,4.9-0.6,10-1,14.9c-0.7,9.1-1.2,18.4-13,21.4l0.9,1.7c3.3,0.4,6.6,1.6,9.8,1.1c2.8-0.5,5.7-0.2,8.4,0.9
				c3.4,1.4,7.3,1.9,11-1c-0.7-0.6-1.3-1.3-2.1-1.8c-10-6.4-12.4-12.9-8.3-24.1c4.3-11.9,12.3-21.2,21-30
				C129.5,136,130.6,135.2,132,133.9z"/>
		</g>
	</g>
</g>
</svg>
