<svg xmlns="http://www.w3.org/2000/svg" viewBox="0 0 120.82 120.82"><defs><style>.cls-1{fill:#262262;}</style></defs><title>07_horse</title><g id="Layer_2" data-name="Layer 2"><g id="Layer_1-2" data-name="Layer 1"><path class="cls-1" d="M102.49,92c-2.2-1.22-3.94-2.1-5.55-3.17-.28-.18-.21-1.27,0-1.79a8.79,8.79,0,0,0-.45-8.49,5.52,5.52,0,0,0-4.57-3.16c-1.69-.15-3.35-.74-5-.85-4.47-.29-7.68-2.13-9.18-6.81L77,70.18C67.77,72.93,60.4,67.73,52.49,64,49,70.7,43.21,74.28,37,77.51a8.93,8.93,0,0,0-3.57,4.07c-1.53,3.32-2.5,6.89-3.92,10.26a65.66,65.66,0,0,1-3.29,6.07c-3.19-3.17-3.29-6.34-.69-9.18A7.59,7.59,0,0,0,27,86.11c.63-1.77,1.11-3.58,1.62-5.38,1.16-4.06,2.71-7.86,5.93-10.82a6.33,6.33,0,0,0,2-5.94,30.71,30.71,0,0,1,.42-9.89C38.72,45.57,45.8,42,54,44.77A77.07,77.07,0,0,0,66,48c4.1.68,4.91-.09,6.14-4a46.78,46.78,0,0,1,9.53-16.49c.5-.58,1-1.18,1.47-1.77,0-.05,0-.17,0-.25-5.37-1-14.59,6.6-15.9,13.27l2.9-1.22C68,42.09,63,43.4,57.91,40.51c5.52,1.82,7.42-1.21,8.77-5.6.51-1.65,2.22-2.93,3.51-4.55-.31-.4-.8-1-1-1.24L84,23.38c-.13-1.63-.28-3.54-.43-5.4,4,3.05,8,5.58,11.36,8.75s6.33,7.13,9.49,10.71c1,1.17,1.44,2.27.26,3.59s-3,2.57-4.18,1.29c-3-3.22-7.52-2.43-10.86-4.9a12.58,12.58,0,0,0-2,8.34c.42,4.41,1,8.81,1.22,13.24a28.79,28.79,0,0,1-.77,7.56c-.38,1.7-.12,2.55,1.49,3.08,1.37.46,2.7,1,4.07,1.52,4.8,1.65,7.23,5,7.67,10.15.23,2.71.8,5.39,1.18,8.09A25.78,25.78,0,0,1,102.49,92Zm-11-63.83c-.73,1-1.54,1.57-1.45,2,.13.64.9,1.14,1.39,1.7.52-.47,1.45-.93,1.47-1.41S92.21,29.25,91.52,28.2Z"/><path class="cls-1" d="M53.44,66.13l4,2.6c-.92,2.2-1.72,4.33-2.7,6.38a10.93,10.93,0,0,0,.07,10.06c1.77,3.58,3.46,7.2,5.15,10.83.42.9.7,1.87,1.19,3.19A50.91,50.91,0,0,1,56,98.88c-.57-.09-1.44-.86-1.46-1.35-.21-4.59-2.64-8.32-5.09-11.8-3.48-5-2.91-10.53,1.24-15.84C51.56,68.76,52.38,67.58,53.44,66.13Z"/><path class="cls-1" d="M80.58,75.11c4.64-.3,5.41,2.62,6,6.31,1,6.25,2.54,12.4,3.88,18.71H86C84.15,91.56,82.37,83.34,80.58,75.11Z"/><path class="cls-1" d="M37.77,42c-7-.06-11.94,3.34-15.91,8.81-2.88,4-6.2,7.62-9.6,11.75l5.13-.25.35.67-6,3.46-.48-.76L13,64.46,7.57,62.78c6-3.25,9.35-8.38,12.94-13.26C24.86,43.61,30.54,41.07,37.77,42Z"/><path class="cls-1" d="M26.55,54.87c.48,2.11.92,4.06,1.48,6.5l3.15-6.14.4.18-4,11.68-.41,0c-.41-2.73-.82-5.46-1.22-8.14l-6.68,8.09-.4-.34C21.35,62.87,23.87,59,26.55,54.87Z"/><path class="cls-1" d="M60.41,120.82a60.41,60.41,0,1,1,60.41-60.41A60.48,60.48,0,0,1,60.41,120.82Zm0-116.17a55.76,55.76,0,1,0,55.76,55.76A55.82,55.82,0,0,0,60.41,4.65Z"/></g></g></svg>