<svg xmlns="http://www.w3.org/2000/svg" viewBox="0 0 120.82 120.82"><defs><style>.cls-1{fill:#ec008c;}</style></defs><title>08_goat</title><g id="Layer_2" data-name="Layer 2"><g id="Layer_1-2" data-name="Layer 1"><path class="cls-1" d="M72.54,45.84c-2.73.52-5.49,1.91-8-.41l4.55-1.91-.24-.69a35.13,35.13,0,0,1-3.67.49c-2.5.09-3.11-.86-2.11-3.2.36-.84.81-1.65,1.44-2.91-7.62,1.72-10.27-3.41-12.66-8.9,1,.82,2,1.64,3,2.45,4.2,3.37,6.6,2.89,9.28-1.86.5-.89.95-1.82,1.52-2.9q-.24,6.36-6.87,9c2.46,1.4,4.87.93,7.09.23a8.47,8.47,0,0,0,5.5-9.45C70.87,23.34,70,21,69.28,18.6c3.34,2.38,3.84,6.11,4.59,9.69,5.91.17,4.95-6.13,1.35-11.46,2.56.32,3.36,2,3.76,4.05.37,1.85.59,3.73.87,5.51,1.75.89,2.73.22,3.78-1.14,2.3-3,4.58-6.2,9.21-5.55-4.38,1.07-6.88,4.23-8.79,7.93-.2.39.72,1.37,1.24,2.28,1.5-1.82,2.75-3.46,4.12-5C92,22,94,21.75,97.43,23.66c7.67,4.27,10.46,12.7,6.92,20.88-1,2.23-2.43,3.79-5,3.91s-4.3-1.37-5.55-3.89c.43.11.69.09.77.21,3.23,4.27,7.6,2.19,9-2.19,2-6.49,1.07-14.27-7.41-18.27-1.87-.88-3.51-.86-4.91.77a46,46,0,0,0-4.39,5.42c-.52.82-.09,2.24-.09,3.77,3.35-2,5.39-6.21,9.59-3.21a8.26,8.26,0,0,1,3,9,33.7,33.7,0,0,0-1.57-5.55c-1.78-3.8-4.66-4.19-7.53-1.19a8.79,8.79,0,0,0-2.59,6.44c0,10.94-1.49,21.54-6.21,31.72a43.25,43.25,0,0,0-3,25.87c.51,3,.47,3-3.47,3.32-.29-6.86-.59-13.69-.88-20.53l-.66-.23c-.29.69-.85,1.38-.83,2.06.2,6.21.34,12.42.83,18.61.18,2.3-.46,3.28-2.61,3.41-1.94.12-3.29,0-3.45-2.76-.39-6.61-1.28-13.19-2-20-11.52-.08-22.27-2.11-32-7.34-2.16,2.48-4.15,4.62-5.93,6.93A3.66,3.66,0,0,0,27,83.46c1,4.29,2.07,8.55,3.17,12.81.38,1.47,0,2.51-1.61,2.43-1.47-.07-3.36.72-3.95-1.74-1.38-5.67-2.93-11.3-4.27-17a3.11,3.11,0,0,1,.7-2.64c3.85-3,3.91-7.21,3.25-11.35-.5-3.17-1.8-6.21-2.71-9.18a30.57,30.57,0,0,1-4.46,1.29c-.67.1-1.46-.64-2.19-1a14.62,14.62,0,0,1,1.26-1.72A49.86,49.86,0,0,1,21,50.73,20.8,20.8,0,0,1,27,47c10-3.23,19.94-2,29.82.8,3.07.86,6.12,1.85,9.25,2.41S71.27,49.27,72.54,45.84Zm6.59-8.15c.85-1.21,1.76-2,1.7-2.6a2.39,2.39,0,0,0-1.74-1.63,2.37,2.37,0,0,0-1.67,1.67C77.37,35.78,78.28,36.5,79.13,37.69Z"/><path class="cls-1" d="M32.57,97c-1.28-4.69-2.54-9.23-3.73-13.79a1.84,1.84,0,0,1,.39-1.36c1.43-1.93,2.92-3.82,4.57-6l4.33,2.44c-1.32,1.66-2.46,3.26-3.79,4.69a3.74,3.74,0,0,0-.72,4.46c.71,1.65,1.27,3.38,1.87,5.08C36.71,96.09,36.58,96.29,32.57,97Z"/><path class="cls-1" d="M60.41,120.82a60.41,60.41,0,1,1,60.41-60.41A60.48,60.48,0,0,1,60.41,120.82Zm0-116.17a55.76,55.76,0,1,0,55.76,55.76A55.82,55.82,0,0,0,60.41,4.65Z"/></g></g></svg>