<?xml version="1.0" encoding="utf-8"?>
<!-- Generator: Adobe Illustrator 24.0.1, SVG Export Plug-In . SVG Version: 6.00 Build 0)  -->
<svg version="1.1" id="Layer_1" xmlns="http://www.w3.org/2000/svg" xmlns:xlink="http://www.w3.org/1999/xlink" x="0px" y="0px"
	 viewBox="0 0 236 236" style="enable-background:new 0 0 236 236;" xml:space="preserve">
<title>pattern</title>
<g id="Layer_2_1_">
	<g id="Layer_1-2">
		<path d="M51,236h-4v-8.2h-9.7l-0.4-8.9l-5.9,0.4V236h-4v-16.9h-5.4l-0.7,8.9H11v7.9H8l-0.4-8H0v-4l8,0.4v-9.9l9.6-0.6v-6H0v-3h18
			l-0.3-6.2H7.7V189H0v-4l7.5,0.4V179H0v-4h7.5v-6H0v-4h7.6l0.5-10h9.8l-0.3-6H0v-3h17.6v-6L8,139.4L7.6,130H0v-4h7.6v-6H0v-4h7.5
			v-6H0v-4h7.6l0.6-10h9.8l-0.3-6H0v-3h18l-0.4-6.3H8L7.6,71H0v-4l7.5,0.4V61H0v-4h7.5v-6H0v-4h7.6l0.6-10h9.8l-0.3-6H0v-3h17.6
			v-6.6L8,20.8L7.6,11H0V8l7.7-0.6L8,0h3l0.4,7.5L21.5,8v9.9l5.5-0.3V0h4v17.9l5.8-0.3L37.4,8l9.9-0.6C47.2,4.6,47.1,2.3,47,0h4v7.5
			h6V0h4v7.5h6.4C67.2,4.8,67.1,2.4,67,0h4v7.5L81,8v9.6h6V0h3v17.5h5.9c0.2-3.3,0.3-6.4,0.5-9.6l9.6-0.6V0h4v7.5h6V0h4v7.5h6V0h4
			v7.5l9.5,0.4c0.2,3.4,0.4,6.5,0.6,9.7h5.9V0h3v17.6h5.8c0.2-3.3,0.4-6.4,0.5-9.6l9.7-0.6V0h4c-0.1,2.4-0.3,4.8-0.4,7.5h6.4V0h4
			v7.5h6V0h4v7.4l9.9,0.6v9.6h6.1V0h3v17.6h5.9c0.2-3.3,0.4-6.4,0.5-9.6l9.6-0.6V0h4v7.5l8,0.5v3h-8c-0.3,3.7-0.5,6.8-0.7,10.2h-9
			V28H236v3h-18c0.1,2.6,0.2,4.2,0.3,6l9.2,0.5c0.1,3.6,0.3,6.7,0.4,10l8-0.5v4h-8v6h8v4h-8v6.6l8-0.6v4h-8.1
			c-0.2,3.4-0.3,6.5-0.5,9.6l-9.5,0.6l0.4,5.8H236v3h-18.1l0.3,5.9l9.2,0.5c0.2,3.5,0.3,6.6,0.5,9.6h8.1v4h-8v6h8v4h-8v6h8v4h-8.1
			c-0.2,3.4-0.3,6.4-0.5,9.5l-9.1,0.5v6H236v3h-18l0.3,5.9l9.2,0.5c0.2,3.6,0.4,6.7,0.5,10l8-0.4v4h-8.3c0.1,2.4,0.2,4.1,0.3,6h8.1
			v4h-8v6.5l8-0.5v4h-8.1c-0.2,3.5-0.3,6.6-0.5,9.7l-9.5,0.5c0.1,2.1,0.2,3.7,0.4,5.8H236v3h-17.7v5.8c10.8-0.2,9.5,2.2,9.9,10.8
			l7.9-0.6v4h-8v8h-4v-8.3h-9.7c-0.2-3.2-0.3-5.8-0.4-8.4H208V236h-3v-16.8h-6c-0.1,3-0.3,5.7-0.4,8.5l-10,0.5l0.4,7.8h-4v-7.7h-6
			v7.7h-4v-7.7h-6.5c0.2,2.8,0.3,5.2,0.5,7.7h-4v-8.2h-9.8c-0.2-3.1-0.3-5.7-0.4-8.4H149V236h-3v-16.8h-6c-0.1,3-0.3,5.8-0.5,8.9
			H130v7.9h-4v-7.7h-6v7.7h-4v-7.6h-6.4c0.1,2.8,0.2,5.2,0.4,7.6h-4v-8.3h-9.7l-0.4-8.4H90V236h-3v-16.8h-5.9l-0.4,8.6l-9.7,0.4v7.8
			h-4l0.4-7.7H61v7.7h-4v-7.7h-6V236z M168.8,11.3l-0.6,9.5l-8.9,0.5v6.1h15.6V11.3H168.8z M115.9,27.5v-16h-6l-0.5,9.4l-9.3,0.5
			v6.1L115.9,27.5z M120,27.4h15.7v-6.5H126v-9.5h-6L120,27.4z M61.1,27.5h15.7V21h-9.1c-0.2-3.6-0.4-6.6-0.6-9.6h-6L61.1,27.5z
			 M50.4,20.9l-9.5,0.6v6h16v-16h-6L50.4,20.9z M179,27.4h15.7v-6.5h-9.6v-9.4H179V27.4z M140,126.1v10.7l5.6-0.5v-16.6h-15.9v6.3
			H140z M95.8,136.6c0.2-3.4,0.4-6.7,0.6-10.4h9.7l0.3-6.3H90.3v16.8H95.8z M80.7,126.1c0.2,3.9,0.3,7.1,0.5,10.7l5.1-0.4V120H71
			v6.2L80.7,126.1z M90.3,100v16.3h16.2c-0.2-2.4-0.4-4.3-0.7-6.8h-9.5l-0.4-9.2L90.3,100z M149.4,120v16.3h5.8v-9.9l9.8-0.5
			c0.1-2.1,0.2-3.8,0.3-5.9H149.4z M90.2,196.1l6.1-0.3v-10.1l9.5-0.6v-5.9H90.2V196.1z M204.4,179H189v6.1l10,0.5v10.5l5.4-0.3
			L204.4,179z M155,185.7l9.7-0.6v-5.9h-15.2v16.9l5.4-0.2L155,185.7z M145.1,195.9v-16.8h-15v6.1l10,0.6v10.1H145.1z M37,185.7
			l10-0.6v-5.9H31.2v16.7H37V185.7z M223.9,179.1h-15.5v16.6h6v-10.1l9.6-0.5L223.9,179.1z M81.2,100.2c-0.2,3-0.3,5.9-0.5,9.1
			l-9.3,0.6c-3.8,10.8,8.9,4.9,15.3,6.3v-16L81.2,100.2z M139.6,109.2l-9.5,0.7v6.4c20.4,1.2,14.9-1.7,15.6-16.2H140
			C139.9,103.3,139.8,106.1,139.6,109.2L139.6,109.2z M149.4,100.1V116h16.1l-0.6-6.4h-9.5c-0.2-3.5-0.3-6.4-0.5-9.4L149.4,100.1z
			 M214.1,126.4l9.8-0.5v-5.7h-15.5v16.2h5.7V126.4z M80.9,195.8h5.6v-16.6H71.1v6l9.7,0.6V195.8z M47.1,120.2H31.2v16.3h5.7
			l0.6-10.1l9.7-0.4L47.1,120.2z M27,179.1H11.4v5.9l9.6,0.6l0.5,10.1H27V179.1z M204.3,136.5v-16.4h-15.1v6.3h9.4
			c0.2,3.6,0.4,6.9,0.6,10.1H204.3z M26.9,136.8v-16.6H11.5v6H21l0.5,10.3L26.9,136.8z M168.8,189.1l-0.5,9.9h-9.1v5.5H175v-15.4
			H168.8z M175,224.1v-15.4h-15.8v5.4l9.1,0.5l0.4,9.6L175,224.1z M135.9,208.9h-15.8v15.2h6.2v-9.6l9.5-0.5L135.9,208.9z M57,208.7
			H40.8v5.3l9.6,0.6c0.2,3.4,0.4,6.5,0.5,9.6h6L57,208.7z M50.5,80.7l-9.9,0.5l0.3,5.3H57V71.2h-6.1L50.5,80.7z M57,31.4H41v5.9h9.4
			l0.6,9.6h6V31.4z M51,165h5.9v-15.5h-16v5.9h9.5L51,165z M159.2,155l9.2,0.4c0.2,3.6,0.3,6.6,0.5,9.7h6.1v-15.5h-15.8L159.2,155z
			 M67.7,106V95.9h9.5c-0.2-2.1-0.3-3.7-0.4-5.4H61.1V106H67.7z M159.2,96.2h9c0.2,3.4,0.4,6.5,0.6,9.6h6.2V90.4h-15.8V96.2z
			 M139.7,50.6l-9.6,0.4v5.9h15.5c-1.1-5.4,3.6-19.6-6-15.6L139.7,50.6z M109.4,96.2l0.6,9.6h5.9V90.6H99.8l0.3,5.6H109.4z
			 M174.9,86.5V71.2h-6.1c-0.2,3.4-0.4,6.4-0.6,9.8h-9v5.5H174.9z M67.7,198.9c-0.2-3.4-0.4-6.5-0.5-9.6H61v15.4h15.7v-5.8H67.7z
			 M66.9,224.2c0.1-10.3,1.3-10.3,9.9-10.3v-5.2H61.1v15.6H66.9z M195,149.5h-15.9v15.4h6.4v-9.4l9.6-0.6V149.5z M223.9,57.1v-6.4
			h-9.6l-0.4-9.8h-5.5V57L223.9,57.1z M204.2,57.1V40.9h-5.6v9.6l-9.6,0.5v6.1L204.2,57.1z M109.4,155.2c0.2,3.6,0.4,6.6,0.6,9.8
			h5.8v-15.4h-15.7v5.6L109.4,155.2z M76.8,155.2v-5.7H61.1v15.3h6c0.2-3.4,0.3-6.3,0.5-9.6H76.8z M149.6,40.9V57h15.2v-6.3h-9.5
			c-0.2-3.5-0.4-6.5-0.5-9.8H149.6z M109.9,224h6v-15.4h-15.8v5.5l9.3,0.4L109.9,224z M116,71.2h-6c-0.2,3.3-0.3,6.4-0.5,9.9h-9.8
			l0.4,5.3H116V71.2z M37.2,76.9v-9.3l10.1-0.5L47,61H31.3v15.9H37.2z M71.1,57h15.3V41h-5.6v9.5l-9.7,0.6V57z M185.4,139.5
			c-0.2-3.4-0.3-6.3-0.4-9.4h-5.8v15.4h15.6v-5.6L185.4,139.5z M31.2,40.8V57h15.7v-6.5H37v-9.7H31.2z M96,67.6l9.9-0.5v-6H90.3
			v15.7H96V67.6z M159.2,145.6H175v-15.6h-6.1c-0.2,3.3-0.4,6.4-0.6,9.5l-9,0.4L159.2,145.6z M135.8,145.7v-5.5
			c-10.7,0.3-9.7-1.9-10.1-10.4l-5.5,0.2v15.6H135.8z M145.4,76.9V61.1h-15.3v6l9.5,0.5c0.2,3.4,0.4,6.4,0.5,9.3L145.4,76.9z
			 M31.1,116h15.9v-6l-9.6-0.5l-0.5-9.5l-5.8,0.3V116z M109.9,130c-0.2,3.4-0.3,6.3-0.5,9.5l-9.3,0.5v5.7h15.8V130H109.9z
			 M67.7,139.5c-0.2-3.4-0.4-6.4-0.6-9.4h-6v15.5h15.7V140L67.7,139.5z M204.2,76.9V61.1h-15.1v6l10,0.6v9.4L204.2,76.9z M214,67.7
			l9.9-0.7v-6h-15.4v16.1l5.6-0.2L214,67.7z M40.8,145.6H57v-15.5h-6l-0.5,9.3l-9.6,0.6L40.8,145.6z M159.3,31.4v5.8h8.9
			c0.2,3.4,0.5,6.5,0.7,9.8h6.1V31.4H159.3z M185,224.1l0.5-9.6l9.4-0.5v-5.3H179v15.4H185z M61,31.4V47h6.2
			c0.2-3.3,0.3-6.4,0.5-9.5l9.4-0.6c-0.1-2-0.2-3.6-0.2-5.4L61,31.4z M115.9,47V31.4h-15.8v5.8h9.2c0.2,3.5,0.4,6.6,0.7,9.8
			L115.9,47z M61.1,71v15.5h15.6v-5.8h-8.9L67,71.1L61.1,71z M164.8,67v-5.8h-15.2v15.9l5.6-0.3v-9.2L164.8,67z M81.1,77l5.2-0.2
			V61.1h-15v6l9.5,0.5L81.1,77z M27,61.2H11.1l0.3,5.8l9.7,0.7l0.4,9.4l5.5-0.2V61.2z M120.1,71v15.5h15.7v-5.8h-9.3
			c-0.2-3.5-0.4-6.6-0.6-9.7L120.1,71z M126.4,155.4l9.8-0.6c-0.2-2.1-0.3-3.7-0.4-5.2h-15.7v15.3h6.3L126.4,155.4z M36.9,159.3
			l-5.6,0.3v15.4h15.6v-6.4h-9.4L36.9,159.3z M179.1,86.5h15.7v-5.8h-9.3c-0.2-3.5-0.4-6.6-0.5-9.5h-5.9L179.1,86.5z M90.3,159.6
			v15.3h15.6V169l-9.6-0.4l-0.5-8.9L90.3,159.6z M130,174.9h15.7c-1.1-5.2,3.4-18.4-5.6-15.1c-0.2,2.9-0.4,5.8-0.7,8.7L130,169
			V174.9z M208.3,100.2v15.7h15.4v-6l-9.4-0.5c-0.2-3.3-0.4-6.2-0.5-9.2L208.3,100.2z M199.2,100c-0.2,3.2-0.4,6.2-0.7,9.4L189,110
			v5.9h15.2v-15.7L199.2,100z M106.2,57l-0.3-6.5H96V41h-5.6v16H106.2z M189,174.9h15.6c-1-5.1,3.4-18.5-5.5-15.1
			c-0.2,2.9-0.4,5.8-0.5,8.7L189,169V174.9z M21,50.6l-9.9,0.5l0.3,5.9h15.5V41h-5.4L21,50.6z M223.9,168.6h-9.6
			c-0.2-3.2-0.4-5.9-0.5-8.9h-5.5V175h15.6V168.6z M185.3,47v-9.9h9.5v-5.7h-15.7V47H185.3z M135.9,31.4h-15.8v15.5h6.2v-9.5
			l9.5-0.6V31.4z M26.8,116V99.9l-5.4,0.4l-0.5,9.1l-9.9,0.5l0.3,6H26.8z M50.5,198.7l-9.5,0.4v5.4h15.9v-15.7l-5.9,0.3L50.5,198.7z
			 M57,90.5H40.9v5.4l9.5,0.5c0.2,3.4,0.4,6.5,0.5,9.5h6L57,90.5z M115.9,204.7v-15.4h-6l-0.4,9.4l-9.3,0.4v5.6L115.9,204.7z
			 M179.1,90.4v15.3h6.4v-9.4l9.8-0.6c-0.1-2.1-0.2-3.7-0.4-5.4L179.1,90.4z M126.3,189.3h-6.2v15.2h16.1c-0.1-2-0.2-3.6-0.3-5.8
			h-9.6V189.3z M185.5,198.8c-0.2-3.5-0.4-6.6-0.5-9.6h-5.9v15.5h15.7v-5.9L185.5,198.8z M120.2,90.3v15.6h6.2v-9.6l9.3-0.4v-5.6
			H120.2z M21.1,168.6l-9.6,0.5v5.9h15.3v-15.7l-5.3,0.5L21.1,168.6z M86.3,175.1v-15.4h-5.2l-0.5,8.8l-9.4,0.6v6L86.3,175.1z
			 M149.5,174.9h15.3v-6.2h-9.6c-0.2-3.3-0.3-6.1-0.5-9.3l-5.3,0.3V174.9z M17.7,11.3h-6.2v6.3h6.2V11.3z M208.2,27.5h6v-6h-6V27.5z
			 M223.8,105.9v-6h-6v5.9L223.8,105.9z M214.3,215.1v-6.4h-6v6.4H214.3z M164.9,11.4h-6.2v6.1h6.2V11.4z M80.7,208.6v6.8l5.7-0.3
			v-6.5H80.7z M224,11.4h-6.1v6h6.1V11.4z M105.7,17.7v-6.4h-5.8v6.4H105.7z M80.6,149.5v6.1h5.8v-6.1H80.6z M208.3,155.8h5.9v-6.2
			h-5.9V155.8z M60,117.1c9.9-0.6,10.9-7.5,1.2-7.6L60,117.1z M86.3,27.5v-6h-5.7v6H86.3z M105.9,99.7l-6.1-0.3v6.4h6.1V99.7z
			 M17.7,105.9v-6.1h-6.2v6.1L17.7,105.9z M164.9,105.9v-6.1h-6.2v6.1L164.9,105.9z M109.4,116.5c6.1,0.5,7.3-0.3,6.9-6.5h-6.4
			C109.7,112.1,109.6,113.9,109.4,116.5z M60.9,126h6c1-6.5,0.8-6.7-6.5-5.9L60.9,126z M149.5,155.8h5.6v-6.2h-5.6V155.8z
			 M71.1,17.5h6v-6.1h-6V17.5z M11.4,71.1v5.8h6.2v-5.8H11.4z M17.7,130.1h-6.2v5.9h6.2V130.1z M99.8,218.1v6.1h6V218L99.8,218.1z
			 M17.7,41.2h-6.2v5.7h6.2V41.2z M17.7,218.1h-6.2v5.9h6.2L17.7,218.1z M46.9,17.6v-6.2h-6v6.2H46.9z M105.9,130h-6v5.9h6V130z
			 M164.9,77.1v-5.8h-6.2v5.9L164.9,77.1z M17.8,189.1h-6.2v5.9h6.2L17.8,189.1z M105.8,77.1v-6h-5.9v6H105.8z M164.8,136v-5.9h-6.2
			v5.9L164.8,136z M165,159h-6.2v6h6.2V159z M155.2,208.3l-5.6,0.3v6.4h5.6V208.3z M105.9,188.9l-6.1,0.3v6h6.1V188.9z M223.9,130.1
			h-6.2v5.9h6.2V130.1z M136,11.3h-6v6.2h6V11.3z M158.5,47h6.4v-5.8h-6.4V47z M90.3,208.5v6.4h5.6v-6.4H90.3z M164.8,195.1V189
			c-2-0.2-4-0.2-5.9,0.1C157.9,195.6,157.9,195.7,164.8,195.1z M217.9,71.1V77h6v-5.9L217.9,71.1z M188.9,17.4h6v-6h-6V17.4z
			 M217.8,47h6v-6.3l-6,0.3V47z M36.8,215.1v-6.4h-5.6v6.4H36.8z M77,105.8v-6.1h-5.9v6.1L77,105.8z M11.4,164.8h6.2V159h-6.2
			L11.4,164.8z M21.7,149.4v6.2h5.1v-6.2H21.7z M36.8,155.8v-6.2h-5.5v6.2H36.8z M119.5,110l0.3,6.6l6.6-0.5
			c-0.2-2.4-0.3-4.1-0.5-6.1H119.5z M95.9,27.6v-6.1h-5.5v6.1L95.9,27.6z M130.1,99.7v6.1h5.9v-6.1H130.1z M95.9,155.8v-6.6
			l-5.5,0.3v6.3H95.9z M217.7,195h6.2v-5.9h-6.2V195z M31.1,27.4h5.7v-6h-5.7V27.4z M158.8,218.1c-0.8,6.6-0.2,7.1,6,5.5v-5.8
			C162.8,217.8,160.8,217.9,158.8,218.1z M145.5,149.8c-6.3-0.8-6.9,0-4.9,6.3l4.9-0.3V149.8z M27,21.5h-5.5v5.9H27V21.5z
			 M214.2,86.9v-5.8H208c0.1,2,0.2,3.6,0.3,5.4L214.2,86.9z M21.5,214.9h5.4v-6.6l-5.4,0.3V214.9z M214.6,140.4H208
			c0.1,2,0.2,3.5,0.3,5.3h6L214.6,140.4z M80.6,80.9v5.6h5.7v-5.6L80.6,80.9z M86.4,145.7v-5.4h-5.7v5.4H86.4z M155.1,21.5h-5.7v6
			h5.7V21.5z M116.1,126c0.1-2,0.3-3.7,0.5-6.3c-5.3-0.1-7.7,0.1-6.9,6.3H116.1z M105.8,165.1v-6h-6v6H105.8z M139.8,215.4l5.6-0.4
			v-6.4h-5.6V215.4z M125.8,126c0.8-6.8,0.6-7-6.4-5.8l0.6,5.8L125.8,126z M217.6,224.1h6.2v-6h-6.2V224.1z M217.7,165h6.1v-5.9
			h-6.1V165z M208.4,90.4v5.7c6.5,0.6,6.7,0.3,5.4-5.7L208.4,90.4z M86.7,96.2c-0.1-2.2-0.2-4-0.3-6.1l-5.7,0.3v5.8L86.7,96.2z
			 M208.3,36.8h5.9v-5.4h-5.9V36.8z M204.2,208.9c-5.9-0.9-6.2-0.5-4.9,6.2h4.9V208.9z M189,99.7v6.1h5.9v-6.1H189z M145.4,27.5
			v-6.1H140v6.1H145.4z M204.2,27.5v-6.1H199v6.1L204.2,27.5z M99.8,46.9h5.9V41h-5.9V46.9z M40.8,105.8h6.1v-5.9h-6.1V105.8z
			 M86.5,31.5h-5.7v5.7l5.7-0.3L86.5,31.5z M198.9,155.8h5.4v-6.1h-5.4V155.8z M145.6,90.4h-5.8v5.7h5.8V90.4z M168.9,125.8h6.1
			c0.4-6.9-0.3-7.4-6.4-5C168.6,122.4,168.8,124,168.9,125.8z M47.2,41h-6.3v5.9h6.3V41z M90.3,90.4v5.8H96v-5.8H90.3z M149.4,96.2
			h5.7v-5.7h-5.7V96.2z M37,90.4h-5.8v5.7H37V90.4z M175,61h-6.1v6.2h6.1V61z M169,179.1v6h6v-6H169z M61.1,60.9v6.2h6v-6.2H61.1z
			 M86.3,205v-5.1h-5.7v4.9L86.3,205z M204.7,96.2c-0.2-2.4-0.3-4.1-0.4-6.1l-5.2,0.3v5.8H204.7z M26.9,90.5h-5.4v5.7h5.4V90.5z
			 M57,179.1h-5.9v6.4l5.9-0.3L57,179.1z M61,185.1h6v-6h-6V185.1z M174.9,116.1v-6h-6.3c0.1,2.3,0.2,4.2,0.3,6.4L174.9,116.1z
			 M71.2,71.1V77h6v-5.9L71.2,71.1z M110,185.1h5.8v-6H110L110,185.1z M46.9,136v-5.9h-6.3l0.3,5.9H46.9z M184.9,67.2V61H179v6.2
			H184.9z M179.1,179v6.2h5.9V179H179.1z M214.6,204.7c-0.1-2-0.2-3.4-0.3-4.8H208l0.3,4.8H214.6z M57.4,57L57,51.1h-5.8V57H57.4z
			 M71.1,165h6v-6h-6V165z M47.3,195.1l-0.3-5.9h-6v5.9H47.3z M189,165.3l5.9-0.3v-6H189V165.3z M179.1,175.3l5.9-0.3v-5.9h-6
			L179.1,175.3z M71.1,195.4l5.8-0.3v-5.9h-5.8V195.4z M130.1,159v5.9h5.9V159H130.1z M189,41v5.9h5.8V41H189z M77.2,41h-5.9v6.2
			l5.9-0.2L77.2,41z M130.1,195.4l5.8-0.3v-6.3l-5.8,0.3V195.4z M40.6,159l0.3,5.9h6V159H40.6z M130.1,47h5.9v-5.9h-5.9L130.1,47z
			 M61,56.8h6.4c-0.1-2.2-0.2-3.9-0.3-5.7H61V56.8z M189,195.1h5.9v-5.9H189V195.1z M115.8,57.1v-6h-5.7v6H115.8z M120.2,51v6h5.7
			v-6H120.2z M175,169h-6v5.8h6V169z M126.2,175l-0.2-5.8h-6.2l0.3,5.8L126.2,175z M51,175h5.8v-5.9H51V175z M110,175h5.9v-5.9H110
			V175z M155.1,86.7V81h-5.5v5.6L155.1,86.7z M90.2,86.4H96v-5.3h-5.8L90.2,86.4z M31.3,80.9v5.6h5.5v-5.6H31.3z M36.9,31.4h-5.6
			v5.4h5.9L36.9,31.4z M175,51h-6v5.8h6V51z M179.1,51v5.8h6.2c-0.1-2.2-0.2-3.9-0.3-5.8H179.1z M57,110h-5.8v5.9H57V110z
			 M149.1,140.2c0.2,2.2,0.3,3.8,0.4,5.4h5.5v-5.4H149.1z M139.9,146l5.8-0.3c-0.1-2-0.2-3.7-0.3-5.6l-5.5,0.3V146z M90.3,145.7
			c6.5,0.3,6.5,0.3,5.3-5.4h-5.3V145.7z M31.3,140.3v5.3h5.9l-0.3-5.3H31.3z M21.5,145.6H27v-5.2h-5.5L21.5,145.6z M56.8,67.3v-6.2
			h-5.7v6.2L56.8,67.3z M195,130.2h-6v5.7h6V130.2z M61,175h6v-5.8h-6V175z M115.8,67.3v-6.1h-5.7v6.1H115.8z M130.1,130v5.9h5.9
			V130H130.1z M126,60.7l-5.8,0.3v6h5.8V60.7z M90.3,31.4v5.5h5.6v-5.5H90.3z M77.1,130h-5.9v5.9h5.9V130z M179.1,109.9v6h5.7v-6
			H179.1z M46.9,224.1v-5.9H41v5.9H46.9z M77.1,218.2h-6v5.8h6V218.2z M126,178.7l-5.7,0.3v6.4l5.7-0.3V178.7z M130.1,218.1v6h5.9
			v-6H130.1z M47,71.1h-6V77h6V71.1z M195.2,224.1c-0.1-2.4-0.2-4.1-0.3-5.9h-6v5.9H195.2z M155.1,31.5h-5.5v5.2h5.8
			C155.3,34.8,155.2,33.2,155.1,31.5z M184.9,126v-5.7h-6.2c0.1,2.2,0.2,3.9,0.3,5.7H184.9z M51.1,125.9h6.2l-0.3-6.2l-5.9,0.4
			V125.9z M136.1,77.2v-6h-5.9v6H136.1z M195.1,71.3h-6V77h6V71.3z M139.6,37.1l6.2-0.3c-0.1-2.1-0.2-3.7-0.3-5.4h-5.5
			C139.8,33.2,139.7,34.8,139.6,37.1L139.6,37.1z M199,31.3v5.8l5.1-0.2v-5.5H199z M21.7,81c-1.3,5.4,0.7,6.6,5.2,5.3V81H21.7z
			 M139.9,86.4h5.4v-5.7l-5.7,0.3C139.7,83.1,139.8,84.7,139.9,86.4z M204.3,81h-5.2v5.7l5.2-0.2V81z M21.5,31.3v5.4h5.7l-0.3-5.4
			L21.5,31.3z M199.1,140v6l5.1-0.4v-5.4L199.1,140z M204.2,204.7v-5.1H199v5.1H204.2z M31.2,204.7h5.7v-5h-5.7L31.2,204.7z
			 M21.5,199.8v4.9H27v-4.9H21.5z M155.2,199.9h-5.7v4.8h5.7V199.9z M145.4,204.7v-4.8h-5.5v4.8H145.4z M90,199.8l0.3,4.8h5.9
			l-0.2-4.8H90z"/>
	</g>
</g>
</svg>
