<?xml version="1.0" encoding="utf-8"?>
<!-- Generator: Adobe Illustrator 24.0.1, SVG Export Plug-In . SVG Version: 6.00 Build 0)  -->
<svg version="1.1" id="Layer_1" xmlns="http://www.w3.org/2000/svg" xmlns:xlink="http://www.w3.org/1999/xlink" x="0px" y="0px"
	 viewBox="0 0 120.8 120.8" style="enable-background:new 0 0 120.8 120.8;" xml:space="preserve">
<style type="text/css">
	.st0{fill:#023CFC;}
</style>
<title>01_rat</title>
<g id="Layer_2_1_">
	<g id="Layer_1-2">
		<g id="_01_rat">
			<path class="st0" d="M36.7,82.2c5.3,0.5,9.4,3.8,13.9,6.2c-0.9,3.2-2,3.6-4.4,1.6C43.1,87.3,39.9,84.8,36.7,82.2z"/>
			<path class="st0" d="M25.6,70c3.2-6.8,3.2-6.8,5.8-7.9C31,64,31.2,66,30.3,66.9C29,68,28.7,71.1,25.6,70z"/>
			<path class="st0" d="M94.3,28.1c0,0.1,0,0.2,0,0.2c0.6,0.9,1.2,1.7,1.8,2.5c5.1,7.2,7.7,15.9,7.2,24.7
				c-0.6,15-9.3,25.2-23.4,27.3c-4.5,0.7-5,0.2-4.9-4.2c0-0.4,0-0.8,0-1.2c0-8.1-3.1-12.8-10.7-15.7c-3.5-1.3-7.1-2.4-10.6-3.6
				c-4.2-1.5-7.9-3.6-10.6-7.5c1.3-0.5,2.6-1.2,3.9-1.8c1.9-1.2,2.3-3.2,1.8-5.3s-2.2-1.9-3.8-2s-3-0.3-4.5-0.5
				c-0.5-0.1-1.1-0.3-1.5-0.6c-4.4-3.7-8.7-7.4-13.1-11c-1-0.8-2.5-1.1-3.8-1.6c-0.5,1.3-1,2.6-1.4,3.9c0,0.2-0.1,0.5,0,0.7
				c-0.4,6.1,2.3,11.1,6,15.7c5.4,6.7,7.4,14,4.9,22.5c-1.1,3.9-1.3,8-1.9,12.3c2.5-0.2,2.9-1.7,3.1-3.3c0.1-1.6,0.5-3.1,1.1-4.6
				c1.2-2.4,2.8-2.3,4.2-0.1c3.2,5.3,8.1,9.4,14,11.5c0.2-3.2,0.6-6.1,2.8-7.9c0.2,3-0.1,6.2,0.7,9s2.8,5.3,4.2,8L52,96.7l0.1,1
				c4.9,0,9.8,0,14.7,0c1.2,0,1.8-0.6,1.8-2c0-2.1,0.2-4.2,0.3-6.5c8.9,0.5,17-0.7,24-6.1s10.8-12.8,12.7-21.3
				C108,50.4,102,32.5,94.3,28.1z M32.3,41.2c-0.6,0-1.2-0.9-1.7-1.5c0.6-0.6,1.1-1.5,1.8-1.7c0.5-0.1,1.2,0.8,2.3,1.6
				C33.5,40.4,32.9,41.2,32.3,41.2L32.3,41.2z"/>
			<path class="st0" d="M60.4,120.8C27,120.8,0,93.8,0,60.4S27,0,60.4,0s60.4,27,60.4,60.4l0,0C120.8,93.8,93.8,120.8,60.4,120.8z
				 M60.4,4.7c-30.8,0-55.8,25-55.8,55.8s25,55.8,55.8,55.8s55.8-25,55.8-55.8l0,0C116.1,29.6,91.2,4.7,60.4,4.7z"/>
		</g>
	</g>
</g>
</svg>
