<svg xmlns="http://www.w3.org/2000/svg" viewBox="0 0 120.82 120.82"><defs><style>.cls-1{fill:#023cfc;}</style></defs><title>01_rat</title><g id="Layer_2" data-name="Layer 2"><g id="Layer_1-2" data-name="Layer 1"><g id="_01_rat" data-name="01_rat"><path class="cls-1" d="M36.73,82.18c5.27.51,9.4,3.81,13.93,6.18-.91,3.24-2,3.56-4.38,1.57C43.14,87.29,39.91,84.76,36.73,82.18Z"/><path class="cls-1" d="M25.58,70c3.2-6.82,3.2-6.82,5.84-7.88C31,64,31.18,66,30.26,66.86,29,68,28.72,71.13,25.58,70Z"/><path class="cls-1" d="M94.35,28.15a.56.56,0,0,0,0,.23c.58.85,1.18,1.7,1.77,2.54a39,39,0,0,1,7.25,24.72c-.63,15-9.31,25.21-23.39,27.29-4.47.65-5,.23-4.88-4.16,0-.4,0-.8,0-1.2,0-8.06-3.14-12.8-10.71-15.66-3.49-1.32-7.08-2.38-10.6-3.63-4.18-1.5-7.94-3.64-10.64-7.54a35,35,0,0,0,3.86-1.85c1.9-1.25,2.28-3.15,1.77-5.27s-2.2-1.92-3.8-2-3-.26-4.49-.47a3.2,3.2,0,0,1-1.49-.63c-4.38-3.67-8.67-7.43-13.12-11-1-.82-2.5-1.06-3.77-1.56-.48,1.3-1,2.6-1.43,3.91a3.3,3.3,0,0,0-.05.71c-.4,6.13,2.29,11.09,6,15.66,5.38,6.68,7.42,14,4.9,22.49C30.41,74.6,30.24,78.77,29.6,83c2.49-.25,2.86-1.66,3.09-3.34a15.09,15.09,0,0,1,1.11-4.56C35,72.68,36.56,72.79,38,75a26.77,26.77,0,0,0,14,11.5c.24-3.22.63-6.11,2.75-7.93.2,3-.09,6.17.74,9s2.78,5.34,4.21,8L52,96.7l.11,1c4.91,0,9.83,0,14.74,0,1.25,0,1.78-.6,1.75-2,0-2.1.15-4.22.26-6.51,8.87.46,17-.69,24-6.09s10.83-12.81,12.66-21.28C108,50.43,102,32.51,94.35,28.15Zm-62.06,13c-.61,0-1.16-.93-1.73-1.45.58-.59,1.09-1.52,1.76-1.66.51-.11,1.24.78,2.33,1.56C33.55,40.39,32.89,41.22,32.29,41.17Z"/><path class="cls-1" d="M60.41,120.82a60.41,60.41,0,1,1,60.41-60.41A60.48,60.48,0,0,1,60.41,120.82Zm0-116.17a55.76,55.76,0,1,0,55.76,55.76A55.82,55.82,0,0,0,60.41,4.65Z"/></g></g></g></svg>