<svg xmlns="http://www.w3.org/2000/svg" viewBox="0 0 288.6 169.12"><title>02_ox</title><g data-name="Layer 2"><g id="Layer_1-2" data-name="Layer 1"><g id="_02_ox" data-name="02_ox"><path d="M228.78,84.56V66.87l-1-.23-3.7,19.29c-7.29-2.17-10.79,3.18-14,8.58a33.65,33.65,0,0,0-4.42,21.57C197,121,188,124.43,177.38,120c-13.23-5.54-14-6.13-9.57-19.71,1.94-5.9,5.33-11.34,8.23-16.9,2.54-4.88,5.32-9.64,7.09-14.91-4.81,7.36-9.79,14.61-14.37,22.1a37.07,37.07,0,0,0-4.9,26.86,39.3,39.3,0,0,1,.53,11.84c-1.12,8.45,1.06,15.4,7.35,21.18,4.89,4.49,9.58,9.18,15.15,14.55-6.84,2.34-12.52,3-18.38,1a4.09,4.09,0,0,1-2.13-1.23c-3.37-5.63-8.23-11-9.59-17.08-3.81-17.16-7.29-34.2-18.59-48.41C134.87,95,135,90.45,137,85.55c3.28-8.37,6.55-16.84,4.65-26.15A23,23,0,0,0,139,52.5c2.12,9-.41,17.37-3.66,25.22C130.11,90.25,132,101,141,110.81a29.46,29.46,0,0,1,2,2.89c-4.38,2.4-8.81,4.54-12.93,7.15-4.55,2.89-6.25,7.2-4.89,12.89-5.6-6.7-13.75-10.76-16.73-19.67-.77-2.29-3.9-4.5-6.42-5.35-4.49-1.53-9.33-2-15.17-3.12,11-17.87,9-35-1-51.23,1.61,6.88,3.65,14.33,5,21.89,3.61,19.55-11.65,39.06-29,45.65-3.37,1.28-6.44,3.32-9.65,5l-.06,2.26c5.52,3.49,10.68,7.86,16.63,10.26,8,3.23,13.45,8.63,17.58,15.81,2.47,4.3,4.89,8.62,7.38,13-8.09,3.06-19.19-2.44-21.74-9.52-1-2.8-3.82-5.24-6.33-7.16-6.73-5.13-13.9-9.69-20.59-14.87-5.45-4.21-6.17-8.89-2-14.32C49,114.6,49,106.57,44.58,98.54c-12.84-23.28-9-38.16,11.34-60.48,1-1.05,2.38-1.7,3.15-3.19C41.64,33.05,25.3,34.25,12,46.94c-5.21,5-7.1,11.28-6.33,18.18.28,2.45,2.05,6.15,3.86,6.66,2.55.71,6.68-.12,8.53-1.93,3.36-3.31,7-6.59,6-13-.51-3.1,4-7,6.91-11.62.66,2.07.87,2.72,1.25,4l7-7.64c3.66,3.68,2.09,7.58.11,11.38-2.15,4.11-5,7.4-10,8.22-1.1.18-2.11,1.84-2.86,3-1.59,2.53-2.75,5.35-4.51,7.74C18.43,76.53,13.51,78,8.09,76.74c-5-1.16-7-5.25-7.71-10C-1.44,54.42,3.3,45,13.24,37.9c10.77-7.64,23-10.62,35.93-9.73,11.09.78,22,.14,33.05-.37,13.89-.64,27.24-2.64,40.54-7.17,10.72-3.66,22.31-4.74,33.51-7a26.24,26.24,0,0,0,2.82-.88C171.57,8.77,184,4.42,196.57.91c9.9-2.75,14.89.67,16.65,10.81,1.09,6.28,4.2,11,8.68,15.25,7.92,7.53,15.17,15.6,16.92,27,1.23,8,3.51,16.21-1.73,23.7a100.33,100.33,0,0,1-6.61,7.73Z"/><path d="M218.39,137.92c.2,1,.45,1.91.59,2.88.28,1.85.5,3.7.75,5.56l-5.3-1.49c-.11.52-.35,1.58-.59,2.63-5-3-5.84-6.76-2-10.74,2.75-2.81,2.33-5.16,1-8.46-4.43-11.24-7.42-22.64,1.23-33.43a22.34,22.34,0,0,1,5.17-4.62c2.7-1.75,5.15-1.55,7.25,1.47,7.92,11.39,16.76,14.37,30.53,10.51,1.54-.43,3.06-1,5.32-1.7-2,10.06-4.46,18.83-14.68,23.13a15.21,15.21,0,0,0-6.3,5.88c-2.2,3.48-3.45,7.55-5.35,11.23a18.69,18.69,0,0,1-4,5.64c-4.65,4-8.28,2.59-9.43-3.28a37.12,37.12,0,0,0-2.22-5.94Z"/><path d="M80.49,113c4.18-3.55,18.63-4.13,23.06.44,1.66,1.72,2.79,6,1.81,7.89-6.33,12.22-.1,20,8.83,26.77,4.73,3.62,10,6.59,14.79,10.08,3.67,2.65,7.06,5.67,10.57,8.53l-.69,1.76c-6.23,0-12.45,0-18.68,0-1,0-2.29-.19-2.81-.82-3.17-3.83-7-7.43-9-11.83-2.75-6-5.78-11.52-11.09-15.62a22.23,22.23,0,0,1-8.77-14.91C87.82,121,83.49,117.34,80.49,113Z"/><path d="M274,85C272,90.42,268.17,93.67,263.51,96a38.37,38.37,0,0,1-25.28,2.81c-6.31-1.31-8.4-9.05-3.9-13.7,3.33-3.43,10.93-4.47,14.79-1.68,1.31.94,2.76,3,2.57,4.29s-2.33,2.32-3.82,3.07c-1.08.53-2.5.39-4.1.6C250.61,95.07,261.61,92.73,274,85Z"/><path d="M182,125.39h7.57c-.5,10.83-1,21.69-1.51,32.78-4.4-3.86-8.52-6.71-11.48-10.47-1.12-1.42-.45-5.76,1-7.37C181.46,135.9,183.41,131.25,182,125.39Z"/><path d="M259.59,117.36c1.24-2.51,2.18-4.39,3.13-6.3,8.85,8.39,16.2,9,25.88,2.13-.61,3.61-3.21,6.41-8.05,7.6C273.27,122.58,266.12,122.66,259.59,117.36Z"/></g></g></g></svg>