<svg xmlns="http://www.w3.org/2000/svg" viewBox="0 0 120.82 120.82"><defs><style>.cls-1{fill:#4501a5;}</style></defs><title>02_ox</title><g id="Layer_2" data-name="Layer 2"><g id="Layer_1-2" data-name="Layer 1"><g id="_02_ox" data-name="02_ox"><path class="cls-1" d="M36.38,71.63c2.21,2.54,4.16,4.35,5.52,6.52.7,1.11.42,2.87.45,4.33a29.1,29.1,0,0,1-.27,3.23l-.67.4c-1.06-1.2-2.21-2.32-3.14-3.6-1.83-2.53-3.39-5.27-5.35-7.68-1.5-1.82-2-3.61-.84-5.57,1.37-2.42,3-4.69,4.47-7L32.92,50.15c-.94,1.35-1.46,2.2-2.08,3-1,1.23-1.9,2.87-3.24,3.48a7,7,0,0,0-3.87,4c-.77,1.84-2.29,1.64-3.52.5a7.1,7.1,0,0,1-2.27-7.36c1-3.84,1.87-7.69,2.82-11.6-2.86-1.32-6.28-1.67-7.25-5.46,6.86,1.62,8.32,1.25,9.81-2.41-1.33-1-2.68-2-4-3-.1-.07-.11-.27-.19-.5l9.61,3.72a9.93,9.93,0,0,0-1.07,1.77c-.27.81-.72,2.18-.41,2.42a4.12,4.12,0,0,0,2.89.87c2.15-.36,5.14-4.25,5.21-6.41S34,30.17,32.14,29.9a70.35,70.35,0,0,1-7.59-1.41c4,.24,8.16-.81,11.68,2.08a3.36,3.36,0,0,0,2.21.2c4.57-.59,8.9.34,13.24,1.67,8.49,2.6,17,5,25.57,7.51,4.28,1.24,8.25,2.94,11.58,6.06,3,2.84,6.68,3.14,10.41,1.46,3.9-1.76,5.72-5.13,6.43-9.16.09-.56-.5-1.2-.63-1.83a20.74,20.74,0,0,1-.56-5.45c3.68,2.73,3,6.3,2.07,9.83-1.86,6.75-5.28,9.17-13.36,9.92A84.59,84.59,0,0,0,94,60.24a8.17,8.17,0,0,0,2.61,4.13c2.37,2.12,3.92,4.3,4.17,7.72.2,2.78,1.47,5.54,2.58,8.17,1.65,3.91.89,5.9-3.61,7.59-.78-3.21-1.91-6.35-2.23-9.56-.33-3.36-2.17-5-4.94-6.05,0,.17-.15.42-.1.46,3.17,2.47,2.15,5.86,2,9.07-.07,2.38.16,4.76,0,7.12a3.41,3.41,0,0,1-1.6,2.47,6.46,6.46,0,0,1-3.63.17c-.34-.07-.67-1.46-.6-2.21.4-4.12.93-8.22,1.46-12.75-4.33-2.07-6.95-6.29-9.71-10.48-.72-1.1-2.87-1.81-4.33-1.77-2.76.08-5.5.86-8.26,1.3-4.64.75-9.3,1.46-14.44,2.27-1.1,4.78-2.43,10.26-3.55,15.78A14.55,14.55,0,0,0,50,88.22c.37,3.19-.39,4.13-3.68,4.11A33,33,0,0,1,43,92c.82-5.14,1.67-10.1,2.38-15.07.39-2.75.6-5.53.79-8.3.15-2.26-1.36-2.78-2.93-1.88A76.62,76.62,0,0,0,36.38,71.63ZM27.19,41.49c-.61,1.06-1.29,1.73-1.25,2.35,0,.47,1,.87,1.54,1.31.46-.59,1.21-1.14,1.29-1.77C28.83,42.94,28,42.38,27.19,41.49Z"/><path class="cls-1" d="M60.41,120.82a60.41,60.41,0,1,1,60.41-60.41A60.48,60.48,0,0,1,60.41,120.82Zm0-116.17a55.76,55.76,0,1,0,55.76,55.76A55.82,55.82,0,0,0,60.41,4.65Z"/></g></g></g></svg>