<svg xmlns="http://www.w3.org/2000/svg" viewBox="0 0 299.88 131.83"><title>03_tiger</title><g data-name="Layer 2"><g data-name="Layer 1"><g data-name="03_tiger"><path d="M232.73,31.72c1.89,8.5-.88,15.56-4.24,22.57-2.73,5.69-5.61,11.38-7.61,17.34-2.61,7.82-1.74,15.12,5.49,20.61,1.39,1.06,2.92,2.68,3.26,4.28,2.26,10.84,4.19,21.82-3.19,31.6-1.34,1.78-4.09,3-6.39,3.44-3.05.58-6.31,0-9.46.19-4.24.24-4.71-2.07-3.05-4.91,1.27-2.19,3.2-4.7,5.41-5.52,5.74-2.14,4.4-6.74,4.58-10.82.18-4.23-1-7.94-5.22-9.93a12.26,12.26,0,0,0-1.82-.82c-14.61-3.83-22.64-14.5-28.17-27.52-1.51-3.55-3.47-5.24-7.12-4-4,1.37-8.46,2.42-11.84,4.83-10.48,7.48-22.11,10.58-34.73,10.65s-25.28.48-37.85-.28c-4.49-.28-6.7.22-9.65,3.82-5.44,6.65-11.15,14-18.44,17.91-5.78,3.09-10,7.81-15.71,10.72-6.2,3.19-12,7.18-18.15,10.45a19.71,19.71,0,0,1-8.49,2.47c-6.42.11-12.86-.49-19.29-.8l-1-1.3c2.41-2.65,4.61-5.56,7.33-7.85a11.09,11.09,0,0,1,6-2.27c21-1.54,43.27-33,44-53.65.11-3.23-2.16-6.7-3.93-9.72-.31-.52-4.24.08-5.4,1.25-3,3.05-5.27,6.85-8.15,10.06-2.19,2.43-4.59,5.11-7.47,6.33-1.89.8-5-.37-7.16-1.51-.88-.47-.58-3.16-.84-5-4.27,2.47-8.18.66-10.91-3.69-.91-1.45-.71-3.66-.82-5.54-.18-2.91.53-6.07-.38-8.69-2.44-6.95-1.87-13.77-.33-20.66.36-1.59.82-3.75,2-4.47,4.58-2.87,3.89-6.58,2.65-10.78-.9-3.07-1.6-6.8,2-8.36S26,2.82,27.39,6c2.49,5.71,6.25,4.83,10.81,3.79,6.8-1.57,13.7-2.7,20.55-4a6.08,6.08,0,0,0,2.81-.86C67.27-.3,73.4,1.45,79.31,4s11.36,5.55,16.9,8.57a34.2,34.2,0,0,0,27.53,2.65c9-2.82,17.88-6.38,27-8.68C163.47,3.39,176,4.44,188.59,8.67c5.81,1.95,12.49,1.15,18.7,2.09,23,3.47,45.39,9.49,65.55,21.33,8,4.69,15.08,11.42,21.41,18.31,5.79,6.29,7.13,14.51,3.95,22.93-3.39,9-10.39,12.93-19.77,10.73-3.53-.82-6.79-2.79-10.31-3.63-5.42-1.28-11-2.82-16.44-2.73-3,0-7.91,2.66-8.57,5.06-.88,3.15,1.15,7.42,2.74,10.84.89,1.91,3.55,2.93,5.14,4.61.78.84,1.56,2.53,1.21,3.35s-2,1.4-3.19,1.86a3,3,0,0,1-1.95-.17c-7.08-2.92-11.9-8-13.54-15.51C231.94,80.61,235,75,240.93,71.07a20.87,20.87,0,0,1,19.56-2.34c5,1.84,9.72,4.49,14.81,5.86,3.07.82,7.3,1,9.78-.51,3.79-2.32,4.28-7.19,2.91-11.3a23.78,23.78,0,0,0-5.41-9.36c-13.14-12.83-28.64-20.93-47.33-21.94A18.68,18.68,0,0,0,232.73,31.72Z"/><path d="M127.82,87.77c-1.22,4.46-2.49,7.74-3,11.14-.67,4.7-1.53,9.58-.91,14.2,1.26,9.49-5.67,18.3-15.38,18.44-2.14,0-4.27,0-6.41,0L101,130.2c1.81-2.66,3.08-6.09,5.54-7.83,6.89-4.89,7.23-10.87,4.58-18-1.95-5.26-3.61-10.63-5.62-16.61h22.37Z"/><path d="M177.75,71.14c6.21,18.13,19.76,27.57,36.1,34-21.41-1.36-41.4-5.16-53.59-25.39Z"/><path d="M236.13,112.84l9.24,16.65-1.07,1.58a87.52,87.52,0,0,1-10.12-.09c-2.89-.33-4.32-2.27-3.14-5.32C232.46,122,233.94,118.35,236.13,112.84Z"/><path d="M44.25,6.13l-8.1,1.81c-1.1-3.36-1.37-6.71,2.14-7.73C42.2-.93,42.78,2.79,44.25,6.13Z"/></g></g></g></svg>