<svg xmlns="http://www.w3.org/2000/svg" viewBox="0 0 120.82 120.82"><defs><style>.cls-1{fill:#9100b1;}</style></defs><title>03_tiger</title><g id="Layer_2" data-name="Layer 2"><g id="Layer_1-2" data-name="Layer 1"><g id="_03_tiger" data-name="03_tiger"><path class="cls-1" d="M30,39l5.54-2.9c10.61,7.36,9.93,17.08,5.84,27.7a94.09,94.09,0,0,0-1.63-10c-.93-3.41-3.62-5.35-7-6.37,2.53,3.77,5.56,7.27,5.15,12.44-2.45-1.26-4.81-2.36-7-3.69-.48-.28-.67-1.35-.68-2.07,0-1.68.07-3.33-2-4.43,0,2.47,1.1,5-1.55,7.08-.11-1.6-.2-2.87-.29-4.14l-.63-.23a16.27,16.27,0,0,0-1.27,3.62c-.17,1.64-.47,2.87-2.37,3.17a3.09,3.09,0,0,0-1.39.92c-2.1,2-2.66,2.06-4.94.07l1.8-3.1a11.39,11.39,0,0,1-2.38,1c-.59.06-1.44,0-1.73-.36A2.54,2.54,0,0,1,13.34,56c.35-1.89.81-3.77,1.19-5.66.09-.48,0-1,.11-1.48.73-2.7,1.49-5.38,2.34-8.43.3.1,1.46.17,1.77.71,1.07,1.9,2.46,1.55,4,1a11.84,11.84,0,0,0,2.35-.81c1.5-.89,2.6-.53,4,.46a43.5,43.5,0,0,0,5.68,3c2.1,1.08,4.21,2.12,6.16,3.09.1-1.72-.38-2.23-4.37-4.64C34.53,42,32.55,40.68,30,39Zm-7,8.39.25.9a15.3,15.3,0,0,0,4.25-.9c.63-.32.89-1.79.91-2.75,0-.57-.78-1.15-1.21-1.73a16.21,16.21,0,0,0-2,1.59C24.47,45.44,23.79,46.46,23.06,47.43Z"/><path class="cls-1" d="M88.61,49c1.71,5.06,3.24,9.56,4.93,14.53l-4.25,3,.17.65a23.91,23.91,0,0,0,5.06-1c1.86-.81,2.51,0,2.76,1.5.62,3.59,1.27,7.2,1.53,10.83a10,10,0,0,1-1.07,5.2c-.54,1-2.15,1.7-3.4,2a3.18,3.18,0,0,1-2.54-1.12c-.27-.33.29-1.77.86-2.3,1.79-1.65,1.85-3.54,1.26-5.66a25.54,25.54,0,0,1-.83-3.64,3.87,3.87,0,0,0-2.74-3.42,36.89,36.89,0,0,1-4.47-2.58c1.28-1.85,2.48-3.56,3.67-5.27l-.15-.53-7.23,3c-1.54-.52-1.68-1.81-1-3.54.65-1.53,1.19-3.1,1.71-4.68a12.21,12.21,0,0,0,0-8.14c-1.07-3.38-.58-7.27-.77-11.11,5.39,1.18,9.28,5.66,9.53,10.38C91.8,48.77,91.24,49.31,88.61,49Z"/><path class="cls-1" d="M57.69,62.2l-2,.13c.83-5.14-1.11-8.75-5.87-11,4.52,4.15,3.42,9.14,2,14.6l-4.94-5.1a8.24,8.24,0,0,0,3.93,7.38c2.38,1.7,2.36,2.71-.11,4.13-3.12,1.8-4.16,1.07-5.73-2.06-2.42-4.78-.94-9,.4-13.63,1.88-6.42,1.39-12.65-3.63-17.82-1.09-1.13-2.08-2.35-3.12-3.52l.2-.7L50.64,36c.33,1.9.57,4.29,1.18,6.57a18.11,18.11,0,0,0,2.23,5.23C57.21,52.59,58.17,55.92,57.69,62.2Z"/><path class="cls-1" d="M62,61.12c-1.33-4.1-2.48-8-3.86-11.75a13.5,13.5,0,0,0-2.34-3.8c-2.47-3-3-6.55-3.42-10.47l2.9-.27c.3,6,3.21,10.72,6.65,15.22A21.85,21.85,0,0,1,61,47.74c-.93-3.34-2-6.66-2.66-10.06-.58-3.21-.09-3.53,3.24-3.58,1.56,4.35,3.24,8.67,4.63,13.09a9.1,9.1,0,0,1-.14,4.14c-.43,2.28-1.29,4.5-1.58,6.79C64.26,60,63.69,61.11,62,61.12Z"/><path class="cls-1" d="M70.18,33.72c2.78.33,4.83.47,6.83.88a2.29,2.29,0,0,1,1.27,1.68A18.72,18.72,0,0,1,78,40c-.42,3.81-.14,7.57,2.07,10.77,1.73,2.49,1.45,4.75.31,7.2-.48,1-1,2.08-1.54,3.17-4-2.27-3.57-6.12-3.13-9.47.56-4.18-.66-7.63-2.53-11.13C72.12,38.54,71.34,36.39,70.18,33.72Z"/><path class="cls-1" d="M63.46,34.16a6.36,6.36,0,0,1,.92-.25c4.53-.35,4.49-.34,5.2,4.19a47.24,47.24,0,0,0,1.09,5.1c1.12,4.12,2.31,8.23,3.64,12.93L72.18,55c.52,1.3.88,2.2,1.3,3.22l-5.73,1a7.79,7.79,0,0,1,.38-2.57c1.69-3,1-6,0-8.91-1.17-3.71-2.47-7.37-3.73-11C64.14,35.87,63.8,35.05,63.46,34.16Z"/><path class="cls-1" d="M74,68.27l6.67.54c.57,5.12,1.16,9.94-2.7,14a5.51,5.51,0,0,1-5.55,1.89c-.69-.16-1.66-.83-1.75-1.39s.69-1.35,1.26-1.84c.79-.69,1.93-1,2.6-1.78,2.75-3.13,2.89-5.37.78-9C75,70.11,74.7,69.54,74,68.27Z"/><path class="cls-1" d="M29.17,66.88l6.9,2.88c-2.68,2.78-3.41-1.61-5.33-.2l.9,2.69c-1.5,3.07-2.73,5.6-4,8.13-.26.51-.49,1.17-.93,1.44A27.88,27.88,0,0,1,23.6,83.3c-.32-1.1-1.13-2.33-.86-3.25a39.2,39.2,0,0,1,2.76-6.36C26.6,71.47,27.84,69.33,29.17,66.88Z"/><path class="cls-1" d="M46.33,75.11h6v3.14l-3.92.21c.8.6,1.27,1,1.77,1.33.77.51,2.13.88,2.24,1.49a9.49,9.49,0,0,1-.17,4.62c-.73,2.18-4.63,3.25-6.67,1.94a2.49,2.49,0,0,1-.5-2c2.66-1.71,1.8-4.17,1.56-6.51C46.55,77.92,46.45,76.53,46.33,75.11Z"/><path class="cls-1" d="M37.42,68.53c-2.31-1-4.26-1.76-6.09-2.73A2.66,2.66,0,0,1,30,63.94a40.64,40.64,0,0,1,.63-5.18,14.17,14.17,0,0,1,8,5.19C40,65.92,38.32,67.42,37.42,68.53Z"/><path class="cls-1" d="M70,60.85c3-.67,5.37-1.05,7.27,1.34.81,1,2,1.69,3,2.64a6.89,6.89,0,0,1,1,1.76,6.83,6.83,0,0,1-2,.7c-1.94,0-3.89-.2-6.34-.35Z"/><path class="cls-1" d="M94,46.66c3.18,4.2,3.13,4.83-.31,6.73C90.7,51.11,93.16,49.09,94,46.66Z"/><path class="cls-1" d="M98,53.42c2.17,2.37.69,3.85-1.08,5.63l-2.53-3.83Z"/><path class="cls-1" d="M109.9,52.89c-1.9-.63-4.24.58-4.73-2-.13-.63,1.33-2.26,2-2.2C109.17,48.86,109.79,50.54,109.9,52.89Z"/><path class="cls-1" d="M107.32,60.46l-4.12,1.19v-4C105.52,57,106.08,58.86,107.32,60.46Z"/><path class="cls-1" d="M105.8,55.22c3.52.11,4.11.76,3.24,3Z"/><path class="cls-1" d="M100.9,61.23l-2-.65,1.78-3.49.66.11C101.23,58.45,101.08,59.7,100.9,61.23Z"/><path class="cls-1" d="M60.41,120.82a60.41,60.41,0,1,1,60.41-60.41A60.48,60.48,0,0,1,60.41,120.82Zm0-116.17a55.76,55.76,0,1,0,55.76,55.76A55.82,55.82,0,0,0,60.41,4.65Z"/></g></g></g></svg>