<svg xmlns="http://www.w3.org/2000/svg" viewBox="0 0 120.82 120.82"><defs><style>.cls-1{fill:#b20146;}</style></defs><title>04_rabbit</title><g id="Layer_2" data-name="Layer 2"><g id="Layer_1-2" data-name="Layer 1"><g id="_04_rabbit" data-name="04_rabbit"><path class="cls-1" d="M80.47,53.21a14.94,14.94,0,0,0-1.2-2.36C78.18,49.38,77,48,75.81,46.59A17,17,0,0,0,64.1,40.84c-5.82-.54-11.61-1.36-17.42-2.06-.34,0-.69,0-1.25,0a5.81,5.81,0,0,0,4.74,5c3.46.87,7,1.22,10.55,1.92,1.72.35,3.38,1,5.06,1.51l-.16.52L52,46.46a40.14,40.14,0,0,0,11.68,9.8c3.31,1.87,6.71,3.59,10.13,5.26,7,3.42,12.5,8.18,13.94,16.53,1.28-.67,2.31-1.55,3.45-1.72a7.21,7.21,0,0,1,4.27.46c1.54.89.83,2.62.26,4a21.08,21.08,0,0,1-7.69,9.66c-1.77,1.17-3.94,1.73-6.23,2.7,0,1.89-1.57,3-3.57,3.55-5,1.45-10,2.86-15,4.17a12.48,12.48,0,0,1-3.72.16,2.89,2.89,0,0,1-3-2.37c-.36-1.7.56-2.66,2-3.22,1.63-.65,3.31-1.18,5-1.79a26.75,26.75,0,0,0,4.81-2.22c-12-.86-20.51-6.59-25.34-17.73l-.72.51a24.39,24.39,0,0,0,0,4.19A8.53,8.53,0,0,1,40,86.09c-1.44,1.57-3,1.36-3.71-.65a13.24,13.24,0,0,1-.89-4.69c.07-3.64.43-7.27.26-11.17a18.75,18.75,0,0,0-1.58,3A9.27,9.27,0,0,1,29,78.26a3,3,0,0,1-2.73-.21c-.46-.48-.19-1.83,0-2.74s.91-1.41,1-2.16C28,68.47,31,65.46,34.54,62.82a3.74,3.74,0,0,0,1.69-3.73c-.32-2.91-.51-5.84-.93-8.73-.09-.6-.94-1.15-1.52-1.61-2.55-2.06-5.31-3.9-7.66-6.16s-2.19-3.53-.41-6.21c3.75-5.64,12.15-8,18.17-5a3.62,3.62,0,0,0,4.52-.54c3.66-2.92,7.42-5.73,11.17-8.54a11,11,0,0,1,9.69-2.25c3.11.8,6.25,1.47,9.33,2.37.78.23,1.37,1.14,2,1.74-.74.48-1.46,1.35-2.22,1.4-7.44.47-13.71,3.84-19.86,7.63A52.83,52.83,0,0,1,52.33,36c2.61.14,4.81.26,7,.36,3.73.16,7.46.23,11.18.48a8.91,8.91,0,0,1,7.27,4.35A61,61,0,0,1,81.66,49a10.2,10.2,0,0,1,.24,3.3ZM40,39C38.76,38,38,37,37.31,37s-1.37,1.1-2.06,1.71c.66.71,1.22,1.82,2,2C37.85,40.86,38.72,39.84,40,39Z"/><path class="cls-1" d="M60.41,120.82a60.41,60.41,0,1,1,60.41-60.41A60.48,60.48,0,0,1,60.41,120.82Zm0-116.17a55.76,55.76,0,1,0,55.76,55.76A55.82,55.82,0,0,0,60.41,4.65Z"/></g></g></g></svg>