<svg xmlns="http://www.w3.org/2000/svg" viewBox="0 0 158.63 160.19"><defs><style>.cls-1{fill:#fff;}</style></defs><title>04_rabbit</title><g data-name="Layer 2"><g data-name="Layer 1"><g data-name="04_rabbit"><path d="M39.72,58.42c2.05,3.71,5.43,5.89,9.92,7C56.08,67,62.44,69,68.74,71c1.94.65,3.57,2.26,5.89,3.8L61.71,86.07c.16.19.31.38.47.56,6.7-3.78,13.32-7.68,20.1-11.31,11.53-6.18,23.9-7.8,36.21-3.71,5.54,1.84,10.9,5.81,15,10.1,11.34,11.93,17.61,37.8,6.35,55.33-2.87,4.47-5.16,9.35-8.32,13.58-5.28,7.08-12.43,9.48-21.44,8.94-11-.66-22.19.12-33.29.31a37.67,37.67,0,0,1-4.47.29c-1.17-.13-3-.63-3.24-1.41-.35-.94.25-3,1.07-3.46,3.91-2.15,8-3.91,11.93-5.75-1.54-1.81-4.17-4.27-6.06-7.2-5.6-8.71-5.77-21.13-.71-27.88,5.46-7.28,19-11.31,29.21-7.48,6,2.27,11.25,6.51,16,9.35-1.64-10.15-17.77-16.46-34.74-12.13S63.55,122,70.58,142.49c-7.7,6.64-12.13,18.11-25.34,16.56-4.78-.57-9.89,1.36-14.53-1.93,1.69-4.28,4.66-6,8.92-6.07,7.78-.08,11.52-3.56,12.43-11.5.89-7.75-2-14.17-7.85-19-4.88-4-10.24-7.38-15.43-11-6.1-4.24-11.67-8.9-13.65-16.85-1.29.4-2.33.75-3.39,1-5.49,1.53-9-.39-10.76-5.86-3.53-11,2.81-25.41,13.5-30.33,2.7-1.24,5.61-2.62,8.49-2.76,5-.25,6.9-3.12,6.82-7.28-.35-18.44,9.26-32.11,20.88-44.91C51.42,1.81,51.8.63,53,0c3.34,7.35,3.23,14.09-.51,22.26L75.43,3.45l1.48,1.22C75.1,16,71.14,27.1,64.59,36S48.25,51,39.72,58.42Zm-7-4.05c2.35-13,7.35-24.27,19.08-31.48C40.06,27.08,30.32,42.69,32.75,54.37Z"/><path d="M144.33,136c6-10.7,6.91-15.91,5-26.93,6.28,4,10.63,13.34,8.84,19.06C156.26,134.4,152.88,136.38,144.33,136Z"/><path class="cls-1" d="M32.75,54.37c-2.43-11.68,7.31-27.29,19.08-31.48C40.1,30.1,35.1,41.39,32.75,54.37Z"/></g></g></g></svg>