<svg xmlns="http://www.w3.org/2000/svg" viewBox="0 0 116.17 116.17"><defs><style>.cls-1{fill:#fd0202;}</style></defs><title>05_dragon</title><g id="Layer_2" data-name="Layer 2"><g id="Layer_1-2" data-name="Layer 1"><g id="_05_dragon" data-name="05_dragon"><path class="cls-1" d="M45.53,46.22c1.14-.25,2-.17,2.48-.58a66.36,66.36,0,0,0,6.51-6.59c1.76-2.19,3.17-2.74,5.58-1.24.51.32,1,.68,1.67,1.15,0-.59.08-1.09.12-1.59,12.88.07,27.46,17.4,23.55,34.25l-1-1.86c-.09.28-.17.45-.22.64a12,12,0,0,1-.91,3.24c-.59,1-1.62,2.2-2.54,2.28a3.14,3.14,0,0,1-3.63-2.63c-.35-1.76-.91-3.46-1.44-5.42l-2.4,2.94C68.79,68.15,67,64,66,58.85c-.56.95-.88,1.52-1.24,2.07-.7,1-1.42,1-2.65.57-3.34-1.16-4.76-3.89-6.08-7.07-1.49,5-3.86,5.23-8.16,1.48-.73,1-1.28,2.29-2.25,2.92s-2.42.67-3.71,1a12.23,12.23,0,0,1-1.31,3,14.69,14.69,0,0,1-2.84,2.28,4.06,4.06,0,0,1-3.22,5.68c.56,2.46-1.1,4-4.5,4.1l-.46-2.48-2.09,1.41c-1.67-1.34-2-2.42-.47-4.27s2.45-4.18,3.63-6.31l-.51-.28-2.06,2.44c.55-3.7,1.13-7.23,1.58-10.77A10.59,10.59,0,0,0,29.38,52l-3.14,9.39-.81-.21V48.59h-.35L23.25,58.83l-.8,0-1.33-9.25-.37,0-1.18,9.89L17.76,55l-.45.06.85,9.58L15.73,61.8A17.56,17.56,0,0,0,20,70.44a8.47,8.47,0,0,1,1.67,2.83c2.27,7,8.43,9.52,14.67,5.65a32.13,32.13,0,0,0,6.73-6c4.77-5.33,10.08-5.81,15.67-1.12-1.65,1.84-3.56,3.5-4.87,5.55s-2,4.47-3.09,6.88l-2.19-2.55-.66,0c0,4.72-3.32,7.09-6.33,9.7l.18.56,4.85-.91.54,5,2.93-3.41,1.69,3.43c.5-2.44,2.19-4.59,0-6.32,2-3,3.74-5.89,5.66-8.67a3.17,3.17,0,0,1,1.91-1,26.1,26.1,0,0,1,2.94,0c2.47-.16,4.5-1,5.36-3.88.24.46.46.69.41.82-1.09,3.06,1.1,4.34,3.1,5.7,3.15,2.15,6.52,3.87,10.38,4.19,8.45.71,14-4,15.17-13.16.45-3.56.13-7.22.21-10.82,0-2,.21-4.06.33-6.3l-1,.67c-2-4.22-2.27-6-1.61-10.73l-3.13,1.18L94.7,59.9l-3.18-1.1-.14,2.44c-2.11-.59-2.26-.8-2.37-3.89l-1.3,2c-1-2.31-.56-3.93.87-5.16a2.38,2.38,0,0,0,.6-3.36,12.75,12.75,0,0,1-.86-2.09c-.67-2.09-1.7-3.4-4.27-3.38s-3.5-1.7-3-4.2c.39-1.94,1.86-2.69,4.24-1.95A41.07,41.07,0,0,1,89.38,41l2-2.4c-3-.74-6.46.44-8.48-3.16l2.32-3.17a18.26,18.26,0,0,1-4,.73,12.68,12.68,0,0,1-3.91-1c-.27-.11-.45-1.05-.33-1.51a13.78,13.78,0,0,1,1.17-2.34c-2.54-.21-4.85,2-7.68.7l5.8-6.27-.12-.41c-1.89.93-3.83,1.76-5.65,2.8-3.27,1.86-6.65,2.65-10.52,1.25a6.84,6.84,0,0,1,2.44-1c1.82.05,2.63-1,3.61-2.26s2.21-1.83,3.24-2.85a7.34,7.34,0,0,0,1.62-2.29,10.38,10.38,0,0,0,.76-3.9c-.42.53-.89,1-1.26,1.58-.86,1.3-1.54,2.58-3.5,2.79-.92.1-1.81,1.47-2.5,2.42a4,4,0,0,1-3.32,1.91A11.78,11.78,0,0,0,57.31,24c-1.12.49-2.21,1.07-3.31,1.61l-.43-.53c1.6-2,3.16-4.13,4.84-6.12s3.45-3.83,5.18-5.74l-.44-.56c-1.67,1.36-3.39,2.66-5,4.08-3.06,2.7-6.07,5.47-9.12,8.22-2.41-2.41.73-4.82-.3-7.08a38.32,38.32,0,0,0-2.07,4,5.21,5.21,0,0,0-.5,3.19c.5,1.58,0,2.4-1.35,3.16l-3.63-1.23c2.26,2.17,1.92,4.29.71,6.77-.84,1.7-.7,4-1.7,5.5s-3,2.63-4.49,4a25.89,25.89,0,0,0-2,2.28l.34.89a30.41,30.41,0,0,1-4.95-1.81c-1.56-.88-1.79-2.35-.47-3.81.77-.84,1.57-1.64,2.27-2.53,1-1.32,1-2.61-.73-4.22,1.21,2.77-.42,3.91-1.8,5.21-3.1,2.92-2.45,6.21,1.71,7.16,3.72.85,7.66.74,11.41,1.53A41.36,41.36,0,0,1,50.79,51c4.79,2.29,7.82,1.28,9.93-3.59a35.23,35.23,0,0,1,3.2-4.93,4.58,4.58,0,0,0-3.49,2.65,41.8,41.8,0,0,1-2.28,4.16c-1.37,2-3,2.39-5.14,1.28-3.83-2-7.73-3.66-12.38-3.65l10.26-8.27.38.28Zm3.53-10.58c-.57-.87-1.24-1.46-1.14-1.85a2,2,0,0,1,1.34-1.28c.32-.07,1.21.81,1.17,1.2C50.38,34.27,49.72,34.78,49.06,35.64Z"/><path class="cls-1" d="M61.82,54.7l2.34-1.26v3.87C65,56,65.55,55.09,66.24,54l.62,3.48.42,0a9.4,9.4,0,0,1,.27-1.28c1-3.16,3-4.1,6-3a8.66,8.66,0,0,0,3,.66c.88,0,2.31-.38,2.49-.92a4.89,4.89,0,0,0-.1-3.6,39.7,39.7,0,0,0-4.16-5l-.84.23L74.38,50c-4.45-1.66-8.32.14-11.94,2.79-.5.36-.72,1.13-1.07,1.7Z"/><path class="cls-1" d="M78.73,91.92c-.18-4.31-.18-4.31-5.06-5.81l.75,5.47-3.61,1.69L70.7,94c5-.79,4.35,4.7,7.53,6.25L79,96.8l5.32,1.7.5-.39-3.23-4,3-1.06C83.07,90.45,80.81,91.91,78.73,91.92Z"/><path class="cls-1" d="M58.08,4.65a53.44,53.44,0,1,0,53.44,53.43A53.49,53.49,0,0,0,58.08,4.65m0-4.65A58.09,58.09,0,1,1,0,58.08,58.09,58.09,0,0,1,58.08,0Z"/></g></g></g></svg>