<svg xmlns="http://www.w3.org/2000/svg" viewBox="0 0 232.3 208.29"><title>05_dragon</title><g data-name="Layer 2"><g data-name="Layer 1"><g data-name="05_dragon"><path d="M127.77,67.44c-.48-7.9,1-11.2,5.8-13,6.18-2.3,10.75-.24,16.05,7.24,1.41-7.35-2.1-10.23-13.94-11.43-2.34-12.68-8-16.94-21.05-15.84a30,30,0,0,0-22.77,12.7c-1.92,2.63-3.35,4.15-7.15,2.81-4.54-1.6-9.13-.39-13,3.05,9.3.43,18.38,1.41,27.41,1.06,5.24-.21,10.4-2.55,15.65-3.95a25,25,0,0,1-11,9.62c-5,2.13-10.81,5.4-15.45,4.4-7.13-1.53-14.19.47-21.23-1.77-9.39-3-16.09.7-20.42,10.07-.42-1.7-.72-3-1.19-4.86l-2.55,3.87L42,71.27l1.69-10.44-4.89.44c-1.52-3.82.12-6.51,3.7-7.16,4.17-.75,8.53-.57,12.81-.57,2.94,0,5.87.39,8.8.61.17-.61.33-1.22.49-1.83C62,51.5,59.46,50.15,56.85,50c-6.27-.39-12.59-.1-18.87-.37-1.73-.07-4.65-.83-4.88-1.79a12.26,12.26,0,0,1,.77-7c.19-.5,3.47.06,5.29.35,1.4.22,2.74,1.14,4.11,1.13,5.38,0,10.76-.26,16.13-.56,2.5-.13,5-.6,7.47-.91V39.25h-17c-.1-.58-.21-1.17-.32-1.75C53,33.27,58.07,32,63.14,31c3.24-.65,6.63-.57,9.93-1,6.51-.82,8.58-5.22,5.14-10.77-2.29-3.68-.79-7.61,3.55-8.25a34.24,34.24,0,0,1,9.43.06c7.65,1,14.53-.22,20.23-5.91l.93,1.38c-2.65,1.78-5.1,4.45-8,5.12-4.77,1.1-9.84.77-14.76,1.31-2.34.25-5.18.51-6.7,1.94-.79.74.42,4.19,1.36,6.1,3,6.18,2.45,8.2-4.32,13,4.76,1.6,9.71.19,15.95-3.61,4.77-2.91,9.73-5.82,15-7.58,15-5,28.09-.35,38.58,10.62,10.33,10.81,10.66,23.94,5.5,37.31C148.9,86.39,137.72,97.27,122.33,104c-13.89,6-28.72,8.13-43.47,10.75-10.62,1.89-21.22,4.09-31.62,6.94-4.49,1.23-8.82,4-12.56,6.87-17,13.21-9.35,35.58,4.08,43.8,20.34,12.44,46.8,10.14,63.89-7,6.18-6.2,11.11-13.65,16.71-20.44,6-7.29,11.47-15.26,18.41-21.57,15.89-14.47,39.12-13.2,58.43-2.72,17.35,9.41,26.93,29.59,23.72,48.41-4.79,28-35.75,46.63-60.57,36.44-9.68-4-20.29-14.09-27.51-26.3L142.46,166c3.9,5,7.37,10.32,11.62,14.88,9.36,10.06,21,11.46,31.42,4.33,9.56-6.53,14.91-17.39,12.47-26.88-3.09-12-12.11-17.9-23.46-20.58-10-2.35-18.5.38-24.77,8.74-7.47,10-14.33,20.47-22.25,30.07C113.14,193.93,95,205,71.9,206.05c-19.44.89-37.36-3.9-52.73-16.21-31-24.82-23.12-73.59,14.2-89,13.56-5.62,28-6.81,42.33-9,12.62-1.94,25.24-4.18,37.64-7.2,5.28-1.29,10-4.88,15.36-7.63-8.54-6.76-17.59-4.76-19.07,4l-4.06-4.7-2.77,4.67c-.47-1.09-1-2.18-1.76-4l-3.65,4.32c-2.39-5-.14-10.58,6.27-12.08s13.13-1.5,19.72-2.05A26.3,26.3,0,0,1,127.77,67.44Z"/><path d="M215.17,192.33c10.61-14.24,12.66-29.94,7.78-46.05C213,113.43,173.07,97.85,145,115.07c-8.38,5.14-15.78,11.87-23.79,18a66.37,66.37,0,0,1,28.92-33.16c2.89,3.82,5.37,2,8-.4,9.5-8.84,19-11.34,31.12-8.31-.05.31,0,.73-.19.9-1.61,1.46-3.27,2.88-4.92,4.31,2,1.55,3.69,3.81,5.92,4.51,4.57,1.43,9.57,1.53,14.09,3.07,6,2,11.62,5,17.41,7.49-.19.44-.37.88-.56,1.31l-8.66.85C242.3,133.86,234.53,182.9,215.17,192.33Z"/><path d="M172.85,26.68l-9.61-3.23L162,24.56c12.9,7.84,18.11,18.6,13.55,33.63l-4.73-8.11c1.35,11.19-1.85,20.75-8.42,29.82-.35-1.2-.6-2.08-1.09-3.79-6,12.7-14.43,22.35-27.74,26.92.47-.43.92-.89,1.42-1.29s1.33-1,2-1.49A67.72,67.72,0,0,0,161.39,65.8C169,42.21,157.91,23,133.64,17.57A39.5,39.5,0,0,0,107.85,20l-.95-1.42c5-4.15,9.79-8.51,15-12.32,1.68-1.22,5-2,6.57-1.23,4.57,2.3,8.18.11,12.17-1.15,8.56-2.69,16.45-1,22.38,5.64,4.34,4.84,7.5,10.73,11.19,16.15Z"/><path d="M57.51,171.62l7.3-4.06-.56-1.73a33.09,33.09,0,0,1-22.62-3.43c-10.28-5.45-11.22-17.65-2-25-.44,10.17,3.84,15.79,12,15.63,1.14,0,2.7.05,3.33-.61a36.79,36.79,0,0,0,3.57-5.23c-1.95-.93-3.82-2.24-5.87-2.66-1.18-.24-2.65.95-4,1.5.56-6.6,2.83-8,19.29-12.07-2.9-4.56-7.55-4-11.94-4.37,6.91-8.56,21.72-8.65,28.13-.34,2.37,3.08,3.45,5.67-1.23,8.25-3.22,1.78-5.86,4.88-8.28,7.79a72.68,72.68,0,0,0-9.18,14.14l25.12-13.74c-.33,14.53-6.17,24.41-14.86,24l1.35-5.9C71.45,169.38,66.45,175.63,57.51,171.62Z"/><path d="M115.31,141.85c-1.86,2.65-3.73,5.31-5.8,8.24-10.24-7.83-20.78-9.63-32.26-2.07C84.62,134.93,102.43,132.13,115.31,141.85Z"/><path d="M86.82,1.05c-2.13,2.71-4.12,5.56-6.46,8.07-1.32,1.42-3.22,2.32-4.89,3.4-6.13,4-6.37,4.61-4.38,11.8.26.95.46,1.92.75,3.18L56.47,29.58c3.13-2.13,5.4-3.66,7.65-5.2-.83-10.83.41-12.69,11.31-16.22C79.83,6.74,84,5.2,85.3,0Z"/></g></g></g></svg>