<svg xmlns="http://www.w3.org/2000/svg" viewBox="0 0 120.82 120.82"><defs><style>.cls-1{fill:#fe8d01;}</style></defs><title>07_horse</title><g id="Layer_2" data-name="Layer 2"><g id="Layer_1-2" data-name="Layer 1"><g id="_07_horse" data-name="07_horse"><path class="cls-1" d="M18.33,92c2.19-1.22,3.94-2.1,5.55-3.17.28-.18.21-1.27,0-1.79a8.82,8.82,0,0,1,.46-8.49,5.49,5.49,0,0,1,4.57-3.16c1.69-.15,3.35-.74,5-.85,4.47-.29,7.67-2.13,9.18-6.81l.7,2.42c9.25,2.75,16.61-2.45,24.52-6.16,3.47,6.68,9.28,10.26,15.5,13.49a9,9,0,0,1,3.57,4.07c1.53,3.32,2.5,6.89,3.91,10.26a68.13,68.13,0,0,0,3.29,6.07c3.19-3.17,3.29-6.34.7-9.18a7.61,7.61,0,0,1-1.44-2.62c-.62-1.77-1.1-3.58-1.62-5.38-1.15-4.06-2.71-7.86-5.92-10.82a6.36,6.36,0,0,1-2-5.94,30.7,30.7,0,0,0-.41-9.89C82.1,45.57,75,42,66.79,44.77a76.48,76.48,0,0,1-12,3.22c-4.09.68-4.9-.09-6.13-4a46.93,46.93,0,0,0-9.53-16.49c-.5-.58-1-1.18-1.47-1.77,0-.05,0-.17,0-.25,5.37-1,14.59,6.6,15.9,13.27l-2.9-1.22c2.15,4.51,7.14,5.82,12.2,2.93-5.51,1.82-7.42-1.21-8.77-5.6-.51-1.65-2.21-2.93-3.51-4.55l1-1.24L36.84,23.38c.13-1.63.28-3.54.43-5.4-4,3.05-8,5.58-11.36,8.75s-6.33,7.13-9.49,10.71c-1,1.17-1.44,2.27-.26,3.59s3,2.57,4.18,1.29c3-3.22,7.52-2.43,10.86-4.9a12.57,12.57,0,0,1,2,8.34c-.41,4.41-1,8.81-1.22,13.24a28.79,28.79,0,0,0,.77,7.56c.39,1.7.13,2.55-1.48,3.08-1.38.46-2.7,1-4.07,1.52-4.81,1.65-7.23,5-7.67,10.15-.23,2.71-.8,5.39-1.18,8.09A25.78,25.78,0,0,0,18.33,92Zm11-63.83c.74,1,1.55,1.57,1.46,2-.13.64-.9,1.14-1.4,1.7-.52-.47-1.44-.93-1.46-1.41S28.6,29.25,29.29,28.2Z"/><path class="cls-1" d="M67.38,66.13l-4,2.6c.93,2.2,1.73,4.33,2.71,6.38A10.9,10.9,0,0,1,66,85.17c-1.76,3.58-3.46,7.2-5.15,10.83-.42.9-.7,1.87-1.18,3.19a50.91,50.91,0,0,0,5.14-.31c.56-.09,1.44-.86,1.46-1.35.21-4.59,2.64-8.32,5.08-11.8,3.49-5,2.92-10.53-1.23-15.84C69.25,68.76,68.43,67.58,67.38,66.13Z"/><path class="cls-1" d="M40.23,75.11c-4.63-.3-5.4,2.62-6,6.31-1,6.25-2.53,12.4-3.87,18.71h4.44C36.67,91.56,38.45,83.34,40.23,75.11Z"/><path class="cls-1" d="M83.05,42C90.07,42,95,45.38,99,50.85c2.88,4,6.21,7.62,9.61,11.75l-5.13-.25-.36.67,6,3.46.48-.76-1.77-1.26,5.47-1.68c-5.95-3.25-9.34-8.38-12.93-13.26C96,43.61,90.28,41.07,83.05,42Z"/><path class="cls-1" d="M94.26,54.87c-.48,2.11-.92,4.06-1.47,6.5-1.21-2.34-2.18-4.24-3.16-6.14l-.39.18,4,11.68.41,0c.41-2.73.82-5.46,1.22-8.14l6.68,8.09.4-.34Z"/><path class="cls-1" d="M60.41,120.82A60.41,60.41,0,1,0,0,60.41,60.48,60.48,0,0,0,60.41,120.82Zm0-116.17A55.76,55.76,0,1,1,4.65,60.41,55.82,55.82,0,0,1,60.41,4.65Z"/></g></g></g></svg>