<svg xmlns="http://www.w3.org/2000/svg" viewBox="0 0 204.01 239.17"><title>07_horse</title><g data-name="Layer 2"><g data-name="Layer 1"><g data-name="07_horse"><path d="M140.16,208.31c-3.94-5.11-4.86-16.08-1.72-18.55,1.84-1.44,5.41-1.58,7.94-1,3.63.77,5.91-.7,8.56-2.62,8.72-6.31,13.36-14.42,12.53-25.44-.33-4.27-.05-8.59-.05-14-6.49.71-12.44.91-18.19,2.12C143,150,138,149.2,135.5,144.56c-4.58,1-8.59,2.79-12.54,2.67-10.1-.31-20.18-1.47-30.61-2.32-.5-7.7,1.11-15.7-3.78-22.64C91.23,134.64,90,146.35,83,157.09s-16.17,18-30.18,21.38c4.18,5.65,7.27,11.2,11.65,15.41,6,5.74,13,10.39,19.4,15.64,4.89,4,9.84,7.95,14.31,12.39s7,10.07,7.64,17.26c-6.93-1.78-13.67-3.2-20.14-5.39-1.63-.56-3.3-3.52-3.46-5.49C81.41,218,75.84,211,67.72,205.6,59.27,200,50.72,194.51,42.2,189c-8-5.17-8.38-6.36-4.47-14.8,6.33-13.67,9.3-27.32,4.17-42.48-2.29-6.76-2-14.85-1.18-22.13a29.56,29.56,0,0,1,29-25.92c8-.17,16,2,24,3.45,5.05.92,9.92,2.9,15,3.55,3,.38,6.14-.93,9.23-1.48-.08-.47-.16-.94-.23-1.41H105.77l7.9-17.94L109,72.09l7.69-21.62-4.38,2.24c.54-4.88,1.06-9.61,1.58-14.33l-.92.28c-.62-1.15-1.84-2.33-1.79-3.45.45-10.14,5.55-17.52,14.09-22.68a41.51,41.51,0,0,1,4-1.86l-3.62-2.55c1.89-3.66,19.27-5.94,26.45-3.34C151.51,3.06,151,1.62,150.44,0c7.14,0,12,3,14.77,10.09l3.6-4.15,5,9.69,2.94-1.22a73.08,73.08,0,0,1,2.37,8.52c1.54,10.17,1.33,20.68,6.51,30.12,1.41,2.56,1.95,5.6,2.87,8.37-7.81,4.13-10.63,3.48-15.6-2.76-1.84-2.3-3.9-4.87-6.44-6.1-7.85-3.79-12.83-9-10.94-18.72-4.21,3.75-4.53,7.65-.71,12.12,2,2.34,2.14,4.12,1.21,7-2.41,7.46,1.5,13.42,5.32,19.42s8,12,10.53,18.52c4.84,12.61,1.14,24.53-5.11,35.84-.88,1.59-1.79,3.16-2.67,4.75-.06.12,0,.33.08.67,3.37.47,6.83.77,10.2,1.48,4.09.85,6.33,3.14,5.69,7.8-1.5,10.88-2.75,21.79-4.1,32.69-.48,3.85-2.39,6.07-5.91,8.32-7.75,5-14.89,11-22,16.9C145.12,201.75,143,205,140.16,208.31Z"/><path d="M17,149.54c0-4,.67-7.31-.13-10.17C15,133,12.4,126.83,10.3,120.52c-2.24-6.77-4.45-13.6-.28-20.65l-1.56-.69L.93,110.38C-2.59,100.82,4.24,85.66,15.42,79c14-8.3,34.53-7.08,43.69,3.07-20,5.09-25.17,19.23-22.64,37.93-6.55.15-5.7,3.83-5.26,8.27.51,5.15.65,10.71-.8,15.59C28.46,150.46,22.38,152.1,17,149.54Z"/><path d="M111.43,150.16c-1.61,7-4.81,11.21-9.39,14.08-5.89,3.69-12.12,6.89-18.27,10.16-4.65,2.47-5.21,4.14-1.14,7.55,4.94,4.15,10.56,7.48,15.63,11.5,7.12,5.63,14.25,11.29,20.88,17.47,4,3.78,4.69,9.29,4.74,14.72-4.85-.61-9.4-1.22-14-1.74-3.34-.39-5.64-1.46-5.32-5.53a25.24,25.24,0,0,0-.73-6.43C102.47,204.45,99,198.81,91.29,196c-8.12-2.94-16-6.52-24-9.9-2.55-1.09-5-2.46-8.3-4.12,15.69-5.47,25.77-15.65,32.31-29.61.43-.91,1.5-2.11,2.3-2.14C99.39,150.08,105.14,150.16,111.43,150.16Z"/><path d="M169.57,128.67,175,115c8.1.29,16.1,1.26,23.44,5.11,5.68,3,6.47,5.71,4.66,11.84-2.72,9.23-5.56,18.45-7.63,27.83-1.25,5.67-3.72,8.87-9.65,9.15a38.51,38.51,0,0,0-5.68,1.14c.44-4.66-.74-9.5,5.14-11.7,1.17-.43,2.2-2.51,2.44-4,1.19-7.2,2.08-14.45,3.12-21.68.5-3.51-2.12-3.89-4.37-4C181.22,128.52,175.91,128.67,169.57,128.67Z"/><path d="M153.25,183.61c1.86-5.34,3.23-9.92,5.17-14.25.35-.77,3.07-.49,4.69-.69,0,2.28.85,5.27-.27,6.71C160.58,178.27,157.25,180.31,153.25,183.61Z"/></g></g></g></svg>