<svg xmlns="http://www.w3.org/2000/svg" viewBox="0 0 120.82 120.82"><defs><style>.cls-1{fill:#fdb201;}</style></defs><title>08_goat</title><g id="Layer_2" data-name="Layer 2"><g id="Layer_1-2" data-name="Layer 1"><g id="_08_goat" data-name="08_goat"><path class="cls-1" d="M48.28,45.84c2.72.52,5.49,1.91,7.95-.41l-4.55-1.91.24-.69a35.13,35.13,0,0,0,3.67.49c2.5.09,3.11-.86,2.11-3.2-.36-.84-.82-1.65-1.44-2.91,7.62,1.72,10.26-3.41,12.66-8.9-1,.82-2,1.64-3,2.45-4.21,3.37-6.6,2.89-9.28-1.86-.5-.89-1-1.82-1.52-2.9.16,4.24,2.44,7.23,6.87,9-2.47,1.4-4.88.93-7.1.23a8.47,8.47,0,0,1-5.49-9.45c.52-2.4,1.38-4.73,2.1-7.14C48.19,21,47.69,24.71,47,28.29c-5.91.17-5-6.13-1.35-11.46-2.56.32-3.37,2-3.76,4.05-.37,1.85-.6,3.73-.87,5.51-1.76.89-2.74.22-3.78-1.14-2.3-3-4.59-6.2-9.22-5.55,4.39,1.07,6.89,4.23,8.79,7.93C37,28,36,29,35.53,29.91c-1.5-1.82-2.75-3.46-4.13-5-2.59-2.89-4.59-3.17-8-1.26-7.68,4.27-10.46,12.7-6.92,20.88,1,2.23,2.42,3.79,5,3.91s4.29-1.37,5.54-3.89c-.43.11-.68.09-.76.21C23,49,18.62,47,17.26,42.58c-2-6.49-1.06-14.27,7.42-18.27,1.86-.88,3.5-.86,4.9.77A46.13,46.13,0,0,1,34,30.5c.52.82.09,2.24.09,3.77-3.36-2-5.4-6.21-9.59-3.21a8.28,8.28,0,0,0-3,9A34.74,34.74,0,0,1,23,34.48c1.78-3.8,4.66-4.19,7.52-1.19a8.71,8.71,0,0,1,2.59,6.44c0,10.94,1.5,21.54,6.22,31.72a43.25,43.25,0,0,1,3,25.87c-.51,3-.47,3,3.46,3.32.3-6.86.59-13.69.89-20.53l.66-.23c.29.69.85,1.38.82,2.06-.19,6.21-.33,12.42-.82,18.61-.19,2.3.46,3.28,2.61,3.41,1.94.12,3.29,0,3.45-2.76.39-6.61,1.28-13.19,2-20,11.52-.08,22.27-2.11,32-7.34,2.15,2.48,4.15,4.62,5.93,6.93a3.71,3.71,0,0,1,.47,2.71c-1,4.29-2.07,8.55-3.17,12.81-.38,1.47,0,2.51,1.61,2.43,1.46-.07,3.35.72,4-1.74,1.37-5.67,2.93-11.3,4.27-17a3.14,3.14,0,0,0-.7-2.64c-3.85-3-3.92-7.21-3.26-11.35.51-3.17,1.81-6.21,2.72-9.18a30.21,30.21,0,0,0,4.46,1.29c.66.1,1.46-.64,2.19-1a13.64,13.64,0,0,0-1.27-1.72,48.63,48.63,0,0,0-4.78-4.64,20.85,20.85,0,0,0-6-3.73c-10-3.23-19.94-2-29.81.8-3.07.86-6.13,1.85-9.25,2.41S49.55,49.27,48.28,45.84Zm-6.59-8.15c-.85-1.21-1.77-2-1.7-2.6a2.39,2.39,0,0,1,1.74-1.63,2.37,2.37,0,0,1,1.67,1.67C43.45,35.78,42.54,36.5,41.69,37.69Z"/><path class="cls-1" d="M88.25,97c1.28-4.69,2.54-9.23,3.73-13.79a1.89,1.89,0,0,0-.39-1.36c-1.43-1.93-2.92-3.82-4.58-6l-4.33,2.44C84,80,85.15,81.63,86.47,83.06a3.75,3.75,0,0,1,.73,4.46c-.71,1.65-1.27,3.38-1.87,5.08C84.11,96.09,84.24,96.29,88.25,97Z"/><path class="cls-1" d="M60.41,120.82A60.41,60.41,0,1,0,0,60.41,60.48,60.48,0,0,0,60.41,120.82Zm0-116.17A55.76,55.76,0,1,1,4.65,60.41,55.82,55.82,0,0,1,60.41,4.65Z"/></g></g></g></svg>