<svg xmlns="http://www.w3.org/2000/svg" viewBox="0 0 239.45 191.05"><title>08_goat</title><g data-name="Layer 2"><g data-name="Layer 1"><g data-name="08_goat"><path d="M215.21,92.88l-7.36-3.47c3.88,10,4.42,19.06-2.21,28.1,14,9.77,14.87,24.26,14.62,39.3-.14,8.32.5,16.64.74,25,.18,6.23-1.36,8-7.62,8.5-2.78.21-5.59,0-9.81,0,2.16-3.85,3.94-6.71,5.39-9.72,1.68-3.47,4.17-7,4.38-10.63.68-11.84-1.71-22.89-11.44-31.1-2.24-1.89-4.21-4.1-6.8-6.65v6.05c-.77-.09-1.35,0-1.69-.22-15.36-10.81-33.43-18.45-42.83-36.28-2-3.73-3.8-7.52-6.06-11.06-.72,19.9,13.75,29.92,27.09,40.68-.1.45-.19.9-.29,1.36l-20.12-1.11c-.1,1-.33,3.26-.69,6.94l-9.3-7.69c-.46,2.64-1,5.63-1.69,9.8l-9-8.15c-.3,3.12-.55,5.82-.8,8.55-10.92-2.32-13.67-6.07-25.33-32.58,1.34,8.1,2.51,16.24,4.11,24.3a65.59,65.59,0,0,0,3.7,11.9c6.33,15.37,2.74,30.76.66,46.36h-15a40.45,40.45,0,0,1,2.81-4.62c12.3-14.58,8.23-34.67-8.78-43.07-5.86-2.89-9.41-7.91-11.87-13.65-3.2-7.46-6-15.09-9.18-23.17l-10.09,3.55c1-4.89,1.94-9.62,2.89-14.36l-1.08-.46-5.72,4.38c1.43-12.21,4.19-23.85-6.38-33.27.85,3.75,1.57,6.9,2.43,10.69l-4-1.3c-.31,4.46-.61,8.7-.94,13.33l-6.45-5.56c-.49,4.9-.87,8.58-1.24,12.26l-.9.45c-.35-.73-.69-1.47-.9-1.9-2,1.53-3.51,3.29-5.43,4.05-4.94,2-6.42.72-8.56-4.18-2.35-5.41-4.83-11-8.39-15.59-8-10.41-9.57-20.84-2.77-32.38.86-1.45.67-3.8.36-5.63-2.19-13-2.3-25.83,1.31-38.57a5.11,5.11,0,0,1,1.16-2c-1.51,13.23-1.3,26.13,4.93,39.22,3.89-7.89,8-14.4,17.38-15.63-1.74,4.08-3.3,7.74-4.88,11.43,8.92.56,17.54.59,26,1.76A78.47,78.47,0,0,1,95.37,51C109.94,61.67,125,62.69,140.9,55c8.9-4.32,17.78-8.17,28.1-7.25,14.41,1.28,26.63,7.48,35.17,18.6,5.66,7.37,8.45,16.93,12.53,25.51Z"/><path d="M70.19,109.93l7.26,21.51L57.1,135.3c1.13,5.08,1.69,10.22,6,14,2.74,2.41,5.16,5.19,7.92,7.57,7.65,6.59,7.14,12.06-2.45,17.82-1.64-10.65-8.29-17.53-16.7-23.15-.9-.6-1.41-2.17-1.6-3.37-1-6.73-1.83-13.51-2.9-20.24-.71-4.52.44-7.55,5-9.44C58.19,116.13,63.71,113.1,70.19,109.93Z"/><path d="M151.84,189.65l-17.24,1c1.28-2.21,1.92-3.46,2.7-4.63,6-9.13,12.55-18,18-27.47,3.08-5.31,4.37-11.65,6.82-17.37.7-1.64,2.48-3.67,4-3.94,4.58-.77,9.38-1.41,13.92-.81,2.81.36,1.41,3-.05,4.59-4.15,4.55-8.39,9-12.39,13.71a135.94,135.94,0,0,0-8.54,11A40.62,40.62,0,0,0,151.84,189.65Z"/><path d="M192.8,52.4c8.22-1.93,15.24.42,21.61,4.6,8.3,5.46,16.33,11.34,25,17.44l-6.62,1.41,3.37,4.05-9.36-.59c-.21,4.83-2.47,6.18-6.34,3.15a20.33,20.33,0,0,1-6.18-7.59C210,64.65,205.19,55.17,192.8,52.4Z"/><path d="M6.36,52.22A84.76,84.76,0,0,1,.12,15.06c2.65,8,6.1,17.34,8.68,26.9.84,3.11-.61,6.83-1,10.27Z"/></g></g></g></svg>