<svg xmlns="http://www.w3.org/2000/svg" viewBox="0 0 242.1 195.03"><title>09_monkey</title><g data-name="Layer 2"><g data-name="Layer 1"><g data-name="09_monkey"><path d="M167,190.87c1.38-4.14,1.38-4.14,11.11-8.66-1.47-2.22-2.94-4.32-4.29-6.5-4-6.48-8.55-12.73-11.81-19.58a31.23,31.23,0,0,1-.4-26.65c3-7,6.43-13.87,9.68-20.79a7.9,7.9,0,0,0,1.07-4.93c-3.47,5-7,10.09-10.37,15-11-4.83-21.18-1.26-31.34,2.62-9,3.43-18,6.79-26.94,10.27a10.62,10.62,0,0,0-3.61,2.42c-2.42,2.51-4.75,5.13-6.94,7.85-15,18.8-34.5,22.13-56.63,16.3a74.75,74.75,0,0,0-9.68-2.3c-6.44-.82-9.56,2.23-9.87,8.72a65.21,65.21,0,0,1-1.36,8L13,172.64c-.62-3.49-1.25-7-1.92-10.74l-6,2.86c.76-2.75,1.31-4.7,1.78-6.39L0,154.66c.17-.38.34-.76.52-1.13L11,151c-.47-2.08-.85-3.72-1.17-5.14,11.33.77,22.31,1.65,33.31,2.25,16.28.89,28.39-7.53,33.31-23a5.39,5.39,0,0,0-.23-3.63c-1.81-3.71-3.88-7.29-5.68-10.61A78.1,78.1,0,0,0,62,109.7a29.87,29.87,0,0,0-6.22,1c-1.43.27-3.65,1.37-4.15.84-3.26-3.54-4.55-.14-7.5,1.21.6-2.2,1.19-4.4,1.8-6.67a6.25,6.25,0,0,1-1.4.25c-1.93,0-3.87,0-5.8-.07.16-2.8-.77-7.08.67-8.13,5.35-3.91,7.72-9.42,10.75-14.87,3.55-6.38,12.68-9,19.78-7.12a7.72,7.72,0,0,0,4.88-.44c5.71-2.7,10.9.45,10.54,6.86-.23,4.29,1.35,6.71,5.39,8.25,10.13,3.84,20.1,3.45,29.44-1.65,9.17-5,17.94-10.79,26.7-16.51C160,64,173.91,58.35,190,59.78c1.16.11,2.32.26,3.46.45s2.19.43,4.57.91c-1.47-4.19-2.17-7.79-3.89-10.8-11.55-20.27-26.7-36.23-51.1-39.89a68.23,68.23,0,0,0-18.88-.22c-16.33,2.15-29,19.42-27,35.81a17.06,17.06,0,0,0,17.41,15.29c7.12-.09,11.77-5.61,10.58-12.61-.23-1.31-1-2.63-.84-3.88a35,35,0,0,1,1.42-5.59c1.41,1.34,3.51,2.43,4.11,4.07,2.74,7.48,2.57,14.74-3.25,20.95S113.32,70,106.14,68.12c-13.49-3.44-21.8-17.88-19.25-32.5C90.16,16.83,103.58,4.28,123.9,1c45.56-7.32,85.52,25.86,86.83,72.08,5.36,22.18-6.22,37.55-20.8,51.71-1.31,1.28-2.56,2.62-3.83,4-5.51,5.77-8.21,12.73-9,20.6-1.16,11,1.63,20.43,9.92,28a23.51,23.51,0,0,1,2,2.2c4.06,4.92,2.72,9.59-3.52,10.46C179.5,190.84,173.36,190.62,167,190.87Z"/><path d="M191.5,129.57c6.05,10.22,14.31,15.59,23.15,20.49a240.29,240.29,0,0,1,23.18,14.55c4.88,3.49,5.19,6.6,2.88,11.21a8.83,8.83,0,0,1-1.7-.8c-4-3-5.58-2.2-7,2.66a54,54,0,0,1-4.68,10.24c-.44.78-2.23.81-3.41,1.19,0-1.18-.42-2.48,0-3.5,3.48-9.43.44-19.05-8.47-24-7.09-3.91-14.66-7-22-10.36-3.42-1.58-6.86-3.12-11.06-5Z"/><path d="M110.07,133.93c5.47-1.75,10-3.36,14.62-4.55a4.74,4.74,0,0,1,4,1.31c2.83,3.47,5.78,7,7.78,11a42.19,42.19,0,0,1,3.75,12.11c.8,4.91.62,10,1,14.94.72,9.1,1.22,18.36,13,21.44l-.86,1.72c-3.27.44-6.64,1.55-9.8,1.12a15.1,15.1,0,0,0-8.38.93c-3.44,1.4-7.28,1.9-11-1a20.41,20.41,0,0,1,2.08-1.81c10-6.36,12.36-12.89,8.27-24.07-4.33-11.85-12.31-21.22-21-30C112.58,136,111.53,135.21,110.07,133.93Z"/></g></g></g></svg>