<?xml version="1.0" encoding="utf-8"?>
<!-- Generator: Adobe Illustrator 24.0.1, SVG Export Plug-In . SVG Version: 6.00 Build 0)  -->
<svg version="1.1" id="Layer_1" xmlns="http://www.w3.org/2000/svg" xmlns:xlink="http://www.w3.org/1999/xlink" x="0px" y="0px"
	 viewBox="0 0 123.8 123.8" style="enable-background:new 0 0 123.8 123.8;" xml:space="preserve">
<style type="text/css">
	.st0{fill:#F9FB01;}
</style>
<g id="Layer_2_2_">
	<g id="Layer_1-2_1_">
		<g id="_09_monkey_1_">
			<path d="M79.4,91.6c4.8-4.8,6.6-10.7,7-17.1c0.7-11-2.5-20.1-12.8-25.7c-2.9-1.6-5.6-3.6-8.5-5.5l1.7-2.8c-1.3,0.6-2.6,1.1-4,1.4
				c-1.8,0.3-2.8-0.5-2.2-2.6c1.1-4.1,3.3-6.8,7.8-6.7c0.3-5.6-3.6-10-9.7-11.1c-8-1.5-12.7,0.9-15.2,7.8c1.8,0.4,3.6,0.9,5.4,1.5
				c2.9,1.1,5.9,2.5,6.7,5.9c0.7,2.8-1.2,6.4-4.8,9.2c1-3.2,3.2-5.8,2.2-8.8l-3.7,0.2L49,33.8l-1.5-0.7c-1.2,0.7-2.1,1.7-2.8,1.5
				c-0.7-0.1-1.2-1.4-2.3-2.7c-0.4,1.9-1.2,3.7-1,5.4c0.3,3.1,3.5,3,5.9,4c-2.3,1.5-4.2,0.9-6.1-0.3c-1.2,5.7,1.2,8,8.4,7.9
				c-0.2,2-0.2,4-0.6,6c-0.9,4.4-1.9,8.8-3,13.2c-0.2,0.9-0.6,1.7-1,2.4c-3.4,5.9-6.8,11.8-10.4,17.7c-0.6,1.1-1.6,1.9-2.7,2.4
				c-2.9,1-5.2,2.4-6.4,5.9c0.8,0.1,1.6,0.2,2.4,0.2c0.3,0,0.7-0.1,0.9-0.4c2.7-2.1,6.9-0.4,9.1-4.4c1.6-3,4.9-5.1,7.2-7.7
				c0.5-0.8,0.8-1.7,0.9-2.7c0.6-3.4,0.9-6.8,1.8-10.2c0.7-2.9,2.3-5.4,5.6-6c3.2-0.6,6.6,0.7,8.5,3.3c2.9,4,4.7,8.7,5,13.7
				c-1-2.4-2.2-4.8-3.5-7.1c-1.2-2-2.8-3.9-4.6-5.4c-3.1-2.5-6.3-1.6-8.2,1.9c-1.9,3.7-2.4,7.9-1.6,12c0.9,5.2,2.2,10.4,3.4,16.1
				c-1.2,0-2.6,0.2-4,0.2c-5.6-0.2-7.4,0.7-11.3,5.8c1.4,0,2.8-0.2,4.1-0.4c4.8-1.4,9.6-1.2,14.5-0.7c5.7,0.5,6.2-0.3,4.2-5.8
				c-1.1-2.9-1.7-6-2.5-9l0.8-0.2c1.1,2.7,2.1,5.4,3.4,8c0.6,0.9,1.4,1.6,2.5,1.9c3.8,0.8,7.6,1.5,11.4,2.1
				c11.7,1.8,24-7.6,25.5-19.3S98.2,60.5,91.8,51c-1.6-2.4-3.6-4.5-5.3-6.8c-2.1-2.8-1.3-4.7,2.2-5.3c4.2-0.7,5.8-2,5.6-4.5
				c-0.2-2-2.2-2.8-6.4-2.7c-3.8,0.1-6.7,1.5-8.3,5.1c-1.6,3.3-1.1,7.2,1.3,10c4.1,5.2,8.1,10.4,10.5,16.6
				c2.9,7.3,3.7,14.7,0.3,22.1c-2.2,5.1-5.9,7.3-10.6,6.7C80.5,92,80,91.9,79.4,91.6z"/>
			<path d="M63.4,123.8c33.4,0,60.4-27,60.4-60.4S96.8,3,63.4,3S3,30,3,63.4c0,0,0,0,0,0C3,96.8,30.1,123.8,63.4,123.8z M63.4,7.7
				c30.8,0,55.8,25,55.8,55.8s-25,55.8-55.8,55.8S7.7,94.2,7.7,63.4C7.7,32.6,32.6,7.7,63.4,7.7z"/>
		</g>
	</g>
</g>
<title>09_monkey</title>
<g id="Layer_2_1_">
	<g id="Layer_1-2">
		<g id="_09_monkey">
			<path class="st0" d="M76.4,88.6c4.8-4.8,6.6-10.7,7-17.1c0.7-11-2.5-20.1-12.8-25.7c-2.9-1.6-5.6-3.6-8.5-5.5l1.7-2.8
				c-1.3,0.6-2.6,1.1-4,1.4c-1.8,0.3-2.8-0.5-2.2-2.6c1.1-4.1,3.3-6.8,7.8-6.7c0.3-5.6-3.6-10-9.7-11.1c-8-1.5-12.7,0.9-15.2,7.8
				c1.8,0.4,3.6,0.9,5.4,1.5c2.9,1.1,5.9,2.5,6.7,5.9c0.7,2.8-1.2,6.4-4.8,9.2c1-3.2,3.2-5.8,2.2-8.8l-3.7,0.2L46,30.8l-1.5-0.7
				c-1.2,0.7-2.1,1.7-2.8,1.5s-1.2-1.4-2.3-2.7c-0.4,1.9-1.2,3.7-1,5.4c0.3,3.1,3.5,3,5.9,4c-2.3,1.5-4.2,0.9-6.1-0.3
				c-1.2,5.7,1.2,8,8.4,7.9c-0.2,2-0.2,4-0.6,6c-0.9,4.4-1.9,8.8-3,13.2c-0.2,0.9-0.6,1.7-1,2.4c-3.4,5.9-6.8,11.8-10.4,17.7
				c-0.6,1.1-1.6,1.9-2.7,2.4c-2.9,1-5.2,2.4-6.4,5.9c0.8,0.1,1.6,0.2,2.4,0.2c0.3,0,0.7-0.1,0.9-0.4c2.7-2.1,6.9-0.4,9.1-4.4
				c1.6-3,4.9-5.1,7.2-7.7c0.5-0.8,0.8-1.7,0.9-2.7c0.6-3.4,0.9-6.8,1.8-10.2c0.7-2.9,2.3-5.4,5.6-6c3.2-0.6,6.6,0.7,8.5,3.3
				c2.9,4,4.7,8.7,5,13.7c-1-2.4-2.2-4.8-3.5-7.1c-1.2-2-2.8-3.9-4.6-5.4c-3.1-2.5-6.3-1.6-8.2,1.9c-1.9,3.7-2.4,7.9-1.6,12
				c0.9,5.2,2.2,10.4,3.4,16.1c-1.2,0-2.6,0.2-4,0.2c-5.6-0.2-7.4,0.7-11.3,5.8c1.4,0,2.8-0.2,4.1-0.4c4.8-1.4,9.6-1.2,14.5-0.7
				c5.7,0.5,6.2-0.3,4.2-5.8c-1.1-2.9-1.7-6-2.5-9l0.8-0.2c1.1,2.7,2.1,5.4,3.4,8c0.6,0.9,1.4,1.6,2.5,1.9c3.8,0.8,7.6,1.5,11.4,2.1
				c11.7,1.8,24-7.6,25.5-19.3S95.2,57.5,88.8,48c-1.6-2.4-3.6-4.5-5.3-6.8c-2.1-2.8-1.3-4.7,2.2-5.3c4.2-0.7,5.8-2,5.6-4.5
				c-0.2-2-2.2-2.8-6.4-2.7c-3.8,0.1-6.7,1.5-8.3,5.1c-1.6,3.3-1.1,7.2,1.3,10c4.1,5.2,8.1,10.4,10.5,16.6
				c2.9,7.3,3.7,14.7,0.3,22.1c-2.2,5.1-5.9,7.3-10.6,6.7C77.5,89,77,88.9,76.4,88.6z"/>
			<path class="st0" d="M60.4,120.8c33.4,0,60.4-27,60.4-60.4S93.8,0,60.4,0S0,27,0,60.4c0,0,0,0,0,0C0,93.8,27.1,120.8,60.4,120.8z
				 M60.4,4.7c30.8,0,55.8,25,55.8,55.8s-25,55.8-55.8,55.8S4.7,91.2,4.7,60.4C4.7,29.6,29.6,4.7,60.4,4.7z"/>
		</g>
	</g>
</g>
</svg>
