<svg xmlns="http://www.w3.org/2000/svg" viewBox="0 0 120.82 120.82"><defs><style>.cls-1{fill:#f9fb01;}</style></defs><title>09_monkey</title><g id="Layer_2" data-name="Layer 2"><g id="Layer_1-2" data-name="Layer 1"><g id="_09_monkey" data-name="09_monkey"><path class="cls-1" d="M76.43,88.64c4.85-4.85,6.63-10.74,7-17.12.65-11-2.47-20.14-12.85-25.73-2.92-1.57-5.6-3.6-8.46-5.47l1.67-2.83a21.16,21.16,0,0,1-4,1.38c-1.81.26-2.76-.53-2.22-2.61,1.06-4.1,3.27-6.8,7.78-6.7.28-5.61-3.6-9.95-9.7-11.14-8-1.55-12.72.86-15.19,7.76a50.87,50.87,0,0,1,5.42,1.48c2.94,1.15,5.91,2.49,6.73,5.95.68,2.83-1.25,6.39-4.83,9.24C48.75,39.66,51,37,50,34.1l-3.73.22L46,30.78l-1.5-.68c-1.18.69-2.11,1.66-2.83,1.53s-1.23-1.38-2.27-2.69c-.4,1.92-1.22,3.74-1,5.45.32,3.12,3.46,3,5.87,4-2.29,1.5-4.2.94-6.07-.33-1.2,5.66,1.19,8,8.41,7.86-.2,2-.22,4.05-.61,6-.88,4.43-1.91,8.83-2.95,13.22A9,9,0,0,1,42,67.57c-3.42,5.9-6.83,11.81-10.36,17.65a5.69,5.69,0,0,1-2.72,2.4c-2.89,1-5.22,2.39-6.42,5.87.81.08,1.58.2,2.35.22a1.49,1.49,0,0,0,.91-.36c2.66-2.14,6.91-.42,9.12-4.42,1.64-3,4.87-5.05,7.25-7.66A5.55,5.55,0,0,0,43,78.58c.6-3.39.92-6.85,1.75-10.18.72-2.88,2.35-5.39,5.6-6a8.64,8.64,0,0,1,8.54,3.31,25.79,25.79,0,0,1,5,13.69A67.67,67.67,0,0,0,60.4,72.3a21.8,21.8,0,0,0-4.58-5.39c-3.1-2.46-6.35-1.6-8.24,1.9a18.41,18.41,0,0,0-1.59,12c.89,5.25,2.2,10.43,3.42,16.08-1.18,0-2.59.21-4,.16-5.57-.21-7.43.65-11.26,5.76a24.52,24.52,0,0,0,4.13-.43c4.77-1.41,9.61-1.18,14.46-.72,5.71.54,6.23-.26,4.21-5.78-1.07-2.91-1.67-6-2.48-9l.8-.23c1.12,2.69,2.12,5.44,3.42,8a4.11,4.11,0,0,0,2.49,1.87c3.77.84,7.58,1.54,11.41,2.13,11.66,1.79,24-7.56,25.46-19.27S95.19,57.5,88.78,48c-1.61-2.39-3.6-4.51-5.33-6.82-2.13-2.85-1.34-4.7,2.2-5.28,4.19-.7,5.79-2,5.6-4.52-.16-2-2.16-2.8-6.37-2.66-3.76.13-6.73,1.52-8.33,5.08a9.1,9.1,0,0,0,1.27,10C81.94,49,85.87,54.23,88.34,60.44c2.9,7.32,3.65,14.67.35,22.06-2.25,5.06-5.9,7.29-10.62,6.66A11.53,11.53,0,0,1,76.43,88.64Z"/><path class="cls-1" d="M60.41,120.82A60.41,60.41,0,1,0,0,60.41,60.48,60.48,0,0,0,60.41,120.82Zm0-116.17A55.76,55.76,0,1,1,4.65,60.41,55.82,55.82,0,0,1,60.41,4.65Z"/></g></g></g></svg>