<svg xmlns="http://www.w3.org/2000/svg" viewBox="0 0 120.82 120.82"><defs><style>.cls-1{fill:#c1e502;}</style></defs><title>10_rooster</title><g id="Layer_2" data-name="Layer 2"><g id="Layer_1-2" data-name="Layer 1"><g id="_10_rooster" data-name="10_rooster"><path class="cls-1" d="M82.75,64.34c-.43,4.18-.61,7.57-1.17,10.89-.38,2.28-1.65,4-4.39,3.89a2.24,2.24,0,0,0-1.61.53c-2.84,3.4-6.59,2.42-10.19,2.21-.64,0-1.46-.33-1.89,0-3.46,2.29-7.36,2.39-11.06,2.35l-5.37,9.67c-1.06,1.92-1.54,3.71.94,5,.33.18.56.57,1.28,1.34-4.86-1.8-7.84,2.16-12.06,2.49l2.43-2.78-6.24-.8v-.6c1.2-.11,2.4-.26,3.61-.33,3.2-.2,5.47-1.54,6.63-4.72.88-2.41,2.09-4.7,2.9-6.47-2.6-3.16-4.91-6.24-7.53-9a12.39,12.39,0,0,0-4.27-2.4C28,72.69,22.45,63.06,23.46,55.74a15.78,15.78,0,0,1,.52-2l2.54,7.8.58-.18L28,58.73C30.39,64.79,33,67,37.91,67l-1.4-4.85,3,1.13c-.24-1.35-.42-2.41-.62-3.57,6.23,2.37,9.82,2.86,12.83,1.64l-4.56-4,4.55.29-2.21-3.48C53,54.92,56.61,55.3,60,56.4a14.18,14.18,0,0,1,9.45,10.17c.5,1.81-.77,4.07-1.12,6.14a18.79,18.79,0,0,0,0,2.91,9,9,0,0,0,2.64-1.36A8.39,8.39,0,0,0,73,65.52c2.48,2.4,4.65,4.77,3.32,8.66a3.14,3.14,0,0,0,.88,2.89c1.55.78,2.45-.58,2.9-1.88,2.13-6.19,1.09-11.8-3.25-16.73-.76-.86-1.68-1.58-2.58-2.42,5.14-3,11.08-1.53,14.55,3.92A35.33,35.33,0,0,0,84.71,57a31.19,31.19,0,0,0-4.32-1.55l-.26.57c.59.4,1.16.82,1.76,1.2,3.85,2.39,5.35,6.2,6.27,10.35a2.67,2.67,0,0,1-.1,1.71A9.84,9.84,0,0,1,86.47,71,9.57,9.57,0,0,1,85,69.3C84.25,67.88,83.65,66.37,82.75,64.34Z"/><path class="cls-1" d="M40.06,26.15l7.72-2.73L43.46,28c2.54,1.42,5.06.54,9.91-3.85A7.08,7.08,0,0,1,49,30a52,52,0,0,1-7,1.79c1,1.53,2.05,3,3,4.54a16.59,16.59,0,0,1,2.81,9.42c0,1.07.28,2.14.35,3.21.06.86,1.11,2-.74,2.47-.28.07,0,2.11,0,3.42L44.87,54c.85,2.19,1.55,4,2.27,5.81-3.76-.21-6.8-2-9.74-5.14-.24,1.69-.42,2.92-.68,4.63l-3.66-4v7.09c-2.5-2.94-2.36-6.48-2.8-10.65l-3.17,4c-1.76-4.2-.82-7.38,3-10,1-.7,2.31-1.29,2.92-2.27a6.09,6.09,0,0,0,.6-3.55A7.88,7.88,0,0,0,32,36.24a11.67,11.67,0,0,0,.06,3.4,2.91,2.91,0,0,1-1.7,3.89,4,4,0,0,1-3.3,0,2.94,2.94,0,0,1-1-4.33C26.77,38,27.71,37,28.69,35.7c-2.47-1.85-4.82-.33-7.72-.15,1.4-2.45,2.92-4.84,4.16-7.36S27.36,23,29,20.28l1.14,4.86,5.57-7c.24,1,.61,2.42,1,4.13l6.59-3.94c1.23,3.43-2.73,4.42-3.61,6.89Zm-7.4,4.6c-.9-.68-1.41-1.34-1.95-1.38s-1.33.78-1.28,1.1A2.09,2.09,0,0,0,30.61,32C31.06,32.06,31.69,31.36,32.66,30.75Z"/><path class="cls-1" d="M58,85.86l5.53-2,1.92,2.32c-.82,2.42-1.68,4.66-2.32,7s-1.43,4.74,1.77,5.33l-9,3.67L57,99.72,51.92,99c2.81-1.6,7.33.06,7.61-4.42C59.7,91.71,62.35,88.36,58,85.86Z"/><path class="cls-1" d="M84.44,34.31c5.78-1.12,10.84-1.48,15.4,2C86.71,31.89,77.75,38.05,70.14,48c.85-3.6,4.68-8.23,8.86-11a20.27,20.27,0,0,0,3.24-2.67,23.34,23.34,0,0,1,14.47-7C92.59,29.15,88.06,30.18,84.44,34.31Z"/><path class="cls-1" d="M95,20.9c-7.7-.33-13.31,3.48-18,9-4.42,5.16-7.46,11.14-10.09,17.36a18.62,18.62,0,0,1-1.43,2.86,37.91,37.91,0,0,1,5.34-13.89c3.89-6.42,8.6-12,15.76-15A10.59,10.59,0,0,1,95,20.9Z"/><path class="cls-1" d="M76.58,47.78c6.77-5.07,14.83-3.39,22.36-4.46l.08.82-10.57.63c1.71,2,3.91,3.79,5.16,6.13s1.51,5.13,1.81,7.87c-1.49-4.06-2.43-8.38-6.25-11C85,44.89,80.79,46.26,76.58,47.78Z"/><path class="cls-1" d="M60.41,120.82a60.41,60.41,0,1,1,60.41-60.41A60.48,60.48,0,0,1,60.41,120.82Zm0-116.17a55.76,55.76,0,1,0,55.76,55.76A55.82,55.82,0,0,0,60.41,4.65Z"/></g></g></g></svg>