<svg xmlns="http://www.w3.org/2000/svg" viewBox="0 0 120.82 120.82"><defs><style>.cls-1{fill:#44ac04;}</style></defs><title>11_dog</title><g id="Layer_2" data-name="Layer 2"><g id="Layer_1-2" data-name="Layer 1"><g id="_11_dog" data-name="11_dog"><path class="cls-1" d="M37.83,72.53c3.94,2.07,6.24,4.72,6.2,8.87C44,86.62,44,91.84,43.62,97.05c-.08,1.28-1.35,2.45-1.91,3.75-.38.88-.9,2.12-.56,2.78s1.69,1,2.61,1.08c4.26.19,5.49-1.08,5.54-5.24a64.35,64.35,0,0,1,3-19.7,8.83,8.83,0,0,0-.13-4.17,25.09,25.09,0,0,1-.93-5.3,46.54,46.54,0,0,0,3,4.33,3,3,0,0,0,2.28,1,72.72,72.72,0,0,0,9.35-2.49c3.81-1.38,7.48-3.14,11.43-4.84l-1.31-4.79C80,69.21,84.18,75,88.25,80.76a4.3,4.3,0,0,1,.6,2.69c-.41,3.92,0,8-3.24,11.25a4.12,4.12,0,0,0-.45,3.56c.23.68,1.79,1.17,2.79,1.26,3.88.34,5-.39,5.61-4.24C94.3,90.22,94.73,85.11,95,80a6.58,6.58,0,0,0-1.37-4,5.46,5.46,0,0,1-.86-5.77c2.27-5.53,2.12-11.16,1-16.9a5.82,5.82,0,0,1,.33-2.91c2.78-7.51-2.46-16.35-10.23-17.15-3.81-.39-6.06,1.5-6.32,5.29a9.34,9.34,0,0,0,5.73,9.68c1.56.64,3.32.89,4-.87.38-1-.29-2.64-.89-3.79-.41-.81-1.49-1.28-2.37-2,2.54-.29,4.26.54,5.3,2.59,1,1.88,1.09,3.82-.35,5.53a4.87,4.87,0,0,1-5.61,1.38c-3-1-5-3.26-6.42-6-.72-1.34-1.57-1.9-3-1.58-4,.86-8,1.72-12,2.52-3.09.62-6.2,1.16-9.3,1.69-4,.69-6.29-2.06-8.5-4.66-.3-.35.18-2,.71-2.31a55.21,55.21,0,0,1,5.67-2.32,26.36,26.36,0,0,0,4.92-2.12,16,16,0,0,0,2.86-3.13c-2.28-.67-4.26-.89-5.85-1.8s-1.35-2.27.55-2.8A33.69,33.69,0,0,1,57.25,28l.14-.65L41.65,25.41c.35-2.54.69-4.95,1-7.35l-.82-.5Q38.94,21.31,36,25.05L35.49,25V16.37l-.76-.23a13.75,13.75,0,0,0-2.08,3c-2,6-4.24,11.92-5.81,18-1.8,7-1,14,.22,21.11,1.37,8,1.85,16.11,2.79,24.17a114.38,114.38,0,0,0,1.71,11.38C32,96,33.51,98,36.12,98a4.77,4.77,0,0,0,3.5-1.39,3.6,3.6,0,0,0-.37-3.46c-4.79-5-3.41-10.93-2.7-16.75A21.88,21.88,0,0,1,37.83,72.53Zm-.57-46.42c.91,1.48,1.84,2.32,1.73,3a2.76,2.76,0,0,1-2,1.67c-.47.07-1.59-1.09-1.6-1.71S36.3,27.56,37.26,26.11Z"/><path class="cls-1" d="M71.36,73.1c4.57,4.7,4.15,10.08,2.5,15.63-.49,1.63-.83,3.15-2.57,4.17-.83.49-1,2.14-1.42,3.26a9.84,9.84,0,0,0,2.68.86c4.65.1,5.43-.48,6.55-4.94,1.28-5.1,3.29-10.15,2.32-15.54a17.77,17.77,0,0,0-2.17-4.8A1.49,1.49,0,0,0,78,71.08c-2.13.33-4.25.79-6.38,1.2Z"/><path class="cls-1" d="M60.41,120.82A60.41,60.41,0,1,0,0,60.41,60.48,60.48,0,0,0,60.41,120.82Zm0-116.17A55.76,55.76,0,1,1,4.65,60.41,55.82,55.82,0,0,1,60.41,4.65Z"/></g></g></g></svg>