<svg xmlns="http://www.w3.org/2000/svg" viewBox="0 0 120.82 120.82"><defs><style>.cls-1{fill:#f7941e;}</style></defs><title>11_dog</title><g id="Layer_2" data-name="Layer 2"><g id="Layer_1-2" data-name="Layer 1"><path class="cls-1" d="M83,72.53c-3.93,2.07-6.24,4.72-6.2,8.87,0,5.22.09,10.44.41,15.65.09,1.28,1.36,2.45,1.91,3.75.38.88.91,2.12.56,2.78s-1.68,1-2.61,1.08c-4.25.19-5.48-1.08-5.53-5.24a64.35,64.35,0,0,0-3-19.7,8.7,8.7,0,0,1,.13-4.17,26.43,26.43,0,0,0,.93-5.3,46.54,46.54,0,0,1-3,4.33,3,3,0,0,1-2.28,1A73.3,73.3,0,0,1,55,73.14C51.2,71.76,47.53,70,43.58,68.3l1.31-4.79C40.8,69.21,36.63,75,32.57,80.76a4.3,4.3,0,0,0-.6,2.69c.41,3.92,0,8,3.23,11.25.7.7.81,2.51.46,3.56-.24.68-1.79,1.17-2.79,1.26-3.88.34-5-.39-5.61-4.24-.74-5.06-1.17-10.17-1.47-15.28a6.66,6.66,0,0,1,1.38-4A5.46,5.46,0,0,0,28,70.24c-2.27-5.53-2.12-11.16-1-16.9a5.71,5.71,0,0,0-.33-2.91c-2.77-7.51,2.47-16.35,10.23-17.15,3.81-.39,6.07,1.5,6.33,5.29a9.34,9.34,0,0,1-5.73,9.68c-1.57.64-3.33.89-4-.87-.38-1,.3-2.64.89-3.79.42-.81,1.5-1.28,2.38-2-2.54-.29-4.26.54-5.3,2.59-1,1.88-1.1,3.82.34,5.53a4.88,4.88,0,0,0,5.61,1.38c3-1,5-3.26,6.43-6,.72-1.34,1.56-1.9,3.05-1.58,4,.86,8,1.72,12,2.52,3.09.62,6.19,1.16,9.3,1.69,4,.69,6.29-2.06,8.49-4.66.31-.35-.17-2-.7-2.31a55.21,55.21,0,0,0-5.67-2.32,26.08,26.08,0,0,1-4.92-2.12,15.35,15.35,0,0,1-2.86-3.13c2.28-.67,4.26-.89,5.84-1.8s1.35-2.27-.55-2.8A33.27,33.27,0,0,0,63.57,28l-.14-.65,15.74-1.95c-.36-2.54-.69-4.95-1-7.35l.83-.5,5.82,7.49.54-.09V16.37l.75-.23a13.42,13.42,0,0,1,2.08,3c2,6,4.25,11.92,5.82,18,1.8,7,1,14-.23,21.11-1.36,8-1.84,16.11-2.79,24.17a111.5,111.5,0,0,1-1.7,11.38C88.77,96,87.31,98,84.7,98a4.77,4.77,0,0,1-3.5-1.39,3.59,3.59,0,0,1,.36-3.46c4.8-5,3.42-10.93,2.71-16.75A22,22,0,0,0,83,72.53Zm.58-46.42c-.92,1.48-1.85,2.32-1.73,3a2.75,2.75,0,0,0,1.94,1.67c.48.07,1.6-1.09,1.6-1.71S84.51,27.56,83.56,26.11Z"/><path class="cls-1" d="M49.46,73.1c-4.58,4.7-4.15,10.08-2.5,15.63.48,1.63.83,3.15,2.57,4.17.82.49,1,2.14,1.42,3.26a9.84,9.84,0,0,1-2.68.86c-4.65.1-5.43-.48-6.55-4.94C40.43,87,38.43,81.93,39.4,76.54a17.77,17.77,0,0,1,2.17-4.8,1.48,1.48,0,0,1,1.23-.66c2.14.33,4.26.79,6.38,1.2Z"/><path class="cls-1" d="M60.41,120.82a60.41,60.41,0,1,1,60.41-60.41A60.48,60.48,0,0,1,60.41,120.82Zm0-116.17a55.76,55.76,0,1,0,55.76,55.76A55.82,55.82,0,0,0,60.41,4.65Z"/></g></g></svg>