<svg xmlns="http://www.w3.org/2000/svg" viewBox="0 0 259.33 136.37"><title>12_pig</title><g data-name="Layer 2"><g data-name="Layer 1"><g data-name="12_pig"><path d="M228.65,55.22,223.16,65.8c7.21-9.8,19.2-11.08,32-2.26-13.2.65-21.87,8.15-30.71,17.81,5.93-1.6,10.25-12.3,16.47-1.61l-8.27,2.06c.42.48.65.88.75.85,6.72-2,11.09,1,15.11,6.15,1.79,2.29,5.14,3.35,7.64,4.88l-2.53,6,1.15.58Q256.4,98,258,95.79l1.29.8c-1.15,1.93-1.84,4.53-3.53,5.69-6.84,4.69-12.92.59-19.61-1.85,1.15,1.16,2.25,2.4,3.47,3.48s2.55,2,4.28,3.35c-7,3.26-13.5,4.5-20.73,3.19a50.35,50.35,0,0,0-14.75-.52c-4.79.58-8.8-.05-12.72-2.79-2.83-2-6-3.51-9.34-5.45,2.78-9,4.48-18.29-2-27.09.27,1.47.56,2.94.8,4.42,1.18,7,.89,13.79-2.85,20.28-4.41,7.66-1.45,21.09,5.38,26.53,1.92,1.53,3.73,3.2,5.71,4.92-6.41,3.17-10.55,1.28-15.54-2.08-6.48-4.36-6.42-10.7-8-16.76-1.71-6.64-3.68-13-8.74-18.18-4.53-4.65-4.12-10.93-3.86-17,.36-8.12.46-16.25.62-24.37A3.13,3.13,0,0,0,156.77,50c-1.59,10.12-4.07,20.22-4.42,30.38-.2,5.88,3,11.87,4.78,18.06-2.85.46-6.91,1-10.89,1.81s-7.94,2.08-12.73,3.37c-8.91-4.55-14.25-4.33-19,1.35-8.19-5.92-11.94-5.85-18.06-.1-3.75-1.77-7.15-4.4-10.79-4.78s-7.52,1.48-12.14,2.56L50.68,89c19.45-18.36,31-37.92,18.54-65.18.37,5.2.46,9.25,1,13.25,2.23,17.9-5.38,32.2-16.9,44.7-5.08,5.51-11.52,9.77-17.35,14.59-.25.21-.62.27-.85.49-2.1,2-3.33,19.43-1.81,22.08,3,5.24,5.81,10.59,8.69,15.89l-1.05.76-3.41-1.47c-.94.92-1.92,2.42-2.41,2.27-2.5-.74-5.19-1.52-7.19-3.08-1.2-.94-1-3.47-1.89-5-4.13-7.28-4.41-7.29-2.6-15.2,1.42-6.18,1.78-12-.85-18-.61-1.41,0-4.09,1-5.36,4-4.88,4.22-10,1.85-15.45a136,136,0,0,0-6.87-13.84C11.36,48,11.49,35.44,16.8,22.49c1-2.48,2.14-6.69,1-7.88-1.85-1.89-5.77-2.87-8.53-2.44-3.72.58-6,3.75-6.35,8.66,1.13-.92,1.63-1.66,2.24-1.77,2.45-.42,5.05-1.19,7.32-.67.82.19,1.87,4.32,1.08,5.48-1.37,2-3.94,3.46-6.28,4.54-1.36.64-3.26.12-5,.12-.94-6.09-5.91-13.59,2.81-19,7.26-4.48,13.34-.45,19.51,3.22,4.08-4.61,9.07-7.24,15.3-7.14a4.38,4.38,0,0,0,1.95-.31c13.87-7.08,28.43-5.94,43-3.18A397.55,397.55,0,0,0,145.15,9c25.81.88,49.74,9.33,69.79,26.15,6.18,5.18,10.43,12.64,15.57,19.06Z"/><path d="M39.58,98.63Q44.25,95,49.79,90.72c2,1.85,4.08,3.29,5.41,5.27a5.93,5.93,0,0,1,.56,4.9,13.89,13.89,0,0,0,3,15.48c4.61,4.41,9.08,9,13.61,13.45l-.82,1.59c-2.15-.33-4.3-.71-6.46-1-1.51-.19-3.25.18-4.52-.44a8.94,8.94,0,0,1-3.89-3.53c-2.63-5-4.55-10.35-7.43-15.15C46.6,107,43.09,103.18,39.58,98.63Z"/><path d="M154.6,102.48c-5.87,13.4,1.92,21.14,11.53,29.18-3,0-4.78.28-6.43-.06-3.25-.67-7.48-.73-9.37-2.8-2.28-2.51-2.54-6.85-3.7-10.4a81.07,81.07,0,0,0-2.85-8.43c-1.83-4-.4-5.86,3.6-6.44Z"/><path d="M243,77.88l-5.18-6.69,17-3.72.61,1.29Z"/></g></g></g></svg>