<svg xmlns="http://www.w3.org/2000/svg" viewBox="0 0 120.82 120.82"><defs><style>.cls-1{fill:#018ccc;}</style></defs><title>12_pig</title><g id="Layer_2" data-name="Layer 2"><g id="Layer_1-2" data-name="Layer 1"><g id="_12_pig" data-name="12_pig"><path class="cls-1" d="M81.75,42l-3.16.14-.21.67L88.13,46l-2.59.34-.12.51A45.94,45.94,0,0,0,91,48.94c7.36,1.72,11,7,12.89,13.67,1.57,5.55,1.87,11.13-1.61,16.26-.19.27-.37.54-.58.79a1.24,1.24,0,0,1-.4.25,9,9,0,0,1-.12-7.61c2.34-5,1.54-9.35-2.19-13.06-1.06,2.53-2.21,5.15-3.24,7.81a3.58,3.58,0,0,0,.14,1.87c.55,2.55,1.37,5.07,1.66,7.65a45.58,45.58,0,0,1,0,8c-.22,3.24-.8,6.46-1.08,9.7-.25,3-1,3.44-3.52,2.21a14.31,14.31,0,0,0-3.36-.67c.23-1.1.59-2.5.8-3.91C91,88.29,91.58,84.68,91.84,81a4.83,4.83,0,0,0-1.67-3.13c-3-2.85-6.17-5.53-9.21-8.21C76.75,70.77,72.29,71.94,67.8,73a17.61,17.61,0,0,1-3.64.32c-3.68.1-5.61,2.38-5.17,6.2.54,4.7.3,9.31-1.73,13.66a28.48,28.48,0,0,1-2.2,3.49l-5.32-2.25C51.84,87.09,54.26,79,48.86,71c-2.22,3.17-3.29,6.19-2.67,10a17.39,17.39,0,0,1-3.11,12.56c-.53.8-1.18,1.51-1.62,2.06C39.33,95.13,38.83,92,36,94c5.39-9.54,4-19.21,1.95-29,5.83-.89,11.73-1.18,14.17-7.72-1.47.91-2.91,1.9-4.43,2.72a16.77,16.77,0,0,1-14.84.92c-3.32-1.31-6.81-2.22-10.25-3.2-2.16-.62-2.56-1-2.87-3.7,3.67.19,7.33.28,11,.62,1.84.18,2.62-.15,2.77-2.18A8.35,8.35,0,0,0,30.72,45c-2.9-2.62-3-2.82-.7-5.9a8.61,8.61,0,0,0,1.82-6.71c-.32-2.42.06-4.86,2-6.64.84,2.47,1.64,4.87,2.49,7.4l6.86-2.42,1,2c.75-3.41,1.54-6.67,4.41-9L53.73,34l.74-.28L52.59,28l3.65-1.35c-.7,1.12-1.11,1.76-1.77,2.8l12.07-.65.17.63-4.52,2,11.64,4.11V36l-3.32.36-.23.75Zm-37.37.86c-1.31-1-2.09-2-2.82-2a2.68,2.68,0,0,0-1.92,1.82c0,.64,1.07,1.84,1.78,1.93S43,43.69,44.38,42.83Z"/><path class="cls-1" d="M73.37,74.22c2.27-.91,4.22-1.71,6.18-2.46a1.76,1.76,0,0,1,1.14-.13c1.7.61,3.31,5.19,2.39,6.86q-4.38,8-8.82,16a3.58,3.58,0,0,1-.49.6L68.6,93c.32-.71.75-1.87,1.34-3,1.53-2.77,3.13-5.51,4.71-8.26,1-1.78,1.62-3.5-.16-5.26A8.43,8.43,0,0,1,73.37,74.22Z"/><path class="cls-1" d="M26.63,42.65c.63,2.55,1.33,5,1.82,7.55.27,1.38-.29,2.34-2,2.21-1.37-.11-2.77.05-4.15,0s-3.4.09-3.85-.64A21.74,21.74,0,0,1,15.88,45c-.32-1.54,1.18-1.92,2.53-1.84a34,34,0,0,0,4.13.34A27.6,27.6,0,0,0,26.63,42.65Z"/><path class="cls-1" d="M60.41,120.82a60.41,60.41,0,1,1,60.41-60.41A60.48,60.48,0,0,1,60.41,120.82Zm0-116.17a55.76,55.76,0,1,0,55.76,55.76A55.82,55.82,0,0,0,60.41,4.65Z"/></g></g></g></svg>