<svg xmlns="http://www.w3.org/2000/svg" viewBox="0 0 128 128"><defs><style>.cls-1{fill:#fff;}.cls-2{fill:none;stroke:#fff;stroke-miterlimit:10;stroke-width:8px;}</style></defs><title>help</title><g id="Layer_2" data-name="Layer 2"><g id="Layer_1-2" data-name="Layer 1"><path class="cls-1" d="M55.32,75.54,55.22,73c-.29-5,1.36-10,5.72-15.23,3.11-3.68,5.63-6.79,5.63-10.09s-2.23-5.62-7.08-5.82a18.36,18.36,0,0,0-9.6,2.91l-3.3-10.57a33.23,33.23,0,0,1,16.2-4c12.8,0,18.62,7.08,18.62,15.14,0,7.37-4.56,12.22-8.24,16.29s-5,7.76-5,12.13v1.74ZM52.8,88.93c0-5.14,3.59-8.83,8.63-8.83,5.24,0,8.63,3.69,8.73,8.83a8.43,8.43,0,0,1-8.73,8.83C56.29,97.76,52.8,94,52.8,88.93Z"/><circle class="cls-2" cx="64" cy="64" r="60"/></g></g></svg>