<svg xmlns="http://www.w3.org/2000/svg" viewBox="0 0 311 81"><g data-name="Layer 2"><g data-name="Layer 1"><path d="M46 43V31l-3 12-4 12h-5l-4-12-2-12h-1v12l-1 12h-6l2-30h9l3 10 3 11 3-11 3-10h9l1 30h-6zm38 0V31l-3 12-4 12h-5l-4-12-2-12-1 12-1 12h-6l2-30h9l3 10 3 11 3-11 3-10h9l2 30h-7zm11 14l9-33h5L99 57zm17-32a61 61 0 019-1c6 0 9 1 12 4 4 2 6 6 6 11 0 6-3 10-5 12-4 3-9 4-14 4a60 60 0 01-8 0zm7 25a13 13 0 002 0c6 0 10-3 10-11 0-6-3-9-9-9a15 15 0 00-3 0zm24-25a61 61 0 019-1c6 0 10 1 13 4 3 2 5 6 5 11 0 6-2 10-5 12-3 3-8 4-14 4a60 60 0 01-8 0zm7 25a13 13 0 002 0c6 0 11-3 11-11 0-6-4-9-10-9a15 15 0 00-3 0zm22 7l10-33h4l-9 33zm24-2V43l-9-18h8l3 7 2 6 2-6 3-7h8l-10 17v13zm26 0V43l-9-18h7l4 7 2 6 2-6 3-7h8l-10 17v13zm26 0V43l-9-18h7l4 7 2 6 2-6 3-7h8l-10 17v13zm26 0V43l-9-18h7l4 7 2 6 2-6 3-7h8l-10 17v13z"/><path d="M288 81H23A23 23 0 010 58V23A23 23 0 0123 0h265a23 23 0 0123 23v35a23 23 0 01-23 23zM23 6A17 17 0 006 23v35a17 17 0 0017 17h265a17 17 0 0017-17V23a17 17 0 00-17-17z"/></g></g></svg>