<svg xmlns="http://www.w3.org/2000/svg" viewBox="0 0 311 81"><title>mmddyyyy</title><g id="Layer_2" data-name="Layer 2"><g id="Layer_1-2" data-name="Layer 1"><path d="M46.33,43.4c-.14-3.64-.27-8-.27-12.46h-.14c-.94,3.87-2.2,8.19-3.37,11.74L38.86,54.52H33.5L30.27,42.77c-1-3.55-2-7.87-2.75-11.83h-.09c-.18,4.09-.32,8.77-.54,12.55L26.35,55H20l1.93-30.33h9.13l3,10.13c1,3.51,1.9,7.29,2.57,10.84h.13c.86-3.51,1.89-7.51,2.88-10.89l3.24-10.08h9L53.48,55h-6.7Z"/><path d="M84.4,43.4c-.14-3.64-.27-8-.27-12.46H84c-.94,3.87-2.2,8.19-3.37,11.74L76.93,54.52H71.57L68.33,42.77c-1-3.55-2-7.87-2.74-11.83H65.5c-.18,4.09-.32,8.77-.54,12.55L64.42,55H58.07L60,24.68h9.13l3,10.13c1,3.51,1.89,7.29,2.57,10.84h.13c.86-3.51,1.89-7.51,2.88-10.89l3.24-10.08h9L91.55,55h-6.7Z"/><path d="M94.57,56.81l9.63-32.62h4.54L99.11,56.81Z"/><path d="M111.71,25.09a60.63,60.63,0,0,1,9.27-.63c5.76,0,9.5,1,12.42,3.24,3.15,2.34,5.13,6.07,5.13,11.43,0,5.8-2.11,9.81-5,12.28-3.19,2.66-8.05,3.92-14,3.92a60.33,60.33,0,0,1-7.79-.45Zm6.89,24.75A13,13,0,0,0,121,50c6.21.05,10.26-3.37,10.26-10.62,0-6.3-3.64-9.63-9.54-9.63a14.5,14.5,0,0,0-3.1.27Z"/><path d="M143,25.09a60.63,60.63,0,0,1,9.27-.63c5.76,0,9.5,1,12.42,3.24,3.15,2.34,5.13,6.07,5.13,11.43,0,5.8-2.11,9.81-5,12.28-3.19,2.66-8.05,3.92-14,3.92a60.33,60.33,0,0,1-7.79-.45Zm6.89,24.75a13,13,0,0,0,2.38.13c6.21.05,10.26-3.37,10.26-10.62.05-6.3-3.64-9.63-9.54-9.63a14.5,14.5,0,0,0-3.1.27Z"/><path d="M172.1,56.81l9.63-32.62h4.55l-9.63,32.62Z"/><path d="M196.27,55V42.59l-9.59-17.91h7.83L197.62,32c.94,2.21,1.57,3.83,2.34,5.81h.09c.67-1.89,1.39-3.65,2.29-5.81l3.06-7.29h7.7l-10,17.69V55Z"/><path d="M222.23,55V42.59l-9.58-17.91h7.83l3.1,7.29c.95,2.21,1.58,3.83,2.34,5.81H226c.68-1.89,1.4-3.65,2.3-5.81l3.06-7.29h7.69l-10,17.69V55Z"/><path d="M248.2,55V42.59l-9.59-17.91h7.83L249.55,32c.94,2.21,1.57,3.83,2.34,5.81H252c.67-1.89,1.39-3.65,2.29-5.81l3.06-7.29H265L255,42.37V55Z"/><path d="M274.16,55V42.59l-9.58-17.91h7.83L275.52,32c.94,2.21,1.57,3.83,2.33,5.81h.09c.68-1.89,1.4-3.65,2.3-5.81l3.06-7.29H291L281,42.37V55Z"/><path d="M288.21,81H22.79A22.81,22.81,0,0,1,0,58.21V22.79A22.81,22.81,0,0,1,22.79,0H288.21A22.81,22.81,0,0,1,311,22.79V58.21A22.81,22.81,0,0,1,288.21,81ZM22.79,6A16.81,16.81,0,0,0,6,22.79V58.21A16.81,16.81,0,0,0,22.79,75H288.21A16.81,16.81,0,0,0,305,58.21V22.79A16.81,16.81,0,0,0,288.21,6Z"/></g></g></svg>