<?xml version="1.0" encoding="utf-8"?>
<!-- Generator: Adobe Illustrator 24.0.1, SVG Export Plug-In . SVG Version: 6.00 Build 0)  -->
<svg version="1.1" id="Layer_1" xmlns="http://www.w3.org/2000/svg" xmlns:xlink="http://www.w3.org/1999/xlink" x="0px" y="0px"
	 viewBox="0 0 468 468" style="enable-background:new 0 0 468 468;" xml:space="preserve">
<title>pattern</title>
<path d="M0,394.5v3h16.5V414H0v2.9h16.5v31.6H0v3h16.5V468h3v-16.5h31.6V468H54v-16.5h16.5V468h3v-16.5H90V468h2.9v-16.5h31.6V468h3
	v-16.5h31.6V468h2.9v-16.5h16.5V468h3v-16.5H198V468h2.9v-16.5h31.6V468h3v-16.5h31.6V468h2.9v-16.5h16.5V468h3v-16.5H306V468h2.9
	v-16.5h31.6V468h3v-16.5h31.6V468h2.9v-16.5h16.5V468h3v-16.5H414V468h2.9v-16.5h31.6V468h3v-16.5H468v-3h-16.5v-31.6H468V414h-16.5
	v-16.5H468v-3h-16.5V378H468v-2.9h-16.5v-31.6H468v-3h-16.5v-31.6H468V306h-16.5v-16.5H468v-3h-16.5V270H468v-2.9h-16.5v-31.6H468
	v-3h-16.5v-31.6H468V198h-16.5v-16.5H468v-3h-16.5V162H468v-2.9h-16.5v-31.6H468v-3h-16.5V92.9H468V90h-16.5V73.5H468v-3h-16.5V54
	H468v-2.9h-16.5V19.5H468v-3h-16.5V0h-3v16.5h-31.6V0H414v16.5h-16.5V0h-3v16.5H378V0h-2.9v16.5h-31.6V0h-3v16.5h-31.6V0H306v16.5
	h-16.5V0h-3v16.5H270V0h-2.9v16.5h-31.6V0h-3v16.5h-31.6V0H198v16.5h-16.5V0h-3v16.5H162V0h-2.9v16.5h-31.6V0h-3v16.5H92.9V0H90
	v16.5H73.5V0h-3v16.5H54V0h-2.9v16.5H19.5V0h-3v16.5H0v3h16.5v31.6H0V54h16.5v16.5H0v3h16.5V90H0v2.9h16.5v31.6H0v3h16.5v31.6H0v2.9
	h16.5v16.5H0v3h16.5V198H0v2.9h16.5v31.6H0v3h16.5v31.6H0v2.9h16.5v16.5H0v3h16.5V306H0v2.9h16.5v31.6H0v3h16.5v31.6H0v2.9h16.5
	v16.5H0z M448.5,448.5h-31.6V432H432v-15.1h16.5V448.5z M416.9,429.1v-12.2h12.2v12.2H416.9z M429.1,375.1h-12.2v-12.2h12.2V375.1z
	 M448.5,414H432v-16.5h16.5V414z M448.5,394.5H432V378h16.5V394.5z M448.5,375.1H432V360h-15.1v-16.5h31.6V375.1z M448.5,340.5
	h-31.6V324H432v-15.1h16.5V340.5z M416.9,321.1v-12.2h12.2v12.2H416.9z M429.1,267.1h-12.2v-12.2h12.2V267.1z M448.5,306H432v-16.5
	h16.5V306z M448.5,286.5H432V270h16.5V286.5z M448.5,267.1H432V252h-15.1v-16.5h31.6V267.1z M448.5,232.5h-31.6V216H432v-15.1h16.5
	V232.5z M416.9,213.1v-12.2h12.2v12.2H416.9z M429.1,159.1h-12.2v-12.2h12.2V159.1z M448.5,198H432v-16.5h16.5V198z M448.5,178.5
	H432V162h16.5V178.5z M448.5,159.1H432V144h-15.1v-16.5h31.6V159.1z M448.5,124.5h-31.6V108H432V92.9h16.5V124.5z M416.9,105.1V92.9
	h12.2v12.2H416.9z M448.5,90H432V73.5h16.5V90z M448.5,70.5H432V54h16.5V70.5z M416.9,19.5h31.6v31.6H432V36h-15.1V19.5z
	 M416.9,38.9h12.2v12.2h-12.2V38.9z M397.5,19.5H414V36h-16.5V19.5z M397.5,38.9H414V54h15.1v16.5h-31.6V38.9z M397.5,73.5h31.6V90
	H414v15.1h-16.5V73.5z M397.5,108H414v16.5h-16.5V108z M397.5,127.5H414V144h-16.5V127.5z M397.5,146.9H414V162h15.1v16.5h-31.6
	V146.9z M397.5,181.5h31.6V198H414v15.1h-16.5V181.5z M397.5,216H414v16.5h-16.5V216z M397.5,235.5H414V252h-16.5V235.5z
	 M397.5,254.9H414V270h15.1v16.5h-31.6V254.9z M397.5,289.5h31.6V306H414v15.1h-16.5V289.5z M397.5,324H414v16.5h-16.5V324z
	 M397.5,343.5H414V360h-16.5V343.5z M397.5,362.9H414V378h15.1v16.5h-31.6V362.9z M397.5,397.5h31.6V414H414v15.1h-16.5V397.5z
	 M397.5,432H414v16.5h-16.5V432z M375.1,429.1h-12.2v-12.2h12.2V429.1z M394.5,448.5H378V432h16.5V448.5z M394.5,429.1H378V414
	h-15.1v-16.5h31.6V429.1z M394.5,394.5h-31.6V378H378v-15.1h16.5V394.5z M362.9,375.1v-12.2h12.2v12.2H362.9z M375.1,321.1h-12.2
	v-12.2h12.2V321.1z M394.5,360H378v-16.5h16.5V360z M394.5,340.5H378V324h16.5V340.5z M394.5,321.1H378V306h-15.1v-16.5h31.6V321.1z
	 M394.5,286.5h-31.6V270H378v-15.1h16.5V286.5z M362.9,267.1v-12.2h12.2v12.2H362.9z M375.1,213.1h-12.2v-12.2h12.2V213.1z
	 M394.5,252H378v-16.5h16.5V252z M394.5,232.5H378V216h16.5V232.5z M394.5,213.1H378V198h-15.1v-16.5h31.6V213.1z M394.5,178.5
	h-31.6V162H378v-15.1h16.5V178.5z M362.9,159.1v-12.2h12.2v12.2H362.9z M375.1,105.1h-12.2V92.9h12.2V105.1z M394.5,144H378v-16.5
	h16.5V144z M394.5,124.5H378V108h16.5V124.5z M394.5,105.1H378V90h-15.1V73.5h31.6V105.1z M378,19.5h16.5V36H378V19.5z M378,54V38.9
	h16.5v31.6h-31.6V54H378z M362.9,51.1V38.9h12.2v12.2C375.1,51.1,362.9,51.1,362.9,51.1z M343.5,19.5h31.6V36H360v15.1h-16.5V19.5z
	 M343.5,54H360v16.5h-16.5V54z M343.5,73.5H360V90h-16.5V73.5z M343.5,92.9H360V108h15.1v16.5h-31.6V92.9z M343.5,127.5h31.6V144
	H360v15.1h-16.5V127.5z M343.5,162H360v16.5h-16.5V162z M343.5,181.5H360V198h-16.5V181.5z M343.5,200.9H360V216h15.1v16.5h-31.6
	V200.9z M343.5,235.5h31.6V252H360v15.1h-16.5V235.5z M343.5,270H360v16.5h-16.5V270z M343.5,289.5H360V306h-16.5V289.5z
	 M343.5,308.9H360V324h15.1v16.5h-31.6V308.9z M343.5,343.5h31.6V360H360v15.1h-16.5V343.5z M343.5,378H360v16.5h-16.5V378z
	 M343.5,397.5H360V414h-16.5V397.5z M343.5,416.9H360V432h15.1v16.5h-31.6V416.9z M340.5,448.5h-31.6V432H324v-15.1h16.5V448.5z
	 M308.9,429.1v-12.2h12.2v12.2H308.9z M321.1,375.1h-12.2v-12.2h12.2V375.1z M340.5,414H324v-16.5h16.5V414z M340.5,394.5H324V378
	h16.5V394.5z M340.5,375.1H324V360h-15.1v-16.5h31.6V375.1z M340.5,340.5h-31.6V324H324v-15.1h16.5V340.5z M308.9,321.1v-12.2h12.2
	v12.2H308.9z M321.1,267.1h-12.2v-12.2h12.2V267.1z M340.5,306H324v-16.5h16.5V306z M340.5,286.5H324V270h16.5V286.5z M340.5,267.1
	H324V252h-15.1v-16.5h31.6V267.1z M340.5,232.5h-31.6V216H324v-15.1h16.5V232.5z M308.9,213.1v-12.2h12.2v12.2H308.9z M321.1,159.1
	h-12.2v-12.2h12.2V159.1z M340.5,198H324v-16.5h16.5V198z M340.5,178.5H324V162h16.5V178.5z M340.5,159.1H324V144h-15.1v-16.5h31.6
	V159.1z M340.5,124.5h-31.6V108H324V92.9h16.5V124.5z M308.9,105.1V92.9h12.2v12.2H308.9z M340.5,90H324V73.5h16.5V90z M340.5,70.5
	H324V54h16.5V70.5z M308.9,19.5h31.6v31.6H324V36h-15.1V19.5z M308.9,38.9h12.2v12.2h-12.2V38.9z M289.5,19.5H306V36h-16.5V19.5z
	 M289.5,38.9H306V54h15.1v16.5h-31.6V38.9z M289.5,73.5h31.6V90H306v15.1h-16.5V73.5z M289.5,108H306v16.5h-16.5V108z M289.5,127.5
	H306V144h-16.5V127.5z M289.5,146.9H306V162h15.1v16.5h-31.6V146.9z M289.5,181.5h31.6V198H306v15.1h-16.5V181.5z M289.5,216H306
	v16.5h-16.5V216z M289.5,235.5H306V252h-16.5V235.5z M289.5,254.9H306V270h15.1v16.5h-31.6V254.9z M289.5,289.5h31.6V306H306v15.1
	h-16.5V289.5z M289.5,324H306v16.5h-16.5V324z M289.5,343.5H306V360h-16.5V343.5z M289.5,362.9H306V378h15.1v16.5h-31.6V362.9z
	 M289.5,397.5h31.6V414H306v15.1h-16.5V397.5z M289.5,432H306v16.5h-16.5V432z M267.1,429.1h-12.2v-12.2h12.2V429.1z M286.5,448.5
	H270V432h16.5V448.5z M286.5,429.1H270V414h-15.1v-16.5h31.6V429.1z M286.5,394.5h-31.6V378H270v-15.1h16.5V394.5z M254.9,375.1
	v-12.2h12.2v12.2H254.9z M267.1,321.1h-12.2v-12.2h12.2V321.1z M286.5,360H270v-16.5h16.5V360z M286.5,340.5H270V324h16.5V340.5z
	 M286.5,321.1H270V306h-15.1v-16.5h31.6V321.1z M286.5,286.5h-31.6V270H270v-15.1h16.5V286.5z M254.9,267.1v-12.2h12.2v12.2H254.9z
	 M267.1,213.1h-12.2v-12.2h12.2V213.1z M286.5,252H270v-16.5h16.5V252z M286.5,232.5H270V216h16.5V232.5z M286.5,213.1H270V198
	h-15.1v-16.5h31.6V213.1z M286.5,178.5h-31.6V162H270v-15.1h16.5V178.5z M254.9,159.1v-12.2h12.2v12.2H254.9z M267.1,105.1h-12.2
	V92.9h12.2V105.1z M286.5,144H270v-16.5h16.5V144z M286.5,124.5H270V108h16.5V124.5z M286.5,105.1H270V90h-15.1V73.5h31.6V105.1z
	 M270,19.5h16.5V36H270V19.5z M270,54V38.9h16.5v31.6h-31.6V54H270z M254.9,51.1V38.9h12.2v12.2C267.1,51.1,254.9,51.1,254.9,51.1z
	 M235.5,19.5h31.6V36H252v15.1h-16.5V19.5z M235.5,54H252v16.5h-16.5V54z M235.5,73.5H252V90h-16.5V73.5z M235.5,92.9H252V108h15.1
	v16.5h-31.6V92.9z M235.5,127.5h31.6V144H252v15.1h-16.5V127.5z M235.5,162H252v16.5h-16.5V162z M235.5,181.5H252V198h-16.5V181.5z
	 M235.5,200.9H252V216h15.1v16.5h-31.6V200.9z M235.5,235.5h31.6V252H252v15.1h-16.5V235.5z M235.5,270H252v16.5h-16.5V270z
	 M235.5,289.5H252V306h-16.5V289.5z M235.5,308.9H252V324h15.1v16.5h-31.6V308.9z M235.5,343.5h31.6V360H252v15.1h-16.5V343.5z
	 M235.5,378H252v16.5h-16.5V378z M235.5,397.5H252V414h-16.5V397.5z M235.5,416.9H252V432h15.1v16.5h-31.6V416.9z M232.5,448.5
	h-31.6V432H216v-15.1h16.5V448.5z M200.9,429.1v-12.2h12.2v12.2H200.9z M213.1,375.1h-12.2v-12.2h12.2V375.1z M232.5,414H216v-16.5
	h16.5V414z M232.5,394.5H216V378h16.5V394.5z M232.5,375.1H216V360h-15.1v-16.5h31.6V375.1z M232.5,340.5h-31.6V324H216v-15.1h16.5
	V340.5z M200.9,321.1v-12.2h12.2v12.2H200.9z M213.1,267.1h-12.2v-12.2h12.2V267.1z M232.5,306H216v-16.5h16.5V306z M232.5,286.5
	H216V270h16.5V286.5z M232.5,267.1H216V252h-15.1v-16.5h31.6V267.1z M232.5,232.5h-31.6V216H216v-15.1h16.5V232.5z M200.9,213.1
	v-12.2h12.2v12.2H200.9z M213.1,159.1h-12.2v-12.2h12.2V159.1z M232.5,198H216v-16.5h16.5V198z M232.5,178.5H216V162h16.5V178.5z
	 M232.5,159.1H216V144h-15.1v-16.5h31.6V159.1z M232.5,124.5h-31.6V108H216V92.9h16.5V124.5z M200.9,105.1V92.9h12.2v12.2H200.9z
	 M232.5,90H216V73.5h16.5V90z M232.5,70.5H216V54h16.5V70.5z M200.9,19.5h31.6v31.6H216V36h-15.1V19.5z M200.9,38.9h12.2v12.2h-12.2
	V38.9z M181.5,19.5H198V36h-16.5V19.5z M181.5,38.9H198V54h15.1v16.5h-31.6V38.9z M181.5,73.5h31.6V90H198v15.1h-16.5V73.5z
	 M181.5,108H198v16.5h-16.5V108z M181.5,127.5H198V144h-16.5V127.5z M181.5,146.9H198V162h15.1v16.5h-31.6V146.9z M181.5,181.5h31.6
	V198H198v15.1h-16.5V181.5z M181.5,216H198v16.5h-16.5V216z M181.5,235.5H198V252h-16.5V235.5z M181.5,254.9H198V270h15.1v16.5
	h-31.6V254.9z M181.5,289.5h31.6V306H198v15.1h-16.5V289.5z M181.5,324H198v16.5h-16.5V324z M181.5,343.5H198V360h-16.5V343.5z
	 M181.5,362.9H198V378h15.1v16.5h-31.6V362.9z M181.5,397.5h31.6V414H198v15.1h-16.5V397.5z M181.5,432H198v16.5h-16.5V432z
	 M159.1,429.1h-12.2v-12.2h12.2V429.1z M178.5,448.5H162V432h16.5V448.5z M178.5,429.1H162V414h-15.1v-16.5h31.6V429.1z
	 M178.5,394.5h-31.6V378H162v-15.1h16.5V394.5z M146.9,375.1v-12.2h12.2v12.2H146.9z M159.1,321.1h-12.2v-12.2h12.2V321.1z
	 M178.5,360H162v-16.5h16.5V360z M178.5,340.5H162V324h16.5V340.5z M178.5,321.1H162V306h-15.1v-16.5h31.6V321.1z M178.5,286.5
	h-31.6V270H162v-15.1h16.5V286.5z M146.9,267.1v-12.2h12.2v12.2H146.9z M159.1,213.1h-12.2v-12.2h12.2V213.1z M178.5,252H162v-16.5
	h16.5V252z M178.5,232.5H162V216h16.5V232.5z M178.5,213.1H162V198h-15.1v-16.5h31.6V213.1z M178.5,178.5h-31.6V162H162v-15.1h16.5
	V178.5z M146.9,159.1v-12.2h12.2v12.2H146.9z M159.1,105.1h-12.2V92.9h12.2V105.1z M178.5,144H162v-16.5h16.5V144z M178.5,124.5H162
	V108h16.5V124.5z M178.5,105.1H162V90h-15.1V73.5h31.6V105.1z M162,19.5h16.5V36H162V19.5z M162,54V38.9h16.5v31.6h-31.6V54H162z
	 M146.9,51.1V38.9h12.2v12.2C159.1,51.1,146.9,51.1,146.9,51.1z M127.5,19.5h31.6V36H144v15.1h-16.5V19.5z M127.5,54H144v16.5h-16.5
	V54z M127.5,73.5H144V90h-16.5V73.5z M127.5,92.9H144V108h15.1v16.5h-31.6C127.5,124.5,127.5,92.9,127.5,92.9z M127.5,127.5h31.6
	V144H144v15.1h-16.5V127.5z M127.5,162H144v16.5h-16.5V162z M127.5,181.5H144V198h-16.5V181.5z M127.5,200.9H144V216h15.1v16.5
	h-31.6C127.5,232.5,127.5,200.9,127.5,200.9z M127.5,235.5h31.6V252H144v15.1h-16.5V235.5z M127.5,270H144v16.5h-16.5V270z
	 M127.5,289.5H144V306h-16.5V289.5z M127.5,308.9H144V324h15.1v16.5h-31.6C127.5,340.5,127.5,308.9,127.5,308.9z M127.5,343.5h31.6
	V360H144v15.1h-16.5V343.5z M127.5,378H144v16.5h-16.5V378z M127.5,397.5H144V414h-16.5V397.5z M127.5,416.9H144V432h15.1v16.5
	h-31.6C127.5,448.5,127.5,416.9,127.5,416.9z M124.5,448.5H92.9V432H108v-15.1h16.5V448.5z M92.9,429.1v-12.2h12.2v12.2H92.9z
	 M105.1,375.1H92.9v-12.2h12.2V375.1z M124.5,414H108v-16.5h16.5V414z M124.5,394.5H108V378h16.5V394.5z M124.5,375.1H108V360H92.9
	v-16.5h31.6V375.1z M124.5,340.5H92.9V324H108v-15.1h16.5V340.5z M92.9,321.1v-12.2h12.2v12.2H92.9z M105.1,267.1H92.9v-12.2h12.2
	V267.1z M124.5,306H108v-16.5h16.5V306z M124.5,286.5H108V270h16.5V286.5z M124.5,267.1H108V252H92.9v-16.5h31.6V267.1z
	 M124.5,232.5H92.9V216H108v-15.1h16.5V232.5z M92.9,213.1v-12.2h12.2v12.2H92.9z M105.1,159.1H92.9v-12.2h12.2V159.1z M124.5,198
	H108v-16.5h16.5V198z M124.5,178.5H108V162h16.5V178.5z M124.5,159.1H108V144H92.9v-16.5h31.6V159.1z M124.5,124.5H92.9V108H108
	V92.9h16.5V124.5z M92.9,105.1V92.9h12.2v12.2H92.9z M124.5,90H108V73.5h16.5V90z M124.5,70.5H108V54h16.5V70.5z M92.9,19.5h31.6
	v31.6H108V36H92.9V19.5z M92.9,38.9h12.2v12.2H92.9V38.9z M73.5,19.5H90V36H73.5V19.5z M73.5,38.9H90V54h15.1v16.5H73.5V38.9z
	 M73.5,73.5h31.6V90H90v15.1H73.5V73.5z M73.5,108H90v16.5H73.5V108z M73.5,127.5H90V144H73.5V127.5z M73.5,146.9H90V162h15.1v16.5
	H73.5V146.9z M73.5,181.5h31.6V198H90v15.1H73.5V181.5z M73.5,216H90v16.5H73.5V216z M73.5,235.5H90V252H73.5V235.5z M73.5,254.9H90
	V270h15.1v16.5H73.5V254.9z M73.5,289.5h31.6V306H90v15.1H73.5V289.5z M73.5,324H90v16.5H73.5V324z M73.5,343.5H90V360H73.5V343.5z
	 M73.5,362.9H90V378h15.1v16.5H73.5V362.9z M73.5,397.5h31.6V414H90v15.1H73.5V397.5z M73.5,432H90v16.5H73.5V432z M51.1,429.1H38.9
	v-12.2h12.2C51.1,416.9,51.1,429.1,51.1,429.1z M70.5,448.5H54V432h16.5V448.5z M70.5,429.1H54V414H38.9v-16.5h31.6V429.1z
	 M70.5,394.5H38.9V378H54v-15.1h16.5V394.5z M38.9,375.1v-12.2h12.2v12.2H38.9z M51.1,321.1H38.9v-12.2h12.2
	C51.1,308.9,51.1,321.1,51.1,321.1z M70.5,360H54v-16.5h16.5V360z M70.5,340.5H54V324h16.5V340.5z M70.5,321.1H54V306H38.9v-16.5
	h31.6V321.1z M70.5,286.5H38.9V270H54v-15.1h16.5V286.5z M38.9,267.1v-12.2h12.2v12.2H38.9z M51.1,213.1H38.9v-12.2h12.2
	C51.1,200.9,51.1,213.1,51.1,213.1z M70.5,252H54v-16.5h16.5V252z M70.5,232.5H54V216h16.5V232.5z M70.5,213.1H54V198H38.9v-16.5
	h31.6V213.1z M70.5,178.5H38.9V162H54v-15.1h16.5V178.5z M38.9,159.1v-12.2h12.2v12.2H38.9z M51.1,105.1H38.9V92.9h12.2
	C51.1,92.9,51.1,105.1,51.1,105.1z M70.5,144H54v-16.5h16.5V144z M70.5,124.5H54V108h16.5V124.5z M70.5,105.1H54V90H38.9V73.5h31.6
	V105.1z M54,19.5h16.5V36H54V19.5z M54,54V38.9h16.5v31.6H38.9V54H54z M38.9,51.1V38.9h12.2v12.2C51.1,51.1,38.9,51.1,38.9,51.1z
	 M19.5,19.5h31.6V36H36v15.1H19.5V19.5z M19.5,54H36v16.5H19.5V54z M19.5,73.5H36V90H19.5V73.5z M19.5,92.9H36V108h15.1v16.5H19.5
	V92.9z M19.5,127.5h31.6V144H36v15.1H19.5V127.5z M19.5,162H36v16.5H19.5V162z M19.5,181.5H36V198H19.5V181.5z M19.5,200.9H36V216
	h15.1v16.5H19.5V200.9z M19.5,235.5h31.6V252H36v15.1H19.5V235.5z M19.5,270H36v16.5H19.5V270z M19.5,289.5H36V306H19.5V289.5z
	 M19.5,308.9H36V324h15.1v16.5H19.5V308.9z M19.5,343.5h31.6V360H36v15.1H19.5V343.5z M19.5,378H36v16.5H19.5V378z M19.5,397.5H36
	V414H19.5V397.5z M19.5,416.9H36V432h15.1v16.5H19.5V416.9z"/>
</svg>
