<svg xmlns="http://www.w3.org/2000/svg" viewBox="0 0 468 468"><path d="M0 394.5v3h16.5V414H0v2.9h16.5v31.6H0v3h16.5V468h3v-16.5h31.6V468H54v-16.5h16.5V468h3v-16.5H90V468h2.9v-16.5h31.6V468h3v-16.5h31.6V468h2.9v-16.5h16.5V468h3v-16.5H198V468h2.9v-16.5h31.6V468h3v-16.5h31.6V468h2.9v-16.5h16.5V468h3v-16.5H306V468h2.9v-16.5h31.6V468h3v-16.5h31.6V468h2.9v-16.5h16.5V468h3v-16.5H414V468h2.9v-16.5h31.6V468h3v-16.5H468v-3h-16.5v-31.6H468V414h-16.5v-16.5H468v-3h-16.5V378H468v-2.9h-16.5v-31.6H468v-3h-16.5v-31.6H468V306h-16.5v-16.5H468v-3h-16.5V270H468v-2.9h-16.5v-31.6H468v-3h-16.5v-31.6H468V198h-16.5v-16.5H468v-3h-16.5V162H468v-2.9h-16.5v-31.6H468v-3h-16.5V92.9H468V90h-16.5V73.5H468v-3h-16.5V54H468v-2.9h-16.5V19.5H468v-3h-16.5V0h-3v16.5h-31.6V0H414v16.5h-16.5V0h-3v16.5H378V0h-2.9v16.5h-31.6V0h-3v16.5h-31.6V0H306v16.5h-16.5V0h-3v16.5H270V0h-2.9v16.5h-31.6V0h-3v16.5h-31.6V0H198v16.5h-16.5V0h-3v16.5H162V0h-2.9v16.5h-31.6V0h-3v16.5H92.9V0H90v16.5H73.5V0h-3v16.5H54V0h-2.9v16.5H19.5V0h-3v16.5H0v3h16.5v31.6H0V54h16.5v16.5H0v3h16.5V90H0v2.9h16.5v31.6H0v3h16.5v31.6H0v2.9h16.5v16.5H0v3h16.5V198H0v2.9h16.5v31.6H0v3h16.5v31.6H0v2.9h16.5v16.5H0v3h16.5V306H0v2.9h16.5v31.6H0v3h16.5v31.6H0v2.9h16.5v16.5H0zm448.5 54h-31.6V432H432v-15.1h16.5v31.6zm-31.6-19.4v-12.2h12.2v12.2h-12.2zm12.2-54h-12.2v-12.2h12.2v12.2zm19.4 38.9H432v-16.5h16.5V414zm0-19.5H432V378h16.5v16.5zm0-19.4H432V360h-15.1v-16.5h31.6v31.6zm0-34.6h-31.6V324H432v-15.1h16.5v31.6zm-31.6-19.4v-12.2h12.2v12.2h-12.2zm12.2-54h-12.2v-12.2h12.2v12.2zm19.4 38.9H432v-16.5h16.5V306zm0-19.5H432V270h16.5v16.5zm0-19.4H432V252h-15.1v-16.5h31.6v31.6zm0-34.6h-31.6V216H432v-15.1h16.5v31.6zm-31.6-19.4v-12.2h12.2v12.2h-12.2zm12.2-54h-12.2v-12.2h12.2v12.2zm19.4 38.9H432v-16.5h16.5V198zm0-19.5H432V162h16.5v16.5zm0-19.4H432V144h-15.1v-16.5h31.6v31.6zm0-34.6h-31.6V108H432V92.9h16.5v31.6zm-31.6-19.4V92.9h12.2v12.2h-12.2zM448.5 90H432V73.5h16.5V90zm0-19.5H432V54h16.5v16.5zm-31.6-51h31.6v31.6H432V36h-15.1V19.5zm0 19.4h12.2v12.2h-12.2V38.9zm-19.4-19.4H414V36h-16.5V19.5zm0 19.4H414V54h15.1v16.5h-31.6V38.9zm0 34.6h31.6V90H414v15.1h-16.5V73.5zm0 34.5H414v16.5h-16.5V108zm0 19.5H414V144h-16.5v-16.5zm0 19.4H414V162h15.1v16.5h-31.6v-31.6zm0 34.6h31.6V198H414v15.1h-16.5v-31.6zm0 34.5H414v16.5h-16.5V216zm0 19.5H414V252h-16.5v-16.5zm0 19.4H414V270h15.1v16.5h-31.6v-31.6zm0 34.6h31.6V306H414v15.1h-16.5v-31.6zm0 34.5H414v16.5h-16.5V324zm0 19.5H414V360h-16.5v-16.5zm0 19.4H414V378h15.1v16.5h-31.6v-31.6zm0 34.6h31.6V414H414v15.1h-16.5v-31.6zm0 34.5H414v16.5h-16.5V432zm-22.4-2.9h-12.2v-12.2h12.2v12.2zm19.4 19.4H378V432h16.5v16.5zm0-19.4H378V414h-15.1v-16.5h31.6v31.6zm0-34.6h-31.6V378H378v-15.1h16.5v31.6zm-31.6-19.4v-12.2h12.2v12.2h-12.2zm12.2-54h-12.2v-12.2h12.2v12.2zm19.4 38.9H378v-16.5h16.5V360zm0-19.5H378V324h16.5v16.5zm0-19.4H378V306h-15.1v-16.5h31.6v31.6zm0-34.6h-31.6V270H378v-15.1h16.5v31.6zm-31.6-19.4v-12.2h12.2v12.2h-12.2zm12.2-54h-12.2v-12.2h12.2v12.2zm19.4 38.9H378v-16.5h16.5V252zm0-19.5H378V216h16.5v16.5zm0-19.4H378V198h-15.1v-16.5h31.6v31.6zm0-34.6h-31.6V162H378v-15.1h16.5v31.6zm-31.6-19.4v-12.2h12.2v12.2h-12.2zm12.2-54h-12.2V92.9h12.2v12.2zm19.4 38.9H378v-16.5h16.5V144zm0-19.5H378V108h16.5v16.5zm0-19.4H378V90h-15.1V73.5h31.6v31.6zM378 19.5h16.5V36H378V19.5zm0 34.5V38.9h16.5v31.6h-31.6V54H378zm-15.1-2.9V38.9h12.2v12.2h-12.2zm-19.4-31.6h31.6V36H360v15.1h-16.5V19.5zm0 34.5H360v16.5h-16.5V54zm0 19.5H360V90h-16.5V73.5zm0 19.4H360V108h15.1v16.5h-31.6V92.9zm0 34.6h31.6V144H360v15.1h-16.5v-31.6zm0 34.5H360v16.5h-16.5V162zm0 19.5H360V198h-16.5v-16.5zm0 19.4H360V216h15.1v16.5h-31.6v-31.6zm0 34.6h31.6V252H360v15.1h-16.5v-31.6zm0 34.5H360v16.5h-16.5V270zm0 19.5H360V306h-16.5v-16.5zm0 19.4H360V324h15.1v16.5h-31.6v-31.6zm0 34.6h31.6V360H360v15.1h-16.5v-31.6zm0 34.5H360v16.5h-16.5V378zm0 19.5H360V414h-16.5v-16.5zm0 19.4H360V432h15.1v16.5h-31.6v-31.6zm-3 31.6h-31.6V432H324v-15.1h16.5v31.6zm-31.6-19.4v-12.2h12.2v12.2h-12.2zm12.2-54h-12.2v-12.2h12.2v12.2zm19.4 38.9H324v-16.5h16.5V414zm0-19.5H324V378h16.5v16.5zm0-19.4H324V360h-15.1v-16.5h31.6v31.6zm0-34.6h-31.6V324H324v-15.1h16.5v31.6zm-31.6-19.4v-12.2h12.2v12.2h-12.2zm12.2-54h-12.2v-12.2h12.2v12.2zm19.4 38.9H324v-16.5h16.5V306zm0-19.5H324V270h16.5v16.5zm0-19.4H324V252h-15.1v-16.5h31.6v31.6zm0-34.6h-31.6V216H324v-15.1h16.5v31.6zm-31.6-19.4v-12.2h12.2v12.2h-12.2zm12.2-54h-12.2v-12.2h12.2v12.2zm19.4 38.9H324v-16.5h16.5V198zm0-19.5H324V162h16.5v16.5zm0-19.4H324V144h-15.1v-16.5h31.6v31.6zm0-34.6h-31.6V108H324V92.9h16.5v31.6zm-31.6-19.4V92.9h12.2v12.2h-12.2zM340.5 90H324V73.5h16.5V90zm0-19.5H324V54h16.5v16.5zm-31.6-51h31.6v31.6H324V36h-15.1V19.5zm0 19.4h12.2v12.2h-12.2V38.9zm-19.4-19.4H306V36h-16.5V19.5zm0 19.4H306V54h15.1v16.5h-31.6V38.9zm0 34.6h31.6V90H306v15.1h-16.5V73.5zm0 34.5H306v16.5h-16.5V108zm0 19.5H306V144h-16.5v-16.5zm0 19.4H306V162h15.1v16.5h-31.6v-31.6zm0 34.6h31.6V198H306v15.1h-16.5v-31.6zm0 34.5H306v16.5h-16.5V216zm0 19.5H306V252h-16.5v-16.5zm0 19.4H306V270h15.1v16.5h-31.6v-31.6zm0 34.6h31.6V306H306v15.1h-16.5v-31.6zm0 34.5H306v16.5h-16.5V324zm0 19.5H306V360h-16.5v-16.5zm0 19.4H306V378h15.1v16.5h-31.6v-31.6zm0 34.6h31.6V414H306v15.1h-16.5v-31.6zm0 34.5H306v16.5h-16.5V432zm-22.4-2.9h-12.2v-12.2h12.2v12.2zm19.4 19.4H270V432h16.5v16.5zm0-19.4H270V414h-15.1v-16.5h31.6v31.6zm0-34.6h-31.6V378H270v-15.1h16.5v31.6zm-31.6-19.4v-12.2h12.2v12.2h-12.2zm12.2-54h-12.2v-12.2h12.2v12.2zm19.4 38.9H270v-16.5h16.5V360zm0-19.5H270V324h16.5v16.5zm0-19.4H270V306h-15.1v-16.5h31.6v31.6zm0-34.6h-31.6V270H270v-15.1h16.5v31.6zm-31.6-19.4v-12.2h12.2v12.2h-12.2zm12.2-54h-12.2v-12.2h12.2v12.2zm19.4 38.9H270v-16.5h16.5V252zm0-19.5H270V216h16.5v16.5zm0-19.4H270V198h-15.1v-16.5h31.6v31.6zm0-34.6h-31.6V162H270v-15.1h16.5v31.6zm-31.6-19.4v-12.2h12.2v12.2h-12.2zm12.2-54h-12.2V92.9h12.2v12.2zm19.4 38.9H270v-16.5h16.5V144zm0-19.5H270V108h16.5v16.5zm0-19.4H270V90h-15.1V73.5h31.6v31.6zM270 19.5h16.5V36H270V19.5zm0 34.5V38.9h16.5v31.6h-31.6V54H270zm-15.1-2.9V38.9h12.2v12.2h-12.2zm-19.4-31.6h31.6V36H252v15.1h-16.5V19.5zm0 34.5H252v16.5h-16.5V54zm0 19.5H252V90h-16.5V73.5zm0 19.4H252V108h15.1v16.5h-31.6V92.9zm0 34.6h31.6V144H252v15.1h-16.5v-31.6zm0 34.5H252v16.5h-16.5V162zm0 19.5H252V198h-16.5v-16.5zm0 19.4H252V216h15.1v16.5h-31.6v-31.6zm0 34.6h31.6V252H252v15.1h-16.5v-31.6zm0 34.5H252v16.5h-16.5V270zm0 19.5H252V306h-16.5v-16.5zm0 19.4H252V324h15.1v16.5h-31.6v-31.6zm0 34.6h31.6V360H252v15.1h-16.5v-31.6zm0 34.5H252v16.5h-16.5V378zm0 19.5H252V414h-16.5v-16.5zm0 19.4H252V432h15.1v16.5h-31.6v-31.6zm-3 31.6h-31.6V432H216v-15.1h16.5v31.6zm-31.6-19.4v-12.2h12.2v12.2h-12.2zm12.2-54h-12.2v-12.2h12.2v12.2zm19.4 38.9H216v-16.5h16.5V414zm0-19.5H216V378h16.5v16.5zm0-19.4H216V360h-15.1v-16.5h31.6v31.6zm0-34.6h-31.6V324H216v-15.1h16.5v31.6zm-31.6-19.4v-12.2h12.2v12.2h-12.2zm12.2-54h-12.2v-12.2h12.2v12.2zm19.4 38.9H216v-16.5h16.5V306zm0-19.5H216V270h16.5v16.5zm0-19.4H216V252h-15.1v-16.5h31.6v31.6zm0-34.6h-31.6V216H216v-15.1h16.5v31.6zm-31.6-19.4v-12.2h12.2v12.2h-12.2zm12.2-54h-12.2v-12.2h12.2v12.2zm19.4 38.9H216v-16.5h16.5V198zm0-19.5H216V162h16.5v16.5zm0-19.4H216V144h-15.1v-16.5h31.6v31.6zm0-34.6h-31.6V108H216V92.9h16.5v31.6zm-31.6-19.4V92.9h12.2v12.2h-12.2zM232.5 90H216V73.5h16.5V90zm0-19.5H216V54h16.5v16.5zm-31.6-51h31.6v31.6H216V36h-15.1V19.5zm0 19.4h12.2v12.2h-12.2V38.9zm-19.4-19.4H198V36h-16.5V19.5zm0 19.4H198V54h15.1v16.5h-31.6V38.9zm0 34.6h31.6V90H198v15.1h-16.5V73.5zm0 34.5H198v16.5h-16.5V108zm0 19.5H198V144h-16.5v-16.5zm0 19.4H198V162h15.1v16.5h-31.6v-31.6zm0 34.6h31.6V198H198v15.1h-16.5v-31.6zm0 34.5H198v16.5h-16.5V216zm0 19.5H198V252h-16.5v-16.5zm0 19.4H198V270h15.1v16.5h-31.6v-31.6zm0 34.6h31.6V306H198v15.1h-16.5v-31.6zm0 34.5H198v16.5h-16.5V324zm0 19.5H198V360h-16.5v-16.5zm0 19.4H198V378h15.1v16.5h-31.6v-31.6zm0 34.6h31.6V414H198v15.1h-16.5v-31.6zm0 34.5H198v16.5h-16.5V432zm-22.4-2.9h-12.2v-12.2h12.2v12.2zm19.4 19.4H162V432h16.5v16.5zm0-19.4H162V414h-15.1v-16.5h31.6v31.6zm0-34.6h-31.6V378H162v-15.1h16.5v31.6zm-31.6-19.4v-12.2h12.2v12.2h-12.2zm12.2-54h-12.2v-12.2h12.2v12.2zm19.4 38.9H162v-16.5h16.5V360zm0-19.5H162V324h16.5v16.5zm0-19.4H162V306h-15.1v-16.5h31.6v31.6zm0-34.6h-31.6V270H162v-15.1h16.5v31.6zm-31.6-19.4v-12.2h12.2v12.2h-12.2zm12.2-54h-12.2v-12.2h12.2v12.2zm19.4 38.9H162v-16.5h16.5V252zm0-19.5H162V216h16.5v16.5zm0-19.4H162V198h-15.1v-16.5h31.6v31.6zm0-34.6h-31.6V162H162v-15.1h16.5v31.6zm-31.6-19.4v-12.2h12.2v12.2h-12.2zm12.2-54h-12.2V92.9h12.2v12.2zm19.4 38.9H162v-16.5h16.5V144zm0-19.5H162V108h16.5v16.5zm0-19.4H162V90h-15.1V73.5h31.6v31.6zM162 19.5h16.5V36H162V19.5zm0 34.5V38.9h16.5v31.6h-31.6V54H162zm-15.1-2.9V38.9h12.2v12.2h-12.2zm-19.4-31.6h31.6V36H144v15.1h-16.5V19.5zm0 34.5H144v16.5h-16.5V54zm0 19.5H144V90h-16.5V73.5zm0 19.4H144V108h15.1v16.5h-31.6V92.9zm0 34.6h31.6V144H144v15.1h-16.5v-31.6zm0 34.5H144v16.5h-16.5V162zm0 19.5H144V198h-16.5v-16.5zm0 19.4H144V216h15.1v16.5h-31.6v-31.6zm0 34.6h31.6V252H144v15.1h-16.5v-31.6zm0 34.5H144v16.5h-16.5V270zm0 19.5H144V306h-16.5v-16.5zm0 19.4H144V324h15.1v16.5h-31.6v-31.6zm0 34.6h31.6V360H144v15.1h-16.5v-31.6zm0 34.5H144v16.5h-16.5V378zm0 19.5H144V414h-16.5v-16.5zm0 19.4H144V432h15.1v16.5h-31.6v-31.6zm-3 31.6H92.9V432H108v-15.1h16.5v31.6zm-31.6-19.4v-12.2h12.2v12.2H92.9zm12.2-54H92.9v-12.2h12.2v12.2zm19.4 38.9H108v-16.5h16.5V414zm0-19.5H108V378h16.5v16.5zm0-19.4H108V360H92.9v-16.5h31.6v31.6zm0-34.6H92.9V324H108v-15.1h16.5v31.6zm-31.6-19.4v-12.2h12.2v12.2H92.9zm12.2-54H92.9v-12.2h12.2v12.2zm19.4 38.9H108v-16.5h16.5V306zm0-19.5H108V270h16.5v16.5zm0-19.4H108V252H92.9v-16.5h31.6v31.6zm0-34.6H92.9V216H108v-15.1h16.5v31.6zm-31.6-19.4v-12.2h12.2v12.2H92.9zm12.2-54H92.9v-12.2h12.2v12.2zm19.4 38.9H108v-16.5h16.5V198zm0-19.5H108V162h16.5v16.5zm0-19.4H108V144H92.9v-16.5h31.6v31.6zm0-34.6H92.9V108H108V92.9h16.5v31.6zm-31.6-19.4V92.9h12.2v12.2H92.9zM124.5 90H108V73.5h16.5V90zm0-19.5H108V54h16.5v16.5zm-31.6-51h31.6v31.6H108V36H92.9V19.5zm0 19.4h12.2v12.2H92.9V38.9zM73.5 19.5H90V36H73.5V19.5zm0 19.4H90V54h15.1v16.5H73.5V38.9zm0 34.6h31.6V90H90v15.1H73.5V73.5zm0 34.5H90v16.5H73.5V108zm0 19.5H90V144H73.5v-16.5zm0 19.4H90V162h15.1v16.5H73.5v-31.6zm0 34.6h31.6V198H90v15.1H73.5v-31.6zm0 34.5H90v16.5H73.5V216zm0 19.5H90V252H73.5v-16.5zm0 19.4H90V270h15.1v16.5H73.5v-31.6zm0 34.6h31.6V306H90v15.1H73.5v-31.6zm0 34.5H90v16.5H73.5V324zm0 19.5H90V360H73.5v-16.5zm0 19.4H90V378h15.1v16.5H73.5v-31.6zm0 34.6h31.6V414H90v15.1H73.5v-31.6zm0 34.5H90v16.5H73.5V432zm-22.4-2.9H38.9v-12.2h12.2v12.2zm19.4 19.4H54V432h16.5v16.5zm0-19.4H54V414H38.9v-16.5h31.6v31.6zm0-34.6H38.9V378H54v-15.1h16.5v31.6zm-31.6-19.4v-12.2h12.2v12.2H38.9zm12.2-54H38.9v-12.2h12.2v12.2zM70.5 360H54v-16.5h16.5V360zm0-19.5H54V324h16.5v16.5zm0-19.4H54V306H38.9v-16.5h31.6v31.6zm0-34.6H38.9V270H54v-15.1h16.5v31.6zm-31.6-19.4v-12.2h12.2v12.2H38.9zm12.2-54H38.9v-12.2h12.2v12.2zM70.5 252H54v-16.5h16.5V252zm0-19.5H54V216h16.5v16.5zm0-19.4H54V198H38.9v-16.5h31.6v31.6zm0-34.6H38.9V162H54v-15.1h16.5v31.6zm-31.6-19.4v-12.2h12.2v12.2H38.9zm12.2-54H38.9V92.9h12.2v12.2zM70.5 144H54v-16.5h16.5V144zm0-19.5H54V108h16.5v16.5zm0-19.4H54V90H38.9V73.5h31.6v31.6zM54 19.5h16.5V36H54V19.5zM54 54V38.9h16.5v31.6H38.9V54H54zm-15.1-2.9V38.9h12.2v12.2H38.9zM19.5 19.5h31.6V36H36v15.1H19.5V19.5zm0 34.5H36v16.5H19.5V54zm0 19.5H36V90H19.5V73.5zm0 19.4H36V108h15.1v16.5H19.5V92.9zm0 34.6h31.6V144H36v15.1H19.5v-31.6zm0 34.5H36v16.5H19.5V162zm0 19.5H36V198H19.5v-16.5zm0 19.4H36V216h15.1v16.5H19.5v-31.6zm0 34.6h31.6V252H36v15.1H19.5v-31.6zm0 34.5H36v16.5H19.5V270zm0 19.5H36V306H19.5v-16.5zm0 19.4H36V324h15.1v16.5H19.5v-31.6zm0 34.6h31.6V360H36v15.1H19.5v-31.6zm0 34.5H36v16.5H19.5V378zm0 19.5H36V414H19.5v-16.5zm0 19.4H36V432h15.1v16.5H19.5v-31.6z"/></svg>